<svg width="1590" height="1589" xmlns="http://www.w3.org/2000/svg" xmlns:xlink="http://www.w3.org/1999/xlink" overflow="hidden"><defs><clipPath id="clip0"><rect x="1405" y="403" width="1590" height="1589"/></clipPath></defs><g clip-path="url(#clip0)" transform="translate(-1405 -403)"><text fill="#FFFFFF" font-family="Calibri,Calibri_MSFontService,sans-serif" font-weight="400" font-size="83" transform="matrix(1 0 0 1 2182.24 1225)">x</text><path d="M323.495-3.97113-3.50585 86.7655-3.50585 930.029 323.495 839.307 323.495-3.97113" fill="#EBEAE9" fill-rule="evenodd" transform="matrix(1 0 0 -1 1873 1613)"/><path d="M322.061-3.97113-3.93923 86.7655-3.93923 930.029 322.061 839.307 322.061-3.97113" fill="#EBEAE9" fill-rule="evenodd" transform="matrix(1 0 0 -1 2527 1613)"/><path d="M-3.72932-3.97113 323.272 86.7655 323.272 930.029-3.72932 839.307-3.72932-3.97113" fill="#C8C6BC" fill-rule="evenodd" transform="matrix(1 0 0 -1 2200 1613)"/><path d="M-3.27267-3.97113 322.729 86.7655 322.729 930.029-3.27267 839.307-3.27267-3.97113" fill="#CAC9C7" fill-rule="evenodd" transform="matrix(1 0 0 -1 1547 1613)"/><path d="M-3.50585 802.027-3.50585 86.8167 323.495-3.97285 323.495 711.251-3.50585 802.027" fill="#D9C4CB" fill-rule="evenodd" transform="matrix(1 0 0 -1 1873 1549)"/><path d="M-3.72915 711.251-3.72915-3.97285 323.272 86.8167 323.272 802.027-3.72915 711.251" fill="#55BDC8" fill-rule="evenodd" transform="matrix(1 0 0 -1 2200 1549)"/><path d="M-2.98768 782.764-3.92097 783.022-3.92097 68.2938 256.079-3.97924 256.079 710.75-2.98768 782.764" fill="#D9C4CB" fill-rule="evenodd" transform="matrix(1 0 0 -1 2527 1530)"/><path d="M-3.29859 710.75-3.29859-3.97916 256.702 68.3073 256.702 783.022-3.29859 710.75" fill="#55BDC8" fill-rule="evenodd" transform="matrix(1 0 0 -1 1613 1530)"/><path d="M0.688226-1.77676-4.22467-2.83181-3.3346-3.7779C-0.469564-3.7779 1.18582-3.22988 0.688226-1.77676" fill="#FFFFFF" fill-rule="evenodd" transform="matrix(1 0 0 -1 1904 1152)"/><path d="M-47.54-7.92392-46.5403-8.9265-47.54-7.92392" fill="#FFFFFF" fill-rule="evenodd" transform="matrix(1 0 0 -1 1877 1144)"/><path d="M-2.90407-2.60173 0.0956636-3.88813-0.0771166-2.67295C-0.239159-1.50006-1.37931-1.78271-2.90407-2.60173" fill="#FFFFFF" fill-rule="evenodd" transform="matrix(1 0 0 -1 1840 1161)"/><path d="M252.567 248.708C255.631 249.053 256.667 248.12 259.212 246.798 257.961 246.74 256.537 247.243 255.315 247.76 254.078 248.263 253.027 248.78 252.539 248.708L252.567 248.708M265.699 260.976C264.376 259.942 263.11 258.606 262.822 257.629 260.982 260.89 263.973 260.675 265.699 260.976M326.437 201.534 328.911 202.654 326.811 205.584C309.71 204.636 328.925 221.63 317.822 227.778 318.067 227.649 300.793 214.046 301.627 220.309 301.598 219.992 299.786 227.477 302.188 229.387 300.419 229.632 297.427 230.723 297.197 230.723 302.145 233.524 288.754 236.498 285.246 235.507 274.113 237.072 272.761 210.655 263.757 206.446 254.278 202.266 254.222 193.303 248.008 189.553 243.392 186.838 243.794 191.909 245.204 196.98 246.397 201.246 248.295 205.513 248.512 205.139 246.872 207.696 226.549 213.414 221.04 213.414L223.874 220.265 219.616 220.711C217.316 222.42 244.268 240.88 245.347 239.098 244.081 241.109 239.637 239.285 238.386 241.497 251.187 237.576 256.451 245.161 267.425 248.909 263.657 245.534 259.931 242.086 256.781 239.328 257.543 239.443 259.917 239.242 262.837 239.055 268.374 238.682 275.867 238.294 278.01 240.075 275.824 238.365 272.013 249.513 269.956 249.513L268.274 246.381C269.093 247.631 269.827 248.967 268.015 249.168L268.043 250.461C272.013 251.049 271.207 247.057 274.171 247.057 275.781 247.057 273.163 249.685 273.006 249.829 275.91 252.717 291.948 254.469 288.035 262.584 287.964 262.715 288.927 262.642 290.366 262.571 294.32 262.37 301.814 262.183 300.477 266.205 301.9 264.453 304.058 261.163 306.1 261.752 306.157 260.847 305.309 260.905 304.388 260.948 303.324 261.005 302.16 261.063 302.274 259.597L307.956 259.239C307.956 257.442 305.41 256.437 305.481 256.021 306.344 251.739 309.149 258.19 309.178 258.347L310.875 257.485C309.508 252.616 302.418 251.424 302.418 247.573 301.166 246.87 298.721 246.956 296.089 247.028 291.732 247.171 286.884 247.301 286.151 243.881 287.359 249.714 311.522 232.117 316.455 232.117 319.692 232.117 312.428 239.486 312.314 239.902 315.938 239.988 318.943 234.257 321.706 234.257 324.251 234.257 321.59 239.055 323.058 239.658L323.273 239.745 324.87 238.251C323.086 238.251 325.215 242.574 325.862 242.891 324.956 244.312 319.851 248.206 320.051 248.292 320.31 248.895 322.281 248.637 325.014 248.392 329.932 247.961 337.34 247.516 341.655 252.027L326.538 259.325C326.323 260.832 333.212 260.775 333.212 261.853L330.134 262.815 330.22 263.317 332.809 263.433C334.075 265.903 329.717 265.127 328.925 264.769 329.818 267.254 322.425 273.459 319.031 268.906 317.707 272.052 315.405 272.31 314.255 274.221 315.017 279.104 304.792 278.617 304.906 276.634 305.165 273.733 307.063 274.177 308.905 274.623 310.055 274.895 311.178 275.169 311.867 274.638L301.353 272.123C301.353 273.028 305.022 275.557 304.935 277.41 304.848 279.751 286.957 275.255 286.208 271.463L288.784 269.968 287.316 269.149C280.139 270.615 295.198 278.415 295.269 278.113 294.307 281.317 273.106 274.379 273.106 269.006L279.377 268.101C279.19 268.087 278.572 268.159 277.795 268.216 275.724 268.388 272.459 268.547 272.718 267.354 273.408 263.978 288.784 264.309 288.784 264.309L287.474 263.26C283.231 260.718 278.054 258.232 272.315 256.495L273.365 257.959C273.365 258.002 268.719 254.454 267.31 253.881L266.029 255.834C265.958 255.747 274.371 262.254 268.418 262.254L266.748 261.666C266.879 263.591 263.93 263.418 262.103 263.231 261.341 263.16 260.765 263.088 260.708 263.16 262.822 264.64 268.633 268.431 262.966 271.175 266.203 271.979 280.225 274.895 281.85 277.927 281.161 276.634 253.344 272.511 250.352 265.286 249.101 262.584 254.409 263.073 254.941 262.959L255.804 262.082C253.948 261.379 245.017 257.399 245.017 254.612L243.592 254.095 242.643 254.655 246.21 257.73 242.643 258.476 251.935 262.082C253.042 264.338 236.89 263.16 237.624 260.229 237.825 259.482 238.731 259.64 239.609 259.799 240.313 259.913 241.003 260.043 241.291 259.711 235.984 256.164 230.029 254.167 220.624 257.442 226.247 259.239 210.569 262.513 209.074 258.347 209.16 258.534 211.275 254.512 208.341 252.76L207.089 253.162C207.448 254.167 207.017 256.409 204.715 256.207L207.261 257.442C207.218 257.629 204.442 257.127 201.063 256.638 196.388 255.963 190.534 255.273 189.096 256.379 189.139 258.017 196.173 256.581 194.95 258.908 192.721 262.916 184.22 262.584 177.518 262.269 174.425 262.125 171.722 261.982 170.197 262.254L170.96 262.584 173.117 264.668C172.843 266.018 170.37 264.912 168.169 263.791 166.3 262.843 164.617 261.896 164.617 262.456L165.537 266.349 164.041 266.938C164.531 266.938 158.647 262.125 157.943 263.892L159.136 264.668C156.418 263.36 140.367 264.309 121.065 265.243 86.9494 266.894 42.6649 268.561 43.7725 257.873 43.8869 256.581 46.7929 251.049 49.4101 253.405 49.4101 249.599 42.1904 249.297 40.3784 249.786L42.6072 251.682C42.6366 251.28 24.068 249.441 24.025 247.458L27.2889 246.482 23.4202 243.881C23.7079 241.641 34.452 242.675 39.3274 243.954 28.8857 239.673 1.09853 233.783 5.72935 224.158 7.28315 221.271 14.0861 227.893 15.5527 227.951L5.49945 219.849C5.29787 219.203 17.9265 220.869 19.4508 221.559 16.3727 218.743 19.1348 219.547 21.666 220.309 18.9616 218.728 7.45529 214.462-3.34656 210.497L-3.31711 210.497-0.929788 208.314C11.5402 211.977 24.9888 216.056 27.9797 217.062 27.4191 216.617 20.3285 214.175 21.7237 212.509L23.0465 211.459C24.9593 211.459 36.4078 216.99 36.7533 218.082L36.7249 219.203 28.1813 217.149C30.4112 218.412 37.1564 219.748 33.9197 222.061 40.4928 223.972 44.8224 227.85 50.3739 229.014 48.332 227.434 40.7804 223.9 40.2482 222.349 40.8382 224.144 55.0478 224.029 61.6208 226.212L61.6208 225.567 65.7635 227.649C65.7635 225.164 66.4249 226.802 66.7987 223.856 92.3571 230.307 76.3061 210.799 82.2177 202.668 84.2166 199.781 87.4386 207.739 88.1 209.334 87.5247 206.776 86.8203 187.6 88.1577 186.134 86.8203 186.536 82.8214 189.553 82.3616 186.809 80.7647 179.871 89.1215 178.52 83.9142 168.164 75.716 155.666 58.5721 135.641 67.2166 121.936 71.8904 114.682 86.1011 89.1554 77.3853 89.1554 81.7863 89.1554 86.0864 64.8207 91.2212 64.4044L91.7965 64.375C94.6583 64.375 81.2823 103.65 84.2166 103.65 93.5224 103.65 85.3967 94.4423 88.3016 90.3906 99.6063 75.1206 104.726 46.5917 126.588 37.398 138.929 32.5998 157.784 22.8315 171.031 22.8315 176.396 22.8315 178.813-1.87652 188.003-1.87652 188.175-1.87652 190.607 2.63436 192.778-0.669619 192.778-2.02017 192.103-2.00546 191.569-1.97719 191.296-1.97719 191.052-1.96248 190.951-2.14911L191.901-4.07427C193.339-4.07427 198.142-0.296352 201.465 1.3562 194.647 4.44414 188.967 10.4198 185.903 17.2155 177.733 36.32 192.577 25.8912 168.083 34.3666 172.081 39.3808 172.8 46.3191 175.663 51.8491 184.278 68.5556 161.006 54.8805 162.473 50.1977 164.688 43.3884 142.813 45.6008 138.685 57.9978 144.035 64.7777 156.045 114.884 173.318 93.9536L174.728 93.2489C175.893 95.4478 181.89 98.6941 182.653 99.5266 183.4 105.043 198.142 86.7711 198.675 86.0811 197.438 87.7325 203.047 74.0721 203.594 74.0721 211.792 74.0721 205.018 109.224 220.94 112.657 229.411 114.481 230.692 121.175 233.481 123.257 234.718 124.163 233.697 137.408 238.832 137.924L235.524 127.496C237.264 125.585 240.816 136.732 240.874 137.566L241.766 135.137C241.507 136.301 247.563 142.335 251.82 144.749L251.446 144.849 252.97 145.337 251.82 144.749 255.444 145.294 254.063 145.639C258.421 147.09 259.644 147.894 259.902 145.855 259.831 146.659 265.699 146.702 264.591 149.273 263.944 150.752 263.21 148.771 262.175 148.21L261.24 150.696C261.802 154.157 269.683 157.203 272.632 159.817L271.38 157.964C271.323 158.653 288.035 164.644 289.46 165.779L286.942 163.897 290.422 164.141C290.422 160.952 278.355 162.935 281.06 156.111 282.067 153.525 311.623 171.022 305.065 171.022 297.873 171.022 296.219 169.198 295.888 168.307 295.859 169.083 295.385 170.893 293.328 174.742L286.008 175.03 286.066 175.231C290.538 174.24 292.322 177.759 295.701 178.678 297.873 185.229 272.588 172.574 269.611 170.778 286.339 183.706 301.037 179.943 317.678 188.217 329.487 188.217 331.284 200.241 326.437 201.534" fill="#FFFFFF" fill-rule="evenodd" transform="matrix(1 0 0 -1 1635 1165)"/><path d="M-1.55198-4.33007-2.55201-5.33156-1.55198-4.33007" fill="#FFFFFF" fill-rule="evenodd" transform="matrix(1 0 0 -1 1960 961)"/><path d="M-12.3424-35.1271-13.3465-36.1268-12.3424-35.1271" fill="#FFFFFF" fill-rule="evenodd" transform="matrix(1 0 0 -1 1956 963)"/><path d="M-2.44364-3.4215C-4.5855-5.18734-1.2585-1.72412-2.44364-3.4215" fill="#FFFFFF" fill-rule="evenodd" transform="matrix(1 0 0 -1 1941 922)"/><path d="M-2.66924-5.55945C-0.361615-7.49843-3.42695-6.1241-2.66924-5.55945" fill="#FFFFFF" fill-rule="evenodd" transform="matrix(1 0 0 -1 1877 906)"/><path d="M-4.46633-4.57772C-3.06494-3.1696-3.53258-3.66635-4.01862-4.14746-4.3498-4.47863-4.68098-4.80981-4.46633-4.57772" fill="#FFFFFF" fill-rule="evenodd" transform="matrix(1 0 0 -1 1812 1064)"/><path d="M-5.30461-97.0997-6.30428-96.1-5.30461-97.0997" fill="#FFFFFF" fill-rule="evenodd" transform="matrix(1 0 0 -1 1687 911)"/><path d="M-0.621081-6.85223C-4.84659-8.24763-3.47877-7.76558-2.02001-7.25605-1.0471-6.93257-0.0442775-6.61121-0.621081-6.85223" fill="#FFFFFF" fill-rule="evenodd" transform="matrix(1 0 0 -1 1690 932)"/><path d="M-2.98933-2.75625-3.12604-2.90716C-2.51031-2.1208-1.29391-1.19226-2.98933-2.75625" fill="#FFFFFF" fill-rule="evenodd" transform="matrix(1 0 0 -1 1723 950)"/><path d="M-1.91556-3.35592C-5.82019-5.94281-4.39214-4.99586-2.9626-4.03026-1.87656-3.3014-0.792026-2.58976-1.91556-3.35592" fill="#FFFFFF" fill-rule="evenodd" transform="matrix(1 0 0 -1 1817 1149)"/><path d="M-1.4589-4.22276-2.30348-2.22269C-2.63101-3.12503-2.48304-3.84737-1.4589-4.22276" fill="#FFFFFF" fill-rule="evenodd" transform="matrix(1 0 0 -1 1813 1070)"/><path d="M-3.43369-8.66891-3.54648-8.34586-5.4334-9.34808Z" fill="#FFFFFF" fill-rule="evenodd" transform="matrix(1 0 0 -1 1940 932)"/><path d="M-6.05283-8.11556-7.05525-9.11524-6.05283-8.11556" fill="#FFFFFF" fill-rule="evenodd" transform="matrix(1 0 0 -1 1797 897)"/><path d="M58.1229 38.815C55.8603 40.9585 58.1229 41.8796 58.1229 38.815M33.8119 283.124C31.7218 280.332 32.9189 281.987 34.1148 283.656 35.4549 285.498 36.8234 287.339 33.8119 283.124M136.431 229.831C136.531 229.773 136.834 236.219 134.903 236.219 128.346 236.219 122.524 242.032 117.207 231.644 117.409 235.658 94.7114 288.937 82.0016 270.823 83.9033 278.751 70.7748 282.75 66.9565 286.937 59.4198 286.952 41.2907 293.569 38.5822 295.325 37.8321 293.771 31.9669 288.376 32.1541 289.397L31.2758 292.001C31.2758 292.793 36.1891 293.397 34.5755 295.671 28.7398 303.684 9.76071 276.75 11.0724 276.75 8.92444 276.75 6.84907 277.182 4.77369 277.742 5.85507 271.542 9.05379 258.002 8.52162 258.002-2.63251 258.002-5.3853 226.665-2.18544 230.781-4.79412 210.852 4.45711 201.126 14.9622 179.299 21.4187 165.847 54.7653 158.221 42.5014 136.567 37.991 127.762 43.222 60.9296 51.0038 56.9576 49.0441 56.5407 49.8793 49.6627 52.1566 49.6627 54.4192 49.6627 52.6899 55.9221 52.9067 57.8651L53.8712 57.822 56.0623 44.6994C54.923 44.6994 54.535 47.6926 53.1937 47.6926L53.5546 34.1678C53.0496 34.1678 59.2905 35.2327 59.2905 36.8868L60.7452 31.9801C52.3007 23.7358 69.8534 10.7865 69.9102 10.8443L70.069 9.708C68.7006 9.93798 67.6045 11.1174 67.6045 8.9886 67.8212 6.24013 98.0542-5.2273 99.3228-3.70239L99.409-3.64461C95.2731-3.64461 103.315 1.52038 103.603 2.02453 82.8083 7.37645 77.5047 44.858 83.3995 53.1453 84.1632 54.7427 84.8973 53.7639 85.6905 52.7862 86.4541 51.8504 87.2757 50.9146 88.2118 52.2243 89.4373 54.0233 77.9087 57.2318 79.9262 60.5841 81.4388 61.001 97.3484 70.8427 87.8237 69.7925 115.91 77.1157 97.0319 74.1667 97.2043 89.6911 97.2043 76.871 114.482 93.7481 120.636 102.683L121.068 101.936C125.247 101.936 131.401 136.423 142.757 139.79 153.234 143.531 180.901 211.788 171.736 219.198 162.528 226.665 145.164 226.363 136.431 229.831" fill="#FFFFFF" fill-rule="evenodd" transform="matrix(1 0 0 -1 1835 1443)"/><path d="M-20.0526-9.76872-19.053-10.7713-20.0526-9.76872" fill="#FFFFFF" fill-rule="evenodd" transform="matrix(1 0 0 -1 1964 919)"/><path d="M30.3856 31.4239 27.486 32.8878 31.8077 32.8596ZM3.86843 57.9844C4.22792 58.2139 5.39116 58.0986 3.86843 57.9844ZM113.067 43.7268 110.655 41.7892 108.516 43.7133ZM114.101 32.6007C110.282 33.3898 106.29 32.8878 102.486 33.1173 108.2 33.3321 108.574 33.1603 116.24 33.1603 119.542 33.1603 114.675 38.0846 111.301 41.2432 112.866 40.2676 119.657 38.3718 118.422 42.8371L114.56 44.2729C118.422 45.6226 119.743 43.8851 123.289 46.0963L121.738 46.6559C123.964 46.6559 126.289 46.5847 128.17 48.0769L125.055 49.5703C131.07 52.2416 125.428 53.2601 124.984 55.3278 124.251 58.2139 129.103 55.3278 130.295 53.8344L132.851 56.9218C132.319 59.965 129.161 56.6776 127.869 58.7305L131.329 58.9023C131.329 63.2242 124.639 58.8311 124.193 58.9023 126.088 67.4013 151.5 64.4157 152.491 70.9476L132.535 72.6422C132.09 72.355 132.19 69.0959 128.4 70.1732 132.075 73.5183 121.738 70.9476 121.307 71.809L131.53 73.5036C131.53 77.6818 103.074 74.1785 102.457 74.3074L105.845 75.8007C105.386 79.5335 72.4659 71.5366 70.786 74.0066L69.2215 74.4656C69.2215 71.1635 75.3802 73.8913 75.9115 71.6654 73.2696 70.8911 63.8947 76.1455 61.7412 73.1735L64.1672 71.5083 54.5481 71.2494C55.769 72.5992 16.7613 68.9376 17.1638 66.784 17.4509 65.363 22.1887 67.33 22.5041 66.3251 23.8821 61.7308-3.2659 64.2438-3.51008 60.1798L2.79224 57.9267C0.968804 57.9267-2.73458 58.96-3.17998 57.0212-4.61567 48.8095 25.7485 57.5243 26.0221 52.1975 26.0221 49.3555 24.8871 52.3705 27.5437 49.2402 24.3998 46.0963 26.2798 43.3255 28.3904 44.2729 28.3045 43.4826 21.2843 39.0037 26.6528 41.5303L23.5814 37.4674C25.6773 35.3862 28.7499 37.5963 30.3856 38.8319 29.8554 36.4341 31.3047 34.7113 34.3626 35.3285L33.9748 34.1947C29.5683 33.4621 29.2382 36.6207 29.0935 36.736 27.3424 38.7742 21.8868 31.2938 21.4991 30.6337 20.5235 28.8249 25.3042 29.0544 28.2468 29.6716 23.6673 25.9682 16.7613 20.3248 20.8966 20.0807 12.469 9.39991 24.9594 1.93425 30.9893-4.08215 32.9563-6.07744 78.8835 20.4401 83.047 26.686 86.7368 23.2539 95.5657 24.7902 100.648 26.7426 102.529 27.3598 114.101 32.6007 114.101 32.6007" fill="#FFFFFF" fill-rule="evenodd" transform="matrix(1 0 0 -1 1979 933)"/><path d="M-125.519-6.10473-124.479-5.10342-125.519-6.10473" fill="#FFFFFF" fill-rule="evenodd" transform="matrix(1 0 0 -1 2113 876)"/><path d="M-3.45675 21.8169-0.428367 24.7244-1.57767 20.7004 0.95941 22.7338C0.875503 21.4019-2.91025 19.8986-2.47526 18.967-1.66158 17.6351 0.00662424 20.4568 0.28705 20.4715L-0.638135 17.0194 2.65632 19.5118 1.3381 15.7303 6.59664 16.1882C6.27426 14.1695 1.21224 6.97872 1.21224 8.98391 1.21224 7.17946 2.09547 7.38021 3.84868 6.90767L0.00662424 2.78224C0.356605 1.5507 5.90882 1.34996 7.46552 1.62288 7.01728 1.26424-3.20503-2.4315-2.53156-4.12092-2.58787-3.87732 22.2718-1.34206 21.8512 1.16387L19.2997 1.93753C20.8145 4.50098 26.3104 10.4015 18.1361 7.91026L13.1027 27.3318C12.2328 30.0385 7.10118 26.1713 6.10534 27.6758 6.38576 27.3318 12.9062 33.4184 11.5604 34.3071L10.2698 34.88C9.65262 34.88 3.42804 29.681 1.67483 28.3491 0.146837 27.1739-0.372061 26.8164-3.06371 26.5299-2.4333 25.1259-3.69522 22.1891-3.45675 21.8169" fill="#FFFFFF" fill-rule="evenodd" transform="matrix(1 0 0 -1 2133 977)"/><path d="M-5.35257-6.52096-4.35099-7.52307-5.35257-6.52096" fill="#FFFFFF" fill-rule="evenodd" transform="matrix(1 0 0 -1 2650 994)"/><path d="M-16.2025-5.22333-15.2025-6.22504-16.2025-5.22333" fill="#FFFFFF" fill-rule="evenodd" transform="matrix(1 0 0 -1 2362 887)"/><path d="M-19.6715-18.194-18.6662-19.199-19.6715-18.194" fill="#FFFFFF" fill-rule="evenodd" transform="matrix(1 0 0 -1 2684 965)"/><path d="M471.323 456.122C475.364 457.933 473.149 456.827 471.323 456.122M289.984 445.682C293.204 445.266 295.764 440.435 296.067 440.435 294.269 440.435 292.371 444.648 289.984 445.682M275.849 435.977C283.355 435.977 281.874 443.641 277.474 450.643 280.393 447.552 284.778 446.373 289.48 445.725L284.535 444.431C284.003 443.296 288.359 429.131 275.849 435.977M288.359 453.75 286.935 453.893C287.827 453.85 288.618 453.85 289.049 453.864 289.596 453.864 289.553 453.879 288.359 453.75M495.811 246.298C495.912 243.366 533.385 268.889 522.054 282.347L515.756 282.29C524.081 283.699 513.914 293.75 510.838 296.626 497.623 308.533 512.131 304.664 512.131 311.437L511.729 313.695C510.924 314.543 487.529 314.716 490.606 320.18L491.051 321.258C495.567 321.258 498.328 330.202 502.037 328.664 503.518 328.247 502.9 323.271 503.001 320.783 505.862 320.812 519.422 315.046 520.659 314.356 529.977 314.198 524.369 307.325 529.373 299.416 529.272 299.631 544.442 302.708 538.662 308.877 535.067 312.572 520.127 334.472 529.704 334.472 551.575 334.472 543.422 361.477 540.057 376.792 549.418 375.181 553.329 350.75 560.403 350.75L560.246 353.684 564.487 352.375C562.23 354.704 555.4 364.338 554.752 365.259 555.486 365.489 557.327 364.827 558.952 364.166 560.446 363.533 561.755 362.915 561.783 363.03L535.758 387.561 535.542 387.561C533.385 386.986 538.317 383.823 538.776 383.405 536.677 380.731 539.669 383.233 539.381 377.798 533.413 383.506 525.418 388.856 520.127 386.253 520.069 388.237 516.202 391.803 515.669 390.264L518.329 387.115 514.447 390.135C514.461 390.135 513.872 387.662 509.586 388.985 516.906 399.353 532.263 420.029 546.571 407.894L544.198 406.888C544.198 404.098 556.996 407.448 557.01 407.577 557.269 411.445 556.952 412.883 556.636 413.329 557.24 413.559 558.534 414.494 561.109 417.484 559.268 415.198 572.727 410.669 571.806 416.953L567.895 420.216C571.059 418.879 573.273 417.154 575.617 413.876L568.14 401.495 591.707 368.925C593.433 366.179 596.294 377.625 593.922 381.364L598.12 381.752 593.965 386.023C594.124 386.31 599.084 392.12 596.324 394.176L596.195 395.125C594.21 398.993 577.903 404.055 580.42 409.418 583.181 414.278 594.871 409.633 600.953 409.633 594.613 409.633 618.496 426.356 616.311 419.584 618.151 424.789 601.846 425.882 600.077 428.787 601.658 428.457 605.872 428.097 605.872 430.872L601.428 434.696 602.694 434.769C604.304 431.404 630.877 426.831 631.251 428.111L626.42 432.007C626.635 432.166 627.124 432.166 627.656 432.166 628.663 432.152 629.798 432.152 629.497 433.187 627.498 434.164 611.839 442.461 609.855 438.896L612.974 436.652C591.492 442.002 572.396 448.371 550.209 450.241L557.615 445.453C554.278 440.435 482.294 456.855 468.274 457.776L470.647 458.336 470.647 458.682 455.102 459.746 456.814 458.652 452.673 458.135 458.439 454.741C452.601 454.282 446.116 456.539 437.359 456.539L438.336 451.952C435.331 452.9 406.515 469.121 404.358 462.549L407.924 459.472C402.675 462.09 395.256 461.773 388.34 461.442 381.423 461.126 375.01 460.796 371.803 463.412 372.565 463.584 375.83 463.584 375.83 464.893 375.83 467.97 366.986 463.024 367.014 462.865L370.063 462.391C369.387 460.378 359.523 461.931 359.523 459.386 359.523 462.909 373.399 464.908 372.752 467.985 371.055 477.605 332.835 472.917 334.43 472.443 331.065 473.104 328.723 472.544 326.378 471.982 323.976 471.407 321.59 470.832 318.11 471.565 316.269 471.192 299.014 467.324 298.956 465.339L305.845 464.045C304.521 462.995 301.315 463.01 298.123 463.024 294.183 463.053 290.3 463.067 290.056 461.083 289.898 458.911 300.625 456.798 300.625 455.978 299.805 455.029 288.963 457.617 287.094 458.551L289.926 459.113C290.775 461.169 287.985 459.889 285.771 458.609 284.289 457.746 283.053 456.884 283.383 457.042 284.275 456.668 285.023 456.697 285.756 456.74 286.518 456.798 287.266 456.827 288.143 456.381 287.813 456.252 286.993 456.338 286.072 456.424 284.52 456.568 282.664 456.712 282.477 455.776L282.477 455.36C280.091 456.424 277.775 457.718 276.999 458.682 276.769 456.798 275.964 453.174 275.388 453.763L275.691 453.232C269.22 461.773 259.14 467.481 258.09 452.844L262.505 449.449C259.658 443.813 270.486 449.076 268.746 442.691 265.438 443.339 236.405 451.823 236.55 449.795L245.839 445.755C246.127 440.146 240.504 446.258 239.382 447.063 238.304 446.474 231.949 443.367 226.93 442.749 225.779 445.367 228.253 443.54 228.253 445.223 228.253 445.942 223.594 443.828 218.274 441.742 211.501 439.083 203.636 436.408 202.845 439.514 203.405 440.42 204.311 440.362 205.174 440.291 205.993 440.233 206.785 440.19 207.244 440.923 204.613 442.174 198.804 443.066 197.207 444.173L202.068 437.113 201.421 434.438C192.174 441.066 192.161 430.383 191.629 429.075 190.493 427.378 188.134 428.442 185.776 429.491 183.389 430.569 181.003 431.648 179.91 429.837L185.373 426.356C178.816 423.079 171.626 434.222 167.975 437.084 169.786 437.658 174.588 437.27 179.421 436.883 189.026 436.106 198.818 435.329 185.834 442.174 174.618 448.73 166.091 447.264 156.543 448.472L160.64 450.37C160.152 452.743 156.514 452.138 154.069 451.535 152.89 451.233 151.97 450.945 151.84 450.988L153.394 452.973C151.208 455.432 149.267 451.621 147.93 451.046L147.541 451.606C147.512 450.859 146.793 449.982 143.73 449.795L145.93 453.333C146.017 453.174 135.52 451.176 134.053 451.535L136.311 449.982C132.314 450.385 132.098 449.924 129.351 447.897 129.84 453.893 125.124 447.537 124.247 445.51 122.075 449.55 121.845 445.898 120.853 444.331 119.386 448.889 113.75 443.267 109.852 441.685L109.895 440.491 116.295 442.62C116.669 430.196 92.8269 425.293 92.6117 421.108 92.7555 422.834 79.1958 410.669 87.1758 407.951 84.3724 402.774 100.42 398.518 103.353 407.663 108.041 393.5 105.999 396.505 105.122 388.482L107.049 387.317C118.797 387.317 122.708 401.466 130.07 408.843 130.588 409.303 118.954 417.887 127.223 421.525 131.336 423.639 138.18 426.356 142.652 428.097 137.749 424.991 131.853 418.405 136.512 413.646 139.776 410.395 146.951 410.453 153.883 410.511 157.146 410.539 160.367 410.568 163.099 410.251 158.642 409.202 139.043 408.67 138.482 403.379L139.489 401.265C140.423 401.394 148.26 404.615 147.052 403.163 146.793 401.495 147.455 399.885 146.994 398.403 138.813 395.858 119.3 378.042 104.575 385.39 99.9023 382.04 104.763 399.611 103.742 400.747 96.4217 408.412 98.0329 385.692 98.0612 385.534 98.2345 384.643 63.0908 367.789 61.3222 367.789 68.4689 367.789 51.8465 359.622 50.5512 361.362 51.7888 356.487 77.5993 340.627 47.5032 340.627 29.4575 340.627 32.4342 327.196 32.1172 311.106 38.186 309.754 70.0507 306.462 64.6873 321.56 61.5521 330.735 101.641 352.102 101.641 337.176 101.641 336.371 118.854 329.008 118.926 326.233 119.444 317.261 110.356 317.246 110.356 315.894 110.356 298.725 131.465 323.271 127.855 326.563 129.265 325.845 130.846 324.091 131.681 324.019 134.269 326.924 109.55 339.275 109.55 345.372 109.55 353.353 119.242 344.582 119.242 343.69 119.242 342.037 150.288 310.488 153.235 314.241L155.047 316.671C153.652 317.635 145.082 327.082 146.822 327.082 148.317 327.082 160.885 331.252 161.258 326.924L158.584 321.344C160.166 317.749 162.194 323.185 162.165 323.185 162.108 321.646 159.979 317.879 159.202 317.232L164.063 316.182C164.121 315.521 160.727 314.471 165.228 312.731L162.898 309.28C165.113 310.819 164.998 311.135 167.14 311.84L164.998 310.2 167.615 307.31 169.413 310.776C169.413 307.468 196.115 307.814 196.115 311.106 200.817 286.604 182.584 283.871 161.848 287.64 158.858 288.2 124.405 291.479 134.154 283.081 127.712 288.689 112.571 295.505 105.496 297.158 98.9965 298.956 108.631 308.087 105.841 312.285 98.6794 323.559 39.2933 299.343 32.8939 295.16 25.215 290.314 6.16279 260.821 1.57608 250.555-0.0498187 245.839-6.24658 210.264-2.63812 206.109 3.83264 199.048 10.1313 187.257 18.5722 178.241 33.2958 158.858 55.815 174.014 73.8607 176.228 78.4916 176.775 109.393 164.537 99.1403 154.759 93.2594 148.231 110.14 116.568 113.26 108.114 120.379 89.6073 101.253 75.76 114.9 55.2542 124.448 41.4647 124.39 12.7354 132.126 0.685002 138.051-8.46005 151.581-1.39944 161.891-1.39944 185.388-1.39944 192.477 46.5269 198.114 55.4557 196.072 67.5061 219.855 77.7867 219.898 98.2779 220.085 101.772 207.618 137.577 221.768 137.577 235.141 137.577 262.389 187.731 261.297 197.021 261.038 199.509 233.904 199.106 228.21 199.106 235.529 205.347 182.9 263.094 186.006 280.162 187.113 278.177 190.306 270.829 193.024 270.829L194.863 277.272C195.468 268.342 238.836 207.186 236.636 204.757 250.814 220.66 293.881 221.005 292.774 247.161 292.774 245.738 272.843 263.813 276.813 263.813 271.823 263.813 268.904 254.207 261.541 254.207 256.695 254.207 262.447 264.259 257.141 264.259L256.049 260.102C256.437 260.189 236.694 283.139 249.29 281.24 251.735 280.982 266.344 259.527 272.57 266.545 275.23 269.794 289.265 264.172 303.199 258.564 315.306 253.675 327.341 248.801 331.771 249.736 330.591 247.506 326.436 247.952 326.09 247.204 325.358 245.364 335.25 236.507 338.514 241.971 340.7 224.859 369.014 170.864 371.746 189.169 372.162 192.951 369.862 217.626 376.534 220.214 381.869 222.113 397.988 238.965 399.685 246.097 399.685 242.287 406.429 244.343 406.802 247.161 407.982 244.055 411.907 246.73 411.907 248.283 414.696 237.226 429.637 216.073 435.015 221.652 443.815 231.056 446.432 182.253 444.562 182.253L445.67 184.971 447.841 180.283C447.841 180.254 465.499 146.405 470.877 152.085 473.278 154.53 435.447 208.424 451.954 208.424 456.613 208.424 472.07 186.394 471.51 186.092 501.002 202.93 455.074 243.926 483.172 243.926L483.818 237.801C482.022 241.583 494.762 244.012 495.811 246.298" fill="#FFFFFF" fill-rule="evenodd" transform="matrix(1 0 0 -1 2082 1350)"/><path d="M-13.2073-2.89399-14.207-1.89395-13.2073-2.89399" fill="#FFFFFF" fill-rule="evenodd" transform="matrix(1 0 0 -1 2589 1026)"/><path d="M-8.63981-5.13748C-8.56175-4.16935-10.9273-3.48139-8.63981-5.13748" fill="#FFFFFF" fill-rule="evenodd" transform="matrix(1 0 0 -1 2233 894)"/><path d="M-13.3483-28.5462-12.3486-27.5386-13.3483-28.5462" fill="#FFFFFF" fill-rule="evenodd" transform="matrix(1 0 0 -1 2245 1029)"/><path d="M-2.17232-6.8558-3.17235-7.85584-2.17232-6.8558" fill="#FFFFFF" fill-rule="evenodd" transform="matrix(1 0 0 -1 2252 1039)"/><path d="M-261.581-6.08343-262.664-5.08376-261.581-6.08343" fill="#FFFFFF" fill-rule="evenodd" transform="matrix(1 0 0 -1 2136 985)"/><path d="M-18.1635-39.8619-17.1582-40.8729-18.1635-39.8619" fill="#FFFFFF" fill-rule="evenodd" transform="matrix(1 0 0 -1 2241 1030)"/><path d="M58.9873 13.887C58.5835 13.2124 67.5256 14.2452 60.49 17.4599 57.5427 18.852 19.5927 48.0554 17.6566 33.8622 17.064 28.8972 3.52746 43.4916-3.31929 40.765L-3.96995 39.4305C-1.38436 37.9526 2.47297 32.7288 6.35989 32.9447 4.40904 32.6283 1.64941 32.5424 1.08633 31.6949L4.95846 25.5684C6.61924 25.5684 7.37 28.6102 8.09233 29.7153 8.09233 22.0814 21.4559 19.7559 21.4559 7.31413 21.4559 2.60791 51.201 7.54464 43.2554 7.54464 54.4225 14.9774 59.0021-3.89266 70.7618-3.89266L73.03-1.45311C73.1449 1.50283 55.593 8.30509 58.9873 13.887" fill="#FFFFFF" fill-rule="evenodd" transform="matrix(1 0 0 -1 2658 1245)"/><path d="M-11.4228-21.1104-12.4224-20.1043-11.4228-21.1104" fill="#FFFFFF" fill-rule="evenodd" transform="matrix(1 0 0 -1 2658 1202)"/><path d="M139.349 78.2984C138.428 82.7781 138.501 84.9386 138.501 87.5878 138.314 91.5209 122.704 111.368 123.265 113.01 122.561 114.407 121.612 131.173 120.563 131.173 116.999 131.173 110.143 95.006 105.889 99.2974 101.116 103.95 94.3903 106.11 90.3228 111.728 88.8708 114.018 99.5351 121.665 97.6384 123.352L96.1863 125.598C93.9727 125.598 95.4971 122.531 94.0304 122.531L93.6569 125.296C87.5625 125.296 83.2076 128.55 78.5222 128.55 76.8404 128.55 81.6118 125.123 80.8502 124.1 80.9803 124.215 59.7082 113.558 68.332 112.894 66.751 109.783 64.0201 114.119 62.5251 110.691 61.4907 125.065 47.7355 108.07 46.528 105.016L43.8684 106.485C41.6117 106.485 44.2566 102.208 44.1989 101.732 41.8562 102.496 43.6534 101.876 42.5465 99.7012L41.511 104.512C30.0273 91.031 19.6356 86.7962 3.27977 77.838L3.14962 81.0497C1.81304 75.1445 2.24423 66.9914 1.05138 62.1669L-0.0984611 61.2302-1.16229 63.7365C-3.83546 64.3127-0.242192 59.9917-1.96696 59.9917L-3.92147 64.9319C-1.99525 64.9319-0.744683 37.4798-1.43504 34.6423-5.81939 18.9293-4.64012 24.5465 11.4283 26.6196 25.7006 28.7087 37.9324 37.033 53.1973 37.033 57.9257 37.033 61.0731 35.435 63.2143 33.2598 65.8592 19.3897 68.1589 6.35437 81.9287-2.35893 85.651-4.76436 91.8031-4.21659 94.7207-0.716752 96.1716 1.01162 97.5376 2.73999 98.9172 4.53981 109.438 4.62714 151.508 52.315 150.042 67.4246 150.474 62.988 139.349 84.2184 139.349 78.2984" fill="#FFFFFF" fill-rule="evenodd" transform="matrix(1 0 0 -1 2578 1378)"/><path d="M-3.29859-4.34084-3.29859-4.34084 256.702 68.6594 256.702 68.6594-3.29859-4.34084" fill="#9F9F9E" fill-rule="evenodd" transform="matrix(1 0 0 -1 1613 816)"/><path d="M-3.29859-3.97916-3.29859 710.75 256.702 783.022 256.702 622.224C254.992 621.692 253.153 621.375 251.113 621.375 248.528 621.375 245.626 621.879 242.292 623.045 245.913 624.195 240.699 625.979 236.13 625.979 233.616 625.979 231.288 625.432 230.756 623.951 230.771 623.951 230.771 623.951 230.771 623.951 230.929 623.951 232.883 620.067 230.024 618.355L228.775 618.757C229.118 619.721 228.73 621.821 226.676 621.821 226.59 621.821 226.504 621.821 226.403 621.807L228.946 623.045C228.932 623.073 228.875 623.088 228.76 623.088 228.07 623.088 225.642 622.656 222.754 622.239 219.867 621.821 216.534 621.39 214.063 621.39 212.541 621.39 211.348 621.563 210.802 621.98 210.845 623.62 217.87 622.181 216.649 624.511 215.026 627.432 210.084 628.05 204.94 628.05 203.016 628.05 201.061 627.964 199.237 627.878 197.427 627.792 195.746 627.706 194.352 627.706 193.376 627.706 192.542 627.749 191.924 627.863L192.686 628.194 194.841 630.28C194.755 630.725 194.424 630.899 193.95 630.899 192.973 630.899 191.378 630.151 189.898 629.402 188.405 628.655 187.055 627.892 186.551 627.892 186.422 627.892 186.35 627.949 186.35 628.065L187.27 631.963 185.805 632.552C185.805 632.552 185.79 632.552 185.776 632.552L185.805 632.552C185.934 632.337 182.012 629.115 180.345 629.115 180.03 629.115 179.8 629.23 179.685 629.503L180.877 630.28C179.914 629.819 177.3 629.632 173.478 629.632 166.453 629.632 155.333 630.251 142.849 630.856 130.365 631.459 116.516 632.078 104.032 632.078 82.4545 632.078 64.9412 630.251 65.6448 623.476 65.7455 622.397 67.7432 618.427 69.9117 618.427 70.3574 618.427 70.8167 618.599 71.2771 619.002 71.2771 616.052 66.9389 615.204 64.1517 615.204 63.3474 615.204 62.6573 615.276 62.2546 615.377L64.439 617.233C64.4673 617.247 64.482 617.261 64.482 617.276L64.439 617.233C63.3904 616.758 45.963 614.974 45.9201 613.046L49.1813 612.069 45.3171 609.465C45.4461 608.501 47.4574 608.141 50.101 608.141 53.6778 608.141 58.4051 608.803 61.206 609.536 50.7763 605.25 23.0211 599.352 27.6466 589.714 27.9339 589.196 28.3649 588.98 28.9249 588.98 31.4542 588.98 36.2517 593.469 37.4587 593.512L27.417 585.398C27.3876 585.297 27.6749 585.24 28.1636 585.24 30.8784 585.24 40.074 586.52 41.3523 587.11 39.7143 585.6 39.729 585.139 40.4903 585.139 41.1509 585.139 42.3862 585.499 43.5649 585.858 40.8636 584.276 29.3706 580.003 18.5811 576.033L18.6106 576.033 20.9951 573.847C33.4508 577.515 46.8827 581.6 49.8713 582.607 49.3114 582.161 42.2289 579.716 43.6215 578.047L44.9438 576.997C46.8544 576.997 58.2898 582.535 58.6348 583.629L58.6054 584.75 50.0727 582.693C52.2989 583.96 59.0375 585.297 55.8045 587.614 62.37 589.527 66.6946 593.411 72.2398 594.576 70.2138 593.008 62.7433 589.497 62.1404 587.915 62.1404 587.915 62.1404 587.915 62.1257 587.901 62.1404 587.915 62.1404 587.915 62.1404 587.915 62.844 589.684 76.9376 589.585 83.4737 591.771L83.4737 591.123 87.6117 593.209C87.6117 590.721 88.2723 592.361 88.6456 589.411 92.1659 590.304 94.8955 590.692 97.0063 590.692 110.167 590.692 98.961 575.213 104.047 568.194 104.348 567.762 104.678 567.575 105.023 567.575 106.962 567.575 109.362 573.516 109.922 574.869 109.348 572.308 108.644 553.103 109.98 551.636 109.046 551.924 106.848 553.448 105.426 553.448 104.807 553.448 104.334 553.161 104.189 552.312 102.596 545.364 110.942 544.012 105.741 533.64 97.5527 521.124 80.4285 501.072 89.0619 487.349 93.7315 480.083 107.926 454.521 99.2189 454.521 103.616 454.521 107.911 430.153 113.04 429.735L113.615 429.707C116.473 429.707 103.113 469.036 106.043 469.036 115.339 469.036 107.221 459.815 110.124 455.759 121.415 440.467 126.53 411.898 148.366 402.691 160.693 397.887 179.526 388.105 192.758 388.105 198.117 388.105 200.531 363.362 209.71 363.362 209.839 363.362 211.175 365.778 212.727 365.778 213.302 365.778 213.891 365.462 214.479 364.571 214.479 363.377 213.963 363.247 213.474 363.247 213.403 363.247 213.33 363.247 213.272 363.262 213.216 363.262 213.158 363.262 213.101 363.262 212.899 363.262 212.727 363.233 212.655 363.089L213.603 361.162C215.039 361.162 219.838 364.945 223.157 366.599 216.347 369.692 210.673 375.676 207.613 382.48 199.453 401.612 214.278 391.169 189.812 399.656 193.807 404.676 194.525 411.624 197.384 417.163 200.458 423.161 199.467 425.247 196.982 425.247 192.514 425.247 183.262 418.515 184.21 415.508 185.029 412.992 182.573 411.71 178.952 411.71 172.731 411.71 163.048 415.48 160.448 423.319 164.873 428.959 173.881 464.418 186.667 464.418 189.296 464.418 192.096 462.908 195.042 459.326L196.45 458.621C197.613 460.822 203.604 464.073 204.365 464.908 204.466 465.627 204.796 465.943 205.314 465.943 208.675 465.943 219.58 452.45 220.341 451.472 220.284 451.544 220.255 451.572 220.226 451.572 219.752 451.572 224.766 439.417 225.284 439.417 233.471 439.417 226.706 474.617 242.609 478.056 251.071 479.883 252.349 486.586 255.136 488.672 255.869 489.204 255.797 494.11 256.702 498.094L256.702 378.87C255.466 377.733 254.317 376.812 254.001 376.812 253.944 376.812 253.914 376.855 253.929 376.942L253.053 379.545C253.053 380.337 257.952 380.941 256.343 383.214 255.596 384.264 254.619 384.709 253.498 384.709 245.956 384.709 231.777 364.297 232.911 364.297 230.771 364.297 228.702 364.728 226.633 365.29 227.711 359.09 230.9 345.553 230.368 345.553 219.924 345.553 216.879 317.963 219.177 317.963 219.321 317.963 219.493 318.077 219.694 318.337 217.095 298.412 226.318 288.688 236.79 266.866 239.893 260.379 249.246 255.243 256.702 249.244L256.702 68.3073-3.29859-3.97916M225.469 367.318C224.896 367.318 224.09 367.03 223.157 366.599L226.633 365.29 226.433 366.527C226.346 367.088 226.002 367.318 225.469 367.318M196.45 458.621C196.005 457.758 196.206 457.067 197.6 456.708L196.45 458.621M181.351 630.74 180.877 630.28 181.351 630.74M254.447 369.174C254.432 369.174 255.151 370.181 255.884 371.202 256.17 371.605 256.457 371.994 256.702 372.339L256.702 372.252C256.429 371.864 256.069 371.346 255.582 370.669 254.777 369.576 254.461 369.174 254.447 369.174M256.702 576.106C251.085 577.688 245.281 578.953 242.709 578.953L245.54 585.815 241.287 586.261C239.923 587.283 248.959 594.289 256.702 599.395L256.702 576.106" fill="#A2546E" fill-rule="evenodd" transform="matrix(1 0 0 -1 1613 1530)"/><path d="M0.0956636-3.90333-2.90407-2.6119C-2.09874-2.18627-1.40372-1.90251-0.908804-1.90251-0.449033-1.90251-0.152281-2.13041-0.0771166-2.6834L0.0956636-3.90333" fill="#CFCECD" fill-rule="evenodd" transform="matrix(1 0 0 -1 1840 1161)"/><path d="M191.62-4.06844 190.673-2.14337C190.744-1.99972 190.916-1.97145 191.117-1.97145 191.175-1.97145 191.233-1.97145 191.29-1.97145 191.347-1.98615 191.419-1.98615 191.491-1.98615 191.979-1.98615 192.497-1.85608 192.497-0.663935 191.908 0.226213 191.318 0.54178 190.744 0.54178 189.193 0.54178 187.858-1.87078 187.729-1.87078 178.554-1.87078 176.141 22.8362 170.785 22.8362 157.56 22.8362 138.736 32.6041 126.415 37.4009 104.59 46.5954 99.478 75.1231 88.1919 90.3925 85.2919 94.4428 93.4042 103.651 84.1137 103.651 81.1843 103.651 94.5382 64.378 91.6811 64.378L91.1067 64.4063C85.9804 64.8236 81.6874 89.1574 77.2937 89.1574 85.9951 89.1574 71.8079 114.682 67.1418 121.937 58.5116 135.641 75.6283 155.664 83.813 168.161 89.0105 178.518 80.6676 179.869 82.2618 186.807 82.4053 187.654 82.8791 187.941 83.4964 187.941 84.9176 187.941 87.1156 186.419 88.0484 186.132 86.7131 187.596 87.4163 206.773 87.9907 209.331 87.431 207.98 85.033 202.048 83.095 202.048 82.7502 202.048 82.4201 202.234 82.1182 202.665 77.0348 209.675 88.2349 225.132 75.0822 225.132 72.9713 225.132 70.2431 224.744 66.7245 223.853 66.3514 226.798 65.6911 225.16 65.6911 227.645L61.5564 225.562 61.5564 226.209C55.0225 224.026 40.9358 224.125 40.2326 222.358 40.8363 223.939 48.3031 227.444 50.3269 229.01 44.7845 227.846 40.4621 223.968 33.8999 222.058 37.1313 219.745 30.3972 218.409 28.171 217.144L36.7005 219.198 36.7287 218.078C36.3839 216.987 24.9543 211.456 23.0446 211.456L21.7241 212.505C20.3311 214.171 27.41 216.613 27.9697 217.058 24.9837 216.053 11.5574 211.973-0.892073 208.311L-3.27546 210.494-3.30372 210.494C7.47916 214.458 18.9664 218.724 21.6664 220.304 20.4894 219.946 19.2547 219.586 18.5933 219.586 17.8324 219.586 17.8188 220.047 19.4549 221.554 18.1773 220.965 8.98743 219.687 6.2739 219.687 5.78547 219.687 5.49829 219.745 5.52655 219.845L15.5644 227.947C14.358 227.904 9.5618 223.422 7.03482 223.422 6.47403 223.422 6.04326 223.638 5.75607 224.155 1.1329 233.779 28.8742 239.668 39.2998 243.948 36.4992 243.216 31.7754 242.556 28.2003 242.556 25.5581 242.556 23.5478 242.914 23.4178 243.877L27.2811 246.477 24.0215 247.453C24.0645 249.378 41.4819 251.16 42.53 251.634L40.3479 249.781C40.7493 249.68 41.439 249.608 42.2429 249.608 45.0288 249.608 49.3647 250.455 49.3647 253.4 48.9057 252.998 48.4455 252.826 48.0012 252.826 45.8326 252.826 43.8371 256.79 43.7364 257.868 43.032 264.634 60.5366 266.458 82.1035 266.458 94.5812 266.458 108.424 265.84 120.901 265.237 133.38 264.634 144.494 264.016 151.516 264.016 155.335 264.016 157.948 264.202 158.91 264.663L157.718 263.887C157.834 263.614 158.063 263.499 158.379 263.499 160.044 263.499 163.965 266.717 163.835 266.931L165.3 266.343 164.381 262.45C164.381 262.335 164.452 262.278 164.582 262.278 165.084 262.278 166.434 263.039 167.928 263.786 169.407 264.534 171.001 265.28 171.977 265.28 172.45 265.28 172.781 265.107 172.868 264.663L170.714 262.579 169.953 262.249C170.57 262.135 171.402 262.092 172.379 262.092 173.772 262.092 175.452 262.178 177.261 262.264 179.085 262.349 181.038 262.435 182.962 262.435 188.102 262.435 193.042 261.818 194.664 258.902 195.885 256.575 188.863 258.012 188.82 256.374 189.366 255.958 190.558 255.785 192.079 255.785 194.55 255.785 197.881 256.216 200.767 256.633 203.653 257.049 206.08 257.48 206.769 257.48 206.884 257.48 206.942 257.466 206.955 257.437L204.415 256.201C204.515 256.216 204.6 256.216 204.687 256.216 206.74 256.216 207.128 254.119 206.783 253.156L208.033 252.755C210.89 254.464 208.937 258.342 208.779 258.342 208.779 258.342 208.779 258.342 208.765 258.342 209.296 259.822 211.622 260.368 214.135 260.368 218.701 260.368 223.914 258.586 220.296 257.437 223.626 256.273 226.527 255.77 229.111 255.77 231.151 255.77 232.988 256.087 234.698 256.618L234.698 256.618 234.698 233.822 234.698 233.822C226.957 228.723 217.926 221.727 219.29 220.707L223.541 220.261 220.712 213.409C223.282 213.409 229.083 212.146 234.698 210.566L234.698 210.566 234.698 132.667 234.698 132.667C233.793 128.688 233.864 123.789 233.132 123.258 230.347 121.176 229.068 114.482 220.611 112.658 204.715 109.224 211.479 74.0746 203.294 74.0746 202.777 74.0746 197.765 86.2121 198.239 86.2121 198.269 86.2121 198.297 86.1838 198.354 86.1114 197.594 87.0886 186.695 100.563 183.335 100.563 182.818 100.563 182.488 100.246 182.388 99.5281 181.627 98.6945 175.639 95.4483 174.475 93.2507L173.068 93.9542C170.125 97.5318 167.324 99.0395 164.697 99.0395 151.917 99.0395 142.914 63.6315 138.492 57.9999 141.091 50.1718 150.768 46.4076 156.987 46.4076 160.605 46.4076 163.06 47.6868 162.242 50.2001 161.293 53.2019 170.541 59.925 175.007 59.925 177.491 59.925 178.481 57.8427 175.409 51.8526 172.551 46.3217 171.833 39.3837 167.842 34.3708 192.295 25.8957 177.476 36.3242 185.633 17.2193 188.691 10.425 194.363 4.44961 201.169 1.36067 197.852-0.290684 193.056-4.06844 191.62-4.06844M181.124 13.8013C181.11 13.8013 180.549 13.4133 179.975 13.0106 179.415 12.6227 178.855 12.2347 178.855 12.2347 178.869 12.2347 179.357 12.565 180.765 13.5422 181.023 13.7289 181.124 13.8013 181.124 13.8013M198.384 86.0831 198.384 86.0831 198.384 86.0831M174.059 97.7467C174.045 97.7467 173.873 97.5453 173.37 96.9425 173.327 96.8995 173.312 96.8712 173.312 96.8712 173.327 96.8712 173.513 97.0861 173.7 97.3157 173.886 97.5171 174.059 97.7467 174.059 97.7467M85.2772 211.859C85.2342 211.859 84.6169 211.111 84.2291 210.437L84.3727 210.652C85.0759 211.542 85.3054 211.859 85.2772 211.859M54.8359 229.8C54.7782 229.8 54.0603 229.671 53.357 229.541 52.6538 229.397 51.9776 229.268 52.007 229.268 52.0353 229.268 52.725 229.397 54.6776 229.757 54.8076 229.8 54.8495 229.8 54.8359 229.8M48.5032 250.671 49.021 250.628 48.5032 250.671M40.2179 222.345C40.2326 222.358 40.2326 222.358 40.2326 222.358 40.2326 222.358 40.2326 222.358 40.2179 222.345M42.53 251.634 42.573 251.677C42.573 251.662 42.5594 251.648 42.53 251.634M163.835 266.931 163.807 266.931C163.821 266.931 163.835 266.931 163.835 266.931" fill="#CFCECD" fill-rule="evenodd" transform="matrix(1 0 0 -1 1635 1165)"/><path d="M-4.47883-4.61255C-4.47883-4.61255-4.46066-4.58025-4.4031-4.53116-3.72908-3.84121-3.49885-3.61252-3.47916-3.61252-3.47916-3.61252-3.70939-3.8748-3.95931-4.10349-4.20922-4.36707-4.46066-4.61255-4.47883-4.61255" fill="#CFCECD" fill-rule="evenodd" transform="matrix(1 0 0 -1 1812 1064)"/><path d="M-5.30461-97.0997-6.30428-96.1-5.30461-97.0997" fill="#CFCECD" fill-rule="evenodd" transform="matrix(1 0 0 -1 1687 911)"/><path d="M-3.45401-7.81941C-3.48395-7.81941-2.76895-7.57472-2.02402-7.30449-1.27908-7.06193-0.51858-6.81937-0.4575-6.81937-0.441931-6.81937-0.487441-6.81937-0.62517-6.90023-2.6935-7.57472-3.42406-7.81941-3.45401-7.81941" fill="#CFCECD" fill-rule="evenodd" transform="matrix(1 0 0 -1 1690 932)"/><path d="M-3.12604-2.91179C-2.75682-2.43683-2.16907-1.91176-2.12816-1.91176-2.10018-1.91176-2.31977-2.13372-2.98933-2.76063L-3.12604-2.91179" fill="#CFCECD" fill-rule="evenodd" transform="matrix(1 0 0 -1 1723 950)"/><path d="M-4.42836-5.06375C-4.42836-5.06375-3.68806-4.56807-2.94775-4.07239-2.18801-3.55792-1.44621-3.06224-1.42826-3.06224-1.42826-3.06224-1.56137-3.15473-1.90236-3.39317-3.76433-4.64033-4.40892-5.06375-4.42836-5.06375" fill="#CFCECD" fill-rule="evenodd" transform="matrix(1 0 0 -1 1817 1149)"/><path d="M-1.4589-4.22276C-2.48304-3.84737-2.63101-3.12503-2.30348-2.22269L-1.4589-4.22276" fill="#CFCECD" fill-rule="evenodd" transform="matrix(1 0 0 -1 1813 1070)"/><path d="M-7.05525-9.11524-6.05283-8.11556-7.05525-9.11524" fill="#CFCECD" fill-rule="evenodd" transform="matrix(1 0 0 -1 1797 897)"/><path d="M34.6486-3.90004 34.6486-3.90004C27.2408 2.07701 17.9481 7.19504 14.8651 13.6609 4.45976 35.4085-4.70478 45.0994-2.12086 64.9551-2.32092 64.6966-2.49176 64.5815-2.6345 64.5815-4.91833 64.5815-1.8927 92.0782 8.48457 92.0782 9.01282 92.0782 5.84445 105.569 4.77334 111.747 6.82902 111.188 8.88469 110.758 11.0112 110.758 9.88386 110.758 23.9712 131.1 31.4656 131.1 32.5794 131.1 33.5494 130.656 34.2912 129.61 35.8905 127.345 31.0228 126.743 31.0228 125.954L31.8938 123.359C31.8792 123.273 31.9084 123.23 31.9658 123.23 32.2793 123.23 33.4213 124.148 34.6486 125.28L34.6486 125.28 34.6486 118.771 34.6486 118.771C34.4058 118.427 34.1203 118.041 33.8349 117.639 33.1077 116.621 32.394 115.617 32.4075 115.617 32.4221 115.617 32.7357 116.019 33.5359 117.108 34.0203 117.782 34.3777 118.298 34.6486 118.685L34.6486 118.685 34.6486-3.90004" fill="#CFCECD" fill-rule="evenodd" transform="matrix(1 0 0 -1 1835 1277)"/><path d="M-281.158-4.27233-281.158-4.27233-281.158 141.728-282.241 141.728-281.158 141.728-281.158 141.728-281.158-4.27233" fill="#BAB9B8" fill-rule="evenodd" transform="matrix(1 0 0 -1 2527 889)"/><path d="M-3.72915-4.30309-3.72915-4.30309 323.272 86.697 323.257 86.697-3.72915-4.30309" fill="#9E9D96" fill-rule="evenodd" transform="matrix(1 0 0 -1 2200 834)"/><path d="M-3.72915-3.97285-3.72915 255.385C-3.55573 255.126-3.39704 254.852-3.21115 254.593 6.34749 240.788 6.29081 212.027 14.0347 199.963 16.3675 196.364 19.879 195.27 23.896 195.27 30.1143 195.27 37.5715 197.876 43.8328 197.876 67.3548 197.876 74.4515 245.855 80.094 254.794 78.0503 266.858 101.86 277.15 101.903 297.663 102.09 301.161 89.6095 337.005 103.775 337.005 117.162 337.005 144.44 387.215 143.347 396.515 143.16 398.4 127.641 398.632 117.594 398.632 114.311 398.632 111.619 398.602 110.223 398.602 117.551 404.85 64.8645 462.661 67.9737 479.748 69.0822 477.761 72.2775 470.405 74.999 470.405L76.8409 476.854C77.445 467.914 120.862 406.692 118.659 404.259 132.853 420.18 175.966 420.526 174.857 446.71 174.857 446.654 174.829 446.639 174.771 446.639 173.375 446.624 155.05 463.381 158.879 463.381 153.884 463.381 150.961 453.765 143.592 453.765 138.74 453.765 144.498 463.827 139.187 463.827L138.093 459.681C137.934 460.372 120.401 480.943 129.987 480.943 130.391 480.943 130.838 480.914 131.327 480.827 133.429 480.597 144.527 464.704 151.567 464.704 152.718 464.704 153.754 465.136 154.633 466.116 155.179 466.778 156.187 467.08 157.583 467.08 163.01 467.08 174.181 462.603 185.294 458.126 196.392 453.635 207.448 449.158 212.616 449.158 213.091 449.158 213.523 449.201 213.898 449.288 212.717 447.056 208.557 447.503 208.211 446.755 207.65 445.344 213.393 439.758 217.553 439.758 218.792 439.758 219.9 440.262 220.649 441.515 222.52 426.817 243.666 384.927 251.354 384.927 252.621 384.927 253.528 386.065 253.915 388.655 254.334 392.442 252.03 417.144 258.71 419.735 264.05 421.634 280.187 438.505 281.885 445.646 281.885 444.149 282.922 443.558 284.203 443.558 286.19 443.558 288.781 444.998 289.011 446.71 289.414 445.66 290.12 445.271 290.883 445.271 292.394 445.271 294.121 446.798 294.121 447.834 296.598 438.017 308.632 420.253 315.081 420.253 315.902 420.253 316.635 420.555 317.254 421.174 318.017 422.009 318.752 422.384 319.428 422.384 320.94 422.384 322.206 420.541 323.272 417.647L323.272 86.8167-3.72915-3.97285M-3.72915 292.913-3.72915 303.709C-2.95158 299.981-3.12387 296.411-3.72915 292.913M16.007 482.728C11.6306 486.514 3.36757 490.818-3.72915 493.726L-3.72915 509.531C2.21595 510.524 12.3504 523.84 9.75926 526.201 11.1704 525.482 12.7539 523.725 13.5893 523.653 15.4312 525.74 3.3245 532.635-3.72915 538.639L-3.72915 547.535C-1.29557 546.224 1.13688 543.792 1.13688 543.345 1.13688 541.777 28.8471 513.547 34.4181 513.547 34.7491 513.547 35.0087 513.648 35.1674 513.865L36.9809 516.297C35.5845 517.262 27.0052 526.719 28.7473 526.719 29.7255 526.719 35.5267 528.533 39.4712 528.533 41.5148 528.533 43.07 528.043 43.1992 526.561L40.5219 520.976C40.9107 520.083 41.3425 519.752 41.7449 519.752 42.9691 519.752 44.0776 522.689 44.106 522.818 44.0346 521.264 41.9184 517.507 41.1408 516.858L46.0068 515.807C46.0635 515.146 42.6665 514.095 47.172 512.353L44.8405 508.898C47.0576 510.438 46.9419 510.756 49.0876 511.461L46.9419 509.819 49.5625 506.926 51.3614 510.395C51.3614 508.826 57.379 508.078 63.7129 508.078 70.7235 508.078 78.0934 508.999 78.0934 510.726 81.7205 491.811 71.6733 485.852 57.3643 485.852 53.1319 485.852 48.5254 486.37 43.7897 487.234 42.408 487.492 34.3036 488.327 26.9326 488.327 18.4111 488.327 10.8825 487.205 16.007 482.728M49.5625 506.926 48.4109 506.408 49.5625 506.926M36.9809 516.297 37.1827 516.196 36.9809 516.297M41.1408 516.858 40.8676 516.714 41.1408 516.858M-3.72915 517.578-3.72915 529.786C-1.15162 528.245 0.805904 526.806 0.820639 525.869 1.09381 521.077-1.36811 518.83-3.72915 517.578M-3.72915 583.422-3.72915 589.223C2.79289 593.498 6.39169 602.985 11.9763 608.57 12.4943 609.031 0.848976 617.625 9.12565 621.266 13.2436 623.383 20.0955 626.104 24.5716 627.845 19.6636 624.736 13.7616 618.143 18.4258 613.379 21.2607 610.557 27.0335 610.225 33.0364 610.225 33.9579 610.225 34.8942 610.225 35.8146 610.24 36.7361 610.255 37.6576 610.255 38.5791 610.255 40.8824 610.255 43.0847 610.212 45.0422 609.98 40.5797 608.93 20.9592 608.398 20.3981 603.1L21.4058 600.984C22.1686 601.085 27.5515 603.259 28.8335 603.259 29.1214 603.259 29.1928 603.158 28.9774 602.884 28.7178 601.214 29.3798 599.602 28.9196 598.12 22.4565 596.104 8.92502 584.588-3.72915 583.422M64.8351 625.499C59.0192 625.499 53.1183 634.338 49.9219 636.843 50.5838 637.043 51.664 637.131 52.9743 637.131 55.2628 637.131 58.3141 636.886 61.3802 636.641 64.4463 636.396 67.5271 636.137 69.8881 636.137 74.9264 636.137 76.6538 637.275 67.8014 641.939 56.572 648.502 48.0357 647.034 38.4782 648.243L42.5803 650.143C42.3071 651.453 41.0977 651.857 39.6435 651.857 38.4635 651.857 37.1101 651.583 36.0016 651.309 34.8942 651.036 34.0293 650.762 33.7992 650.762 33.7856 650.762 33.7856 650.762 33.7709 650.762L35.3249 652.749C34.7933 653.339 34.2889 653.57 33.7992 653.57 32.2305 653.57 30.8771 651.252 29.8559 650.82L29.4671 651.381C29.4807 651.827 29.2075 652.201 29.1214 652.201 29.0488 652.201 29.0919 651.971 29.4671 651.381 29.4376 650.633 28.7178 649.755 25.6518 649.567L27.8541 653.109C27.8541 653.109 27.8541 653.109 27.8541 653.109L27.8541 653.109C27.5379 652.878 18.9869 651.266 16.4819 651.266 16.2518 651.266 16.0795 651.281 15.9639 651.309L18.2241 649.755C17.3604 649.842 16.6837 649.899 16.1079 649.899 14.0211 649.899 13.4159 649.266 11.2566 647.668 11.4153 649.511 11.0696 650.187 10.5085 650.187 9.22653 650.187 6.76574 646.688 6.14573 645.278 5.42597 646.632 4.90797 647.12 4.52032 647.12 3.74275 647.12 3.41177 645.134 2.74869 644.098 2.3463 645.364 1.61181 645.854 0.690289 645.854-0.532736 645.854-2.10261 645.004-3.72915 644.011L-3.72915 711.251 323.272 802.027 323.272 656.189C322.091 656.276 320.868 656.319 319.601 656.319L320.58 651.727C318.075 652.519 297.677 663.906 289.66 663.906 288.032 663.906 286.923 663.43 286.564 662.336L290.133 659.256C286.622 661.012 282.145 661.444 277.48 661.444 275.177 661.444 272.831 661.328 270.528 661.227 268.239 661.127 265.994 661.012 263.906 661.012 259.703 661.012 256.119 661.444 253.973 663.2 254.736 663.373 258.004 663.373 258.004 664.682 258.004 665.417 257.514 665.69 256.766 665.69 254.319 665.69 249.165 662.768 249.18 662.653L252.232 662.177C251.555 660.177 241.767 661.703 241.681 659.198 241.767 662.71 255.571 664.712 254.923 667.778 254.089 672.543 244.315 673.794 234.828 673.794 225.14 673.794 215.755 672.485 216.56 672.24 215.481 672.442 214.502 672.543 213.595 672.543 211.681 672.543 210.083 672.154 208.499 671.78 206.916 671.391 205.332 671.016 203.432 671.016 202.468 671.016 201.402 671.117 200.222 671.362 198.379 670.988 181.105 667.116 181.047 665.129L187.942 663.833C186.791 662.912 184.186 662.811 181.408 662.811 181.019 662.811 180.615 662.811 180.213 662.811 179.81 662.826 179.421 662.826 179.018 662.826 175.519 662.826 172.354 662.653 172.137 660.868 171.978 658.694 182.717 656.578 182.717 655.757 182.602 655.613 182.242 655.557 181.724 655.557 178.802 655.557 170.755 657.542 169.172 658.335L172.008 658.896C172.324 659.673 172.122 659.976 171.634 659.976 170.813 659.976 169.215 659.184 167.847 658.391 166.48 657.6 165.328 656.808 165.414 656.808 165.414 656.808 165.429 656.808 165.457 656.823 166.076 656.564 166.609 656.506 167.127 656.506 167.372 656.506 167.603 656.506 167.833 656.52 168.063 656.535 168.293 656.549 168.524 656.549 169.056 656.549 169.604 656.477 170.223 656.161 170.093 656.118 169.905 656.103 169.662 656.103 169.258 656.103 168.725 656.146 168.149 656.204 167.588 656.247 166.983 656.305 166.422 656.305 165.457 656.305 164.666 656.146 164.551 655.557L164.551 655.138C162.161 656.204 159.843 657.499 159.066 658.464 158.85 656.708 158.145 653.483 157.583 653.483 157.54 653.483 157.497 653.498 157.454 653.54L157.757 653.009C154.158 657.744 149.45 661.631 145.794 661.631 142.857 661.631 140.612 659.141 140.137 652.62L144.556 649.222C141.705 643.579 152.545 648.848 150.803 642.457 147.852 643.046 124.317 649.87 119.451 649.87 118.875 649.87 118.559 649.784 118.572 649.567L127.871 645.523C127.959 643.796 127.484 643.177 126.749 643.177 125.123 643.177 122.186 646.286 121.408 646.832 120.329 646.243 113.966 643.133 108.942 642.514 107.791 645.134 110.266 643.306 110.266 644.99 110.266 645.091 110.18 645.134 110.008 645.134 108.985 645.134 104.883 643.321 100.277 641.506 95.6702 639.692 90.5458 637.879 87.508 637.879 86.0685 637.879 85.0892 638.282 84.8308 639.275 85.2626 639.952 85.8668 640.081 86.514 640.081 86.7305 640.081 86.947 640.081 87.1623 640.053 87.3924 640.038 87.6089 640.023 87.8096 640.023 88.3865 640.023 88.9045 640.139 89.2355 640.685 86.6013 641.939 80.7854 642.831 79.1872 643.94L84.0532 636.871 83.4049 634.194C81.2456 635.748 79.5907 636.353 78.3099 636.353 74.1205 636.353 74.0196 629.832 73.6025 628.825 73.1707 628.176 72.5654 627.931 71.8456 627.931 70.6804 627.931 69.2114 628.594 67.7436 629.242 66.2893 629.904 64.8214 630.566 63.6551 630.566 62.907 630.566 62.287 630.292 61.8699 629.587L67.34 626.104C66.5194 625.686 65.6704 625.499 64.8351 625.499M158.836 659.141 159.066 658.464 158.836 659.141M163.442 633.876C162.118 633.876 160.333 634.409 157.914 635.734 165.429 635.734 163.947 643.407 159.541 650.417 162.464 647.322 166.854 646.142 171.561 645.494L166.609 644.198C166.177 643.278 168.942 633.876 163.442 633.876M-3.72915 636.295-3.72915 641.751-1.81357 642.384C-1.74216 640.124-2.47665 638.109-3.72915 636.295M178.154 640.197C176.355 640.197 174.455 644.414 172.065 645.451 175.289 645.033 177.852 640.197 178.154 640.197M170.438 653.527 169.013 653.67C169.617 653.641 170.18 653.627 170.611 653.627 170.813 653.627 171 653.627 171.129 653.641 171.273 653.641 171.374 653.641 171.432 653.641 171.576 653.641 171.316 653.627 170.438 653.527" fill="#A2546E" fill-rule="evenodd" transform="matrix(1 0 0 -1 2200 1549)"/><path d="M-15.2025-6.22504-16.2025-5.22333-15.2025-6.22504" fill="#CFCECD" fill-rule="evenodd" transform="matrix(1 0 0 -1 2362 887)"/><path d="M23.896-4.0002C19.879-4.0002 16.3675-2.90759 14.0347 0.687269 6.29081 12.7366 6.34749 41.4671-3.21115 55.2567-3.39704 55.516-3.55573 55.7888-3.72915 56.0481L-3.72915 93.5354C-3.12387 97.0295-2.95158 100.595-3.72915 104.32L-3.72915 294.128C3.36757 291.223 11.6306 286.924 16.007 283.141 10.8825 287.614 18.4111 288.736 26.9326 288.736 34.3036 288.736 42.408 287.901 43.7897 287.643 48.5254 286.779 53.1319 286.262 57.3643 286.262 71.6733 286.262 81.7205 292.215 78.0934 311.11 78.0934 309.384 70.7235 308.464 63.7129 308.464 57.379 308.464 51.3614 309.212 51.3614 310.779L49.5625 307.314 46.9419 310.204 49.0876 311.843C46.9419 311.138 47.0576 310.822 44.8405 309.284L47.172 312.735C42.6665 314.475 46.0635 315.525 46.0068 316.186L41.1408 317.235C41.9184 317.882 44.0346 321.635 44.106 323.189 44.0776 323.058 42.9691 320.126 41.7449 320.126 41.3425 320.126 40.9107 320.457 40.5219 321.348L43.1992 326.927C43.07 328.408 41.5148 328.897 39.4712 328.897 35.5267 328.897 29.7255 327.085 28.7473 327.085 27.0052 327.085 35.5845 317.638 36.9809 316.675L35.1674 314.245C35.0087 314.029 34.7491 313.928 34.4181 313.928 28.8471 313.928 1.13688 342.127 1.13688 343.694 1.13688 344.139-1.29557 346.569-3.72915 347.878L-3.72915 383.726C8.92502 384.89 22.4565 396.394 28.9196 398.407 29.3798 399.888 28.7178 401.499 28.9774 403.167 29.1928 403.44 29.1214 403.54 28.8335 403.54 27.5515 403.54 22.1686 401.369 21.4058 401.268L20.3981 403.383C20.9592 408.674 40.5797 409.206 45.0422 410.256 43.0847 410.486 40.8824 410.529 38.5791 410.529 37.6576 410.529 36.7361 410.529 35.8146 410.515 34.8942 410.5 33.9579 410.5 33.0364 410.5 27.0335 410.5 21.2607 410.831 18.4258 413.649 13.7616 418.409 19.6636 424.994 24.5716 428.101 20.0955 426.361 13.2436 423.643 9.12565 421.529 0.848976 417.891 12.4943 409.307 11.9763 408.846 6.39169 403.267 2.79289 393.792-3.72915 389.521L-3.72915 436.541C-2.47665 438.353-1.74216 440.366-1.81357 442.624L-3.72915 441.991-3.72915 444.249C-2.10261 445.241-0.532736 446.089 0.690289 446.089 1.61181 446.089 2.3463 445.601 2.74869 444.335 3.41177 445.37 3.74275 447.355 4.52032 447.355 4.90797 447.355 5.42597 446.865 6.14573 445.514 6.76574 446.923 9.22653 450.417 10.5085 450.417 11.0696 450.417 11.4153 449.741 11.2566 447.901 13.4159 449.497 14.0211 450.13 16.1079 450.13 16.6837 450.13 17.3604 450.072 18.2241 449.986L15.9639 451.539C16.0795 451.51 16.2518 451.496 16.4819 451.496 18.9869 451.496 27.5379 453.106 27.8541 453.336L25.6518 449.799C28.7178 449.986 29.4376 450.863 29.4671 451.611L29.4671 451.611 29.4671 451.611 29.8559 451.05C30.8771 451.482 32.2305 453.796 33.7992 453.796 34.2889 453.796 34.7933 453.566 35.3249 452.977L33.7709 450.993C33.7856 450.993 33.7856 450.993 33.7992 450.993 34.0293 450.993 34.8942 451.265 36.0016 451.539 37.1101 451.812 38.4635 452.085 39.6435 452.085 41.0977 452.085 42.3071 451.683 42.5803 450.374L38.4782 448.477C48.0357 447.269 56.572 448.735 67.8014 442.178 76.6538 437.519 74.9264 436.383 69.8881 436.383 67.5271 436.383 64.4463 436.641 61.3802 436.886 58.3141 437.13 55.2628 437.375 52.9743 437.375 51.664 437.375 50.5838 437.289 49.9219 437.087 53.1183 434.585 59.0192 425.757 64.8351 425.757 65.6704 425.757 66.5194 425.944 67.34 426.361L61.8699 429.84C62.287 430.545 62.907 430.818 63.6551 430.818 64.8214 430.818 66.2893 430.157 67.7436 429.496 69.2114 428.848 70.6804 428.187 71.8456 428.187 72.5654 428.187 73.1707 428.431 73.6025 429.078 74.0196 430.085 74.1205 436.598 78.3099 436.598 79.5907 436.598 81.2456 435.995 83.4049 434.441L84.0532 437.117 79.1872 444.176C80.7854 443.069 86.6013 442.178 89.2355 440.927 88.9045 440.381 88.3865 440.266 87.8096 440.266 87.6089 440.266 87.3924 440.28 87.1623 440.294 86.947 440.323 86.7305 440.323 86.514 440.323 85.8668 440.323 85.2626 440.193 84.8308 439.517 85.0892 438.525 86.0685 438.123 87.508 438.123 90.5458 438.123 95.6702 439.935 100.277 441.747 104.883 443.558 108.985 445.37 110.008 445.37 110.18 445.37 110.266 445.327 110.266 445.226 110.266 443.545 107.791 445.37 108.942 442.753 113.966 443.371 120.329 446.477 121.408 447.067 122.186 446.52 125.123 443.414 126.749 443.414 127.484 443.414 127.959 444.033 127.871 445.758L118.572 449.799C118.559 450.015 118.875 450.101 119.451 450.101 124.317 450.101 147.852 443.285 150.803 442.695 152.545 449.08 141.705 443.817 144.556 449.454L140.137 452.847C140.612 459.361 142.857 461.85 145.794 461.85 149.45 461.85 154.158 457.967 157.757 453.235L157.454 453.768C157.497 453.725 157.54 453.71 157.583 453.71 158.145 453.71 158.85 456.931 159.066 458.686 159.843 457.723 162.161 456.428 164.551 455.364L164.551 455.781C164.666 456.371 165.457 456.529 166.422 456.529 166.983 456.529 167.588 456.471 168.149 456.428 168.725 456.371 169.258 456.328 169.662 456.328 169.905 456.328 170.093 456.341 170.223 456.385 169.604 456.701 169.056 456.773 168.524 456.773 168.293 456.773 168.063 456.759 167.833 456.744 167.603 456.73 167.372 456.73 167.127 456.73 166.609 456.73 166.076 456.787 165.457 457.047 165.429 457.032 165.414 457.032 165.414 457.032 165.328 457.032 166.48 457.822 167.847 458.614 169.215 459.405 170.813 460.195 171.634 460.195 172.122 460.195 172.324 459.893 172.008 459.117L169.172 458.556C170.755 457.766 178.802 455.781 181.724 455.781 182.242 455.781 182.602 455.838 182.717 455.982 182.717 456.802 171.978 458.916 172.137 461.086 172.354 462.87 175.519 463.043 179.018 463.043 179.421 463.043 179.81 463.043 180.213 463.028 180.615 463.028 181.019 463.028 181.408 463.028 184.186 463.028 186.791 463.129 187.942 464.049L181.047 465.344C181.105 467.327 198.379 471.196 200.222 471.57 201.402 471.325 202.468 471.224 203.432 471.224 205.332 471.224 206.916 471.598 208.499 471.986 210.083 472.36 211.681 472.748 213.595 472.748 214.502 472.748 215.481 472.648 216.56 472.446 215.755 472.691 225.14 474 234.828 474 244.315 474 254.089 472.748 254.923 467.989 255.571 464.926 241.767 462.927 241.681 459.419 241.767 461.921 251.555 460.397 252.232 462.395L249.18 462.87C249.165 462.985 254.319 465.904 256.766 465.904 257.514 465.904 258.004 465.63 258.004 464.898 258.004 463.589 254.736 463.589 253.973 463.417 256.119 461.662 259.703 461.231 263.906 461.231 265.994 461.231 268.239 461.346 270.528 461.446 272.831 461.547 275.177 461.662 277.48 461.662 282.145 461.662 286.622 461.231 290.133 459.476L286.564 462.554C286.923 463.646 288.032 464.121 289.66 464.121 297.677 464.121 318.075 452.746 320.58 451.956L319.601 456.543C320.868 456.543 322.091 456.5 323.272 456.414L323.272 456.414 323.272 456.414 323.272 218.133 323.272 218.133 323.272 218.133C322.206 221.023 320.94 222.863 319.428 222.863 318.752 222.863 318.017 222.49 317.254 221.655 316.635 221.037 315.902 220.736 315.081 220.736 308.632 220.736 296.598 238.479 294.121 248.287 294.121 247.251 292.394 245.727 290.883 245.727 290.12 245.727 289.414 246.115 289.011 247.164 288.781 245.454 286.19 244.016 284.203 244.016 282.922 244.016 281.885 244.604 281.885 246.1 280.187 238.968 264.05 222.116 258.71 220.217 252.03 217.629 254.334 192.954 253.915 189.172 253.528 186.584 252.621 185.448 251.354 185.448 243.666 185.448 222.52 227.293 220.649 241.973 219.9 240.722 218.792 240.219 217.553 240.219 213.393 240.219 207.65 245.799 208.211 247.207 208.557 247.956 212.717 247.51 213.898 249.738 213.523 249.652 213.091 249.609 212.616 249.609 207.448 249.609 196.392 254.081 185.294 258.567 174.181 263.04 163.01 267.512 157.583 267.512 156.187 267.512 155.179 267.21 154.633 266.547 153.754 265.57 152.718 265.139 151.567 265.139 144.527 265.139 133.429 281.014 131.327 281.244 130.838 281.33 130.391 281.359 129.987 281.359 120.401 281.359 137.934 260.81 138.093 260.121L139.187 264.261C144.498 264.261 138.74 254.21 143.592 254.21 150.961 254.21 153.884 263.816 158.879 263.816 155.05 263.816 173.375 247.078 174.771 247.092 174.829 247.092 174.857 247.107 174.857 247.164 175.966 221.009 132.853 220.663 118.659 204.76 120.862 207.19 77.445 268.345 76.8409 277.275L74.999 270.833C72.2775 270.833 69.0822 278.181 67.9737 280.165 64.8645 263.097 117.551 205.349 110.223 199.109 111.619 199.109 114.311 199.137 117.594 199.137 127.641 199.137 143.16 198.907 143.347 197.023 144.44 187.734 117.162 137.58 103.775 137.58 89.6095 137.58 102.09 101.775 101.903 98.2795 101.86 77.7894 78.0503 67.5087 80.094 55.4582 74.4515 46.5282 67.3548-1.39832 43.8328-1.39832 37.5715-1.39832 30.1143-4.0002 23.896-4.0002M16.0648 283.084 16.0648 283.084 16.0648 283.084M159.541 450.647C163.947 443.645 165.429 435.98 157.914 435.98 160.333 434.658 162.118 434.126 163.442 434.126 168.942 434.126 166.177 443.515 166.609 444.436L171.561 445.73C166.854 446.376 162.464 447.556 159.541 450.647M172.065 445.687C174.455 444.651 176.355 440.438 178.154 440.438 177.852 440.438 175.289 445.269 172.065 445.687M169.013 453.897 170.438 453.753C171.316 453.854 171.576 453.868 171.432 453.868 171.374 453.868 171.273 453.868 171.129 453.868 171 453.854 170.813 453.854 170.611 453.854 170.18 453.854 169.617 453.868 169.013 453.897M-3.72915 309.917-3.72915 317.954C-1.36811 319.205 1.09381 321.448 0.820639 326.237 0.805904 327.172-1.15162 328.61-3.72915 330.147L-3.72915 338.991C3.3245 332.995 15.4312 326.108 13.5893 324.022 12.7539 324.094 11.1704 325.848 9.75926 326.567 12.3504 324.209 2.21595 310.908-3.72915 309.917M27.8541 453.336 27.8541 453.336C27.8541 453.336 27.8541 453.336 27.8541 453.336" fill="#CFCECD" fill-rule="evenodd" transform="matrix(1 0 0 -1 2200 1350)"/><path d="M-8.72744-5.12327-8.72744-5.12327C-9.72711-4.40263-9.84222-4.12185-9.64835-4.12185-9.41812-4.12185-8.68806-4.57968-8.72744-5.12327L-8.72744-5.12327" fill="#CFCECD" fill-rule="evenodd" transform="matrix(1 0 0 -1 2233 894)"/><path d="M-13.3483-28.5462-12.3486-27.5386-13.3483-28.5462" fill="#CFCECD" fill-rule="evenodd" transform="matrix(1 0 0 -1 2245 1029)"/><path d="M-3.17235-7.85584-2.17232-6.8558-3.17235-7.85584" fill="#CFCECD" fill-rule="evenodd" transform="matrix(1 0 0 -1 2252 1039)"/><path d="M-17.1582-40.8729-18.1635-39.8619-17.1582-40.8729" fill="#CFCECD" fill-rule="evenodd" transform="matrix(1 0 0 -1 2241 1030)"/><path d="M190.96 273.942 190.96 200.94 190.96 127.932C151.209 127.932 118.98 160.619 118.98 200.94 118.98 241.26 151.209 273.942 190.96 273.942ZM191 400 191 345.424 191 322.522 191 313.733 190.995 313.733C129.677 313.733 79.7938 263.135 79.7938 200.94 79.7938 138.741 129.683 88.1476 190.995 88.1476L191 88.1476 191 77.4799 191 56.4526 191 0C182.37 0 175.377 7.09314 175.377 15.8444L175.377 57.3505C109.296 64.6997 56.6692 118.062 49.4252 185.096L49.4248 185.102 15.6662 185.102C11.3537 185.102 7.44924 186.875 4.62293 189.742L0.0512071 200.94 0 200.94C0 209.692 6.99235 216.785 15.6182 216.785L49.4252 216.785C56.6692 283.818 109.296 337.181 175.377 344.526L175.377 384.155C175.377 392.907 182.37 400 191 400Z" fill="#A2546E" fill-rule="evenodd" transform="matrix(1 0 0 -1 1678 1849)"/><path d="M0.0444704 273.942C39.8054 273.942 72.0428 241.26 72.0428 200.94 72.0428 160.619 39.8054 127.932 0.0444704 127.932L0.0444704 200.94ZM0 400C8.63281 400 15.627 392.907 15.627 384.155L15.627 344.526C81.7505 337.175 134.401 283.782 141.622 216.724L141.622 216.721 142.169 216.777 187.325 216.777C191.639 216.777 195.546 215.004 198.374 212.137L202.949 200.94 203 200.94C203 192.189 196.001 185.096 187.373 185.096L142.217 185.096 141.622 185.157C134.401 118.098 81.7505 64.7056 15.627 57.3545L15.627 15.8444C15.627 7.09314 8.63281 0 0 0L0 56.4526 0 77.4799 0 88.1476C61.3382 88.1476 111.235 138.745 111.235 200.94 111.235 263.135 61.3382 313.733 0 313.733L0 322.522 0 345.424Z" fill="#86465B" fill-rule="evenodd" transform="matrix(1 0 0 -1 1869 1849)"/><path d="M2233.28 746.927 2237.87 746.927C2242.85 709.019 2340 615.44 2340 551.971 2340 474.964 2282.71 422 2200.5 422 2118.3 422 2061 475.18 2061 551.971 2061 615.44 2158.15 709.019 2163.13 746.927L2167.72 746.927 2175.44 772.163C2175.66 772.903 2175.29 773.697 2174.61 773.937 2174.49 773.978 2174.37 774 2174.24 774.004L2159.3 774.004C2158.58 774.004 2158 774.635 2158 775.413L2158 824.802C2158.25 832.902 2164.48 839.256 2171.94 838.993 2171.96 838.992 2171.98 838.991 2172 838.99L2229 838.99C2236.42 839.203 2242.6 832.865 2242.85 824.802L2242.85 775.413C2242.85 774.635 2242.27 774.004 2241.55 774.004L2226.61 774.004C2225.89 773.982 2225.33 773.335 2225.35 772.557 2225.35 772.423 2225.37 772.29 2225.41 772.163ZM2295.16 554.083C2295.16 587.226 2266.41 645.713 2245.34 688.386 2238.86 701.817 2232.88 713.677 2227.9 724.508 2227.67 724.964 2227.23 725.252 2226.76 725.265L2214.15 725.265C2213.46 725.305 2212.88 724.732 2212.84 723.985 2212.83 723.813 2212.85 723.642 2212.91 723.478 2213.95 719.579 2215 715.626 2216.14 711.564 2227.9 667.537 2250.32 585.655 2250.32 552.729 2250.32 490.722 2237.57 447.886 2216.19 434.293 2215.54 433.986 2215.23 433.158 2215.52 432.444 2215.77 431.801 2216.42 431.459 2217.04 431.639 2264.37 440.467 2295.16 487.365 2295.16 554.083ZM2155.66 688.386C2134.69 645.713 2105.84 587.226 2105.84 554.083 2105.84 487.365 2136.63 440.359 2183.96 431.639 2184.65 431.438 2185.36 431.884 2185.55 432.635 2185.71 433.311 2185.4 434.017 2184.81 434.293 2163.43 447.886 2150.68 490.722 2150.68 552.729 2150.68 585.655 2172.95 667.537 2184.91 711.672L2188.04 723.478C2188.27 724.186 2187.92 724.955 2187.27 725.195 2187.12 725.251 2186.96 725.274 2186.8 725.265L2174.04 725.265C2173.57 725.252 2173.13 724.964 2172.9 724.508 2168.12 713.677 2162.14 701.817 2155.56 688.386ZM2185.55 746.927 2216.04 746.927C2216.73 746.907 2217.3 747.496 2217.32 748.244 2217.33 748.423 2217.3 748.601 2217.24 748.768L2209.82 773.03C2209.66 773.627 2209.14 774.029 2208.57 774.004L2192.73 774.004C2192.16 774.029 2191.64 773.627 2191.48 773.03L2184.06 748.768C2183.81 748.071 2184.13 747.287 2184.77 747.018 2184.93 746.953 2185.09 746.922 2185.25 746.927Z" fill="#86465B" fill-rule="evenodd"/><path d="M157.882 59.0494-0.119098 157.385 157.882-0.614678 157.882-0.614678 157.882 59.0494" fill="#86465B" fill-rule="evenodd" transform="matrix(1 0 0 -1 2361 1661)"/><path d="M98.2168-0.614678 157.882-0.614678-0.119098 157.385Z" fill="#A2546E" fill-rule="evenodd" transform="matrix(1 0 0 -1 2361 1661)"/><path d="M-0.226665 97.8664-0.226665 97.8664 157.773-0.473513-0.226665 157.527-0.226665 97.8664" fill="#A2546E" fill-rule="evenodd" transform="matrix(1 0 0 -1 2519 1819)"/><path d="M-0.226665 157.527-0.226665 157.527 157.773-0.473513 59.4367 157.527 59.4367 157.527-0.226665 157.527" fill="#86465B" fill-rule="evenodd" transform="matrix(1 0 0 -1 2519 1819)"/><path d="M-0.226665 59.0494-0.226665-0.614678 157.773 157.385Z" fill="#A2546E" fill-rule="evenodd" transform="matrix(1 0 0 -1 2519 1661)"/><path d="M-0.226665-0.614678 59.4367-0.614678 157.773 157.385 157.773 157.385-0.226665-0.614678" fill="#86465B" fill-rule="evenodd" transform="matrix(1 0 0 -1 2519 1661)"/><path d="M-0.119098-0.473513 157.882 97.8664 157.882 157.527-0.119098-0.473513-0.119098-0.473513" fill="#86465B" fill-rule="evenodd" transform="matrix(1 0 0 -1 2361 1819)"/><path d="M98.2192 157.527-0.119098-0.473513 157.882 157.527 98.2168 157.527 98.2192 157.527" fill="#A2546E" fill-rule="evenodd" transform="matrix(1 0 0 -1 2361 1819)"/><path d="M47.8103 47.1143-0.189804 252.344-0.189804-0.65583Z" fill="#D9C4CB" fill-rule="evenodd" transform="matrix(1 0 0 -1 2519 1661)"/><path d="M-0.157054 47.1143 47.8431-0.65583 47.8431 252.344Z" fill="#B26A82" fill-rule="evenodd" transform="matrix(1 0 0 -1 2471 1661)"/><path d="M-0.157054 205.614-0.157054 205.614 47.8431-0.43174 47.8431 253.569-0.157054 205.614" fill="#D9C4CB" fill-rule="evenodd" transform="matrix(1 0 0 -1 2471 1915)"/><path d="M-0.189804 253.569-0.189804 253.569-0.189804-0.43174 47.8103 205.614 47.8103 205.614-0.189804 253.569" fill="#B26A82" fill-rule="evenodd" transform="matrix(1 0 0 -1 2519 1915)"/><path d="M47.698 47.4336-0.259909-0.566986 253.74-0.566986Z" fill="#B26A82" fill-rule="evenodd" transform="matrix(1 0 0 -1 2519 1661)"/><path d="M-0.259909 47.476 47.698-0.524176 253.74 47.476 253.74 47.476-0.259909 47.476" fill="#D9C4CB" fill-rule="evenodd" transform="matrix(1 0 0 -1 2519 1709)"/><path d="M-0.0862953 47.476 205.147-0.524176 252.914 47.476Z" fill="#B26A82" fill-rule="evenodd" transform="matrix(1 0 0 -1 2266 1709)"/><path d="M205.146 47.4336-0.0862961-0.566986 252.914-0.566986 205.146 47.4336 205.146 47.4336" fill="#D9C4CB" fill-rule="evenodd" transform="matrix(1 0 0 -1 2266 1661)"/></g></svg>