<svg width="2363" height="2362" xmlns="http://www.w3.org/2000/svg" xmlns:xlink="http://www.w3.org/1999/xlink" overflow="hidden"><defs><clipPath id="clip0"><rect x="972" y="16" width="2363" height="2362"/></clipPath></defs><g clip-path="url(#clip0)" transform="translate(-972 -16)"><path d="M1623.89 732.928 1413.32 941.934C1175.93 1179.46 1119.48 1581.65 1301.83 1853.08 1266.27 1894.08 1270.67 1956.15 1311.65 1991.73 1347.44 2022.8 1400.29 2023.87 1437.32 1994.29 1708.3 2196.52 2126.91 2143.99 2371.35 1899.39L2581.93 1688.98C2510.51 1566.12 2370.23 1378.3 2151.75 1160.54 1933.26 942.781 1746.69 802.692 1623.89 732.928Z" fill="#F4B183" fill-rule="evenodd"/><path d="M3019.11 1265.65C3019.11 1262.83 3017.13 1259.72 3016.01 1256.62 2956.69 1115.46 2832.69 917.861 2867.15 752.714L2867.15 752.714C2872.69 719.289 2861.38 685.285 2836.93 661.82L2817.72 640.641C2896.81 581.644 2958.95 547.201 2996.52 547.488L2996.52 378.11C2919.4 378.11 2814.33 432.591 2696.83 520.947L2652.77 476.912C2629.34 452.4 2595.22 441.18 2561.81 446.987L2561.81 446.987C2396.86 481.429 2198.29 357.499 2057.62 298.221L2048.58 295.11C1879.67 232.901 1692.27 319.321 1630.02 488.14 1617.08 523.248 1610.28 560.322 1609.93 597.739 1849.45 705.008 2182.47 1032.47 2231.34 1081.88 2280.2 1131.27 2608.7 1464.1 2715.75 1702.93 2895.61 1701.54 3040.3 1554.71 3038.92 1374.95 3038.63 1337.65 3031.93 1300.68 3019.11 1265.65Z" fill="#F4B183" fill-rule="evenodd"/></g></svg>