<svg width="1091" height="1091" xmlns="http://www.w3.org/2000/svg" xmlns:xlink="http://www.w3.org/1999/xlink" overflow="hidden"><defs><clipPath id="clip0"><rect x="3065" y="482" width="1091" height="1091"/></clipPath></defs><g clip-path="url(#clip0)" transform="translate(-3065 -482)"><path d="M3359.27 846.453 3601.5 875.161 3843.74 846.453C3878.7 842.292 3907 867.255 3907 902.204L3907 1083.19C3907 1118.13 3877.87 1146.43 3843.74 1153.91L3601.5 1208 3359.27 1153.91C3325.14 1146.43 3296 1118.13 3296 1083.19L3296 902.204C3295.59 867.255 3324.31 842.292 3359.27 846.453L3359.27 846.453Z" fill="#333333" fill-rule="evenodd"/><path d="M3602 875.161 3843.84 846.453C3878.74 842.292 3907 867.255 3907 902.204L3907 1083.19C3907 1118.13 3877.91 1146.43 3843.84 1153.91L3602 1208 3602 875.161Z" fill="#292929" fill-rule="evenodd"/><path d="M4018.49 818.419 4090 813 4090 845.512 3601.5 1031 3113 845.512 3113 813 3169.54 823.837Z" fill="#010000" fill-rule="evenodd"/><path d="M3601.5 628 4090 813.208 3601.5 998 3113 813.208Z" fill="#323232" fill-rule="evenodd"/><path d="M4090 798 4063.41 798 3610.09 798C3599.28 798 3581 798 3581 815.105 3581 833.044 3600.94 832.21 3612.16 832.21L4063.41 832.21 4063.41 1060 4090 1060 4090 832.21 4090 798Z" fill="#FF0066" fill-rule="evenodd"/><path d="M4057.6 1068 4077 1072.58 4096.4 1068 4129 1214.09 4106.3 1193.28 4094.33 1222 4077 1144.58 4059.67 1222 4047.7 1193.28 4025 1214.09Z" fill="#FF0066" fill-rule="evenodd"/><path d="M4077 1106C4096.67 1106 4113 1089.67 4113 1070 4113 1050.33 4096.67 1034 4077 1034 4057.33 1034 4041 1050.33 4041 1070 4041 1090.09 4057.33 1106 4077 1106L4077 1106Z" fill="#FF0066" fill-rule="evenodd"/><path d="M3382.35 1313 3915 1313 3915 1331.14C3900.02 1337.39 3889.62 1348.34 3889.62 1361.16L3889.62 1431.84C3889.62 1444.35 3899.6 1455.61 3915 1461.86L3915 1480 3382.35 1480C3351.97 1480 3327 1461.24 3327 1438.41L3327 1355.22C3327 1331.76 3351.97 1313 3382.35 1313L3382.35 1313Z" fill="#FF0066" fill-rule="evenodd"/><path d="M3382.35 1313 3915 1313 3915 1331.03C3900.02 1337.25 3889.62 1348.13 3889.62 1360.87L3889.62 1396 3327 1396 3327 1354.66C3327 1331.65 3351.97 1313 3382.35 1313L3382.35 1313Z" fill="#FF93BF" fill-rule="evenodd"/><path d="M3915 1332C3900.86 1338.21 3891.3 1349.09 3891.3 1360.89L3891.3 1431.11C3891.3 1443.22 3900.86 1453.79 3915 1460L3458.41 1460C3435.13 1460 3416 1445.71 3416 1428.31L3416 1363.69C3416 1346.29 3435.13 1332 3458.41 1332L3915 1332Z" fill="#CCCCCC" fill-rule="evenodd"/><path d="M3891 1361.16 3474 1361.16 3474 1354 3891 1354 3891 1361.16ZM3891 1413.16 3474 1413.16 3474 1406 3891 1406 3891 1413.16ZM3891 1439 3474 1439 3474 1431.84 3891 1431.84 3891 1439ZM3891 1387 3474 1387 3474 1380.15 3891 1380.15 3891 1387Z" fill="#999999" fill-rule="evenodd"/><path d="M3494 1386 3563 1386 3563 1442 3528.5 1413.84 3494 1442Z" fill="#FF0066" fill-rule="evenodd"/></g></svg>