<svg width="2274" height="2273" xmlns="http://www.w3.org/2000/svg" xmlns:xlink="http://www.w3.org/1999/xlink" overflow="hidden"><defs><clipPath id="clip0"><rect x="972" y="76" width="2274" height="2273"/></clipPath></defs><g clip-path="url(#clip0)" transform="translate(-972 -76)"><path d="M1329.38 1649.71C1357.19 1649.71 1378.75 1671.21 1378.75 1698.96L1339.11 1777.36 1318.26 1777.36 1278.62 1698.96C1280.01 1671.21 1301.57 1649.71 1329.38 1649.71ZM1239.69 1014.9 1240.38 1709.37 1328.68 1884.9 1417.69 1708.68 1417.69 1014.9" fill="#502800" fill-rule="evenodd"/><path d="M1377.52 839.896 1279.17 839.896C1257.01 839.896 1239.69 857.28 1239.69 879.537L1239.69 976.896 1415.61 976.896 1415.61 879.537C1417 857.28 1399.68 839.896 1377.52 839.896Z" fill="#502800" fill-rule="evenodd"/><path d="M637 1631 637 1546.26 620.859 1546.77C604.024 1544.69 598.565 1533.93 598.565 1510.38 598.565 1486.03 613.124 1468.98 632.234 1465.63L637 1465.97 637 1288.46 636.312 1288.46 426.005 1288.46 426.005 1331.76 426.005 1375.07 301.979 1375.07C212.463 1375.07 175.795 1371.82 172.559 1362.08 169.324 1354.5 168.245 1084.95 169.324 763.434L172.559 178.866 472.381 175.618 637 174.425 637 0 625.982 0.213374C579.623 0.991411 518.486 1.60048 437.869 2.4121 119.713 5.66 102.457 6.74239 74.4163 28.3928 58.2388 40.3009 34.5122 64.1164 22.6484 80.3548 0 109.583 0 120.408 0 774.259 0 1428.11 0 1438.94 22.6484 1468.16 75.4949 1540.69 84.1226 1542.86 312.764 1546.11 511.207 1549.35 521.991 1550.44 528.463 1571.01 532.776 1582.91 551.111 1602.4 569.445 1614.31 580.769 1621.34 593.711 1626.28 607.344 1629.17Z" fill="#502800" fill-rule="evenodd" transform="matrix(1 0 0 -1 1501 1768)"/><path d="M0 71.5C-1.98609e-14 32.0116 32.0116-1.98609e-14 71.4999-1.98609e-14L240.5 0C279.988-1.98609e-14 312 32.0116 312 71.5L312 71.5C312 110.988 279.988 143 240.5 143L71.4999 143C32.0116 143-9.93043e-15 110.988-9.93043e-15 71.5Z" fill="#502800" fill-rule="evenodd" transform="matrix(1 0 0 -1 1743 708)"/><path d="M0 71.5C-1.98609e-14 32.0116 32.0116-1.98609e-14 71.4999-1.98609e-14L240.5 0C279.988-1.98609e-14 312 32.0116 312 71.5L312 71.5C312 110.988 279.988 143 240.5 143L71.4999 143C32.0116 143-9.93043e-15 110.988-9.93043e-15 71.5Z" fill="#502800" fill-rule="evenodd" transform="matrix(1 0 0 -1 1743 982)"/><path d="M0 71.5C-1.98609e-14 32.0116 32.0116-1.98609e-14 71.4999-1.98609e-14L240.5 0C279.988-1.98609e-14 312 32.0116 312 71.5L312 71.5C312 110.988 279.988 143 240.5 143L71.4999 143C32.0116 143-9.93043e-15 110.988-9.93043e-15 71.5Z" fill="#502800" fill-rule="evenodd" transform="matrix(1 0 0 -1 1743 1250)"/><path d="M0 71.5C-1.98609e-14 32.0116 32.0116-1.98609e-14 71.4999-1.98609e-14L240.5 0C279.988-1.98609e-14 312 32.0116 312 71.5L312 71.5C312 110.988 279.988 143 240.5 143L71.4999 143C32.0116 143-9.93043e-15 110.988-9.93043e-15 71.5Z" fill="#502800" fill-rule="evenodd" transform="matrix(1 0 0 -1 1743 1517)"/><path d="M2134 137 2134 221.744 2150.14 221.233C2166.98 223.314 2172.44 234.072 2172.44 257.617 2172.44 281.974 2157.88 299.024 2138.77 302.373L2134 302.031 2134 479.536 2134.69 479.536 2344.99 479.536 2344.99 436.235 2344.99 392.934 2469.02 392.934C2558.54 392.934 2595.21 396.181 2598.44 405.924 2601.68 413.502 2602.75 683.053 2601.68 1004.57L2598.44 1589.13 2298.62 1592.38 2134 1593.58 2134 1768 2145.02 1767.79C2191.38 1767.01 2252.51 1766.4 2333.13 1765.59 2651.29 1762.34 2668.54 1761.26 2696.58 1739.61 2712.76 1727.7 2736.49 1703.88 2748.35 1687.65 2771 1658.42 2771 1647.59 2771 993.741 2771 339.89 2771 329.065 2748.35 299.836 2695.51 227.306 2686.88 225.141 2458.24 221.893 2259.79 218.646 2249.01 217.563 2242.54 196.995 2238.22 185.087 2219.89 165.602 2201.55 153.694 2190.23 146.657 2177.29 141.718 2163.66 138.826Z" fill="#964B00" fill-rule="evenodd"/><path d="M2510 636.5C2510 675.988 2477.99 708 2438.5 708L2269.5 708C2230.01 708 2198 675.988 2198 636.5L2198 636.5C2198 597.011 2230.01 565 2269.5 565L2438.5 565C2477.99 565 2510 597.011 2510 636.5Z" fill="#964B00" fill-rule="evenodd"/><path d="M2510 910.5C2510 949.988 2477.99 982 2438.5 982L2269.5 982C2230.01 982 2198 949.988 2198 910.5L2198 910.5C2198 871.011 2230.01 839 2269.5 839L2438.5 839C2477.99 839 2510 871.011 2510 910.5Z" fill="#964B00" fill-rule="evenodd"/><path d="M2510 1178.5C2510 1217.99 2477.99 1250 2438.5 1250L2269.5 1250C2230.01 1250 2198 1217.99 2198 1178.5L2198 1178.5C2198 1139.01 2230.01 1107 2269.5 1107L2438.5 1107C2477.99 1107 2510 1139.01 2510 1178.5Z" fill="#964B00" fill-rule="evenodd"/><path d="M2510 1445.5C2510 1484.99 2477.99 1517 2438.5 1517L2269.5 1517C2230.01 1517 2198 1484.99 2198 1445.5L2198 1445.5C2198 1406.01 2230.01 1374 2269.5 1374L2438.5 1374C2477.99 1374 2510 1406.01 2510 1445.5Z" fill="#964B00" fill-rule="evenodd"/><path d="M2116 1209.17C2116 1138.38 2173.38 1081 2244.17 1081L2756.83 1081C2827.62 1081 2885 1138.38 2885 1209.17L2885 1981.83C2885 2052.62 2827.62 2110 2756.83 2110L2244.17 2110C2173.38 2110 2116 2052.62 2116 1981.83Z" fill="#502800" fill-rule="evenodd"/><rect x="2262" y="1216" width="477" height="178" fill="#F8F8F8"/><path d="M2547.92 1493 2752 1493 2752 1671 2547.92 1671ZM2274 1493 2478.08 1493 2478.08 1671 2274 1671Z" fill="#F8F8F8" fill-rule="evenodd"/><path d="M2547.92 1771 2752 1771 2752 1949 2547.92 1949ZM2274 1771 2478.08 1771 2478.08 1949 2274 1949Z" fill="#F8F8F8" fill-rule="evenodd"/><path d="M1761.12 2187.84 1729.93 2187.84 1624.26 2082.26 1720.37 1986.24 1841.13 2106.9 1761.12 2187.84ZM1972.96 1997.3 1831.07 1855.03C1823.02 1846.99 1810.44 1846.99 1802.39 1855.03L1589.04 2068.19C1580.99 2076.23 1580.99 2088.8 1589.04 2096.84L1710.3 2218 1923.65 2218 1923.65 2187.84 1810.94 2187.84 1972.96 2025.96C1981.01 2017.92 1981.01 2004.84 1972.96 1997.3Z" fill="#964B00" fill-rule="evenodd"/></g></svg>