<svg width="1436" height="1436" xmlns="http://www.w3.org/2000/svg" xmlns:xlink="http://www.w3.org/1999/xlink" overflow="hidden"><defs><clipPath id="clip0"><rect x="2491" y="330" width="1436" height="1436"/></clipPath><clipPath id="clip1"><rect x="2581" y="392" width="1255" height="1254"/></clipPath><clipPath id="clip2"><rect x="2581" y="392" width="1255" height="1254"/></clipPath><clipPath id="clip3"><rect x="2581" y="392" width="1255" height="1254"/></clipPath></defs><g clip-path="url(#clip0)" transform="translate(-2491 -330)"><g clip-path="url(#clip1)"><g clip-path="url(#clip2)"><g clip-path="url(#clip3)"><path d="M964.549 26.1042 964.549 26.1042C973.685 60.0396 998.484 88.7542 1031.11 104.417L1031.11 104.417C998.484 120.079 974.991 148.794 964.549 182.729L964.549 182.729C955.412 148.794 930.614 120.079 897.983 104.417L897.983 104.417C930.614 88.7542 955.412 60.0396 964.549 26.1042Z" fill="#70AD47" transform="matrix(1.0008 0 0 1 2582 393)"/><path d="M129.216 313.25 129.216 313.25C138.352 347.185 163.151 375.9 195.781 391.562L195.781 391.562C163.151 407.225 139.657 435.94 129.216 469.875L129.216 469.875C120.079 435.94 95.2802 407.225 62.65 391.562L62.65 391.562C95.2802 375.9 120.079 347.185 129.216 313.25Z" fill="#70AD47" transform="matrix(1.0008 0 0 1 2582 393)"/><path d="M258.431 52.2083 258.431 52.2083C266.262 80.9229 287.146 104.417 313.25 117.469L313.25 117.469C285.841 130.521 266.262 154.015 258.431 182.729L258.431 182.729C250.6 154.015 229.717 130.521 203.613 117.469L203.613 117.469C229.717 104.417 250.6 80.9229 258.431 52.2083Z" fill="#70AD47" transform="matrix(1.0008 0 0 1 2582 393)"/><path d="M1119.87 261.042 1119.87 261.042C1127.7 289.756 1148.58 313.25 1174.69 326.302L1174.69 326.302C1147.28 339.354 1127.7 362.848 1119.87 391.562L1119.87 391.562C1112.04 362.848 1091.15 339.354 1065.05 326.302L1065.05 326.302C1091.15 313.25 1112.04 289.756 1119.87 261.042Z" fill="#70AD47" transform="matrix(1.0008 0 0 1 2582 393)"/><path d="M626.5 515.557C616.058 515.557 606.922 506.421 606.922 495.979L606.922 365.458C606.922 355.017 616.058 345.88 626.5 345.88 636.942 345.88 646.078 355.017 646.078 365.458L646.078 495.979C646.078 506.421 636.942 515.557 626.5 515.557Z" fill="#70AD47" transform="matrix(1.0008 0 0 1 2582 393)"/><path d="M626.5 306.724C616.058 306.724 606.922 297.587 606.922 287.146L606.922 182.729C606.922 172.287 616.058 163.151 626.5 163.151 636.942 163.151 646.078 172.287 646.078 182.729L646.078 287.146C646.078 297.587 636.942 306.724 626.5 306.724Z" fill="#70AD47" transform="matrix(1.0008 0 0 1 2582 393)"/><path d="M626.5 123.995C616.058 123.995 606.922 114.858 606.922 104.417L606.922 52.2083C606.922 41.7667 616.058 32.6302 626.5 32.6302 636.942 32.6302 646.078 41.7667 646.078 52.2083L646.078 104.417C646.078 114.858 636.942 123.995 626.5 123.995Z" fill="#70AD47" transform="matrix(1.0008 0 0 1 2582 393)"/><path d="M770.073 424.193C768.768 424.193 767.462 424.193 766.157 424.193 755.716 421.582 749.19 411.141 751.8 400.699L773.989 298.893C776.599 288.451 787.041 281.925 797.482 284.535 807.924 287.146 814.45 297.587 811.84 308.029L789.651 409.835C787.041 417.667 779.209 424.193 770.073 424.193Z" fill="#70AD47" transform="matrix(1.0008 0 0 1 2582 393)"/><path d="M809.229 245.379C807.924 245.379 806.619 245.379 805.314 245.379 794.872 242.769 788.346 232.327 790.956 221.885L790.956 221.885 807.924 144.878C810.534 134.436 819.671 127.91 831.418 129.216 841.859 131.826 848.385 140.962 847.08 152.709 847.08 152.709 847.08 152.709 847.08 154.015L830.112 231.022C826.197 238.853 818.366 245.379 809.229 245.379Z" fill="#70AD47" transform="matrix(1.0008 0 0 1 2582 393)"/><path d="M900.594 398.089C890.152 398.089 881.016 388.952 881.016 378.51 881.016 374.595 882.321 370.679 884.931 366.764L973.685 237.548C980.211 228.411 991.958 227.106 1001.09 233.632 1008.93 240.158 1011.54 250.6 1006.32 259.736L917.561 388.952C913.646 395.478 907.12 398.089 900.594 398.089Z" fill="#70AD47" transform="matrix(1.0008 0 0 1 2582 393)"/><path d="M482.927 424.193C473.791 424.193 465.959 417.667 463.349 408.53L435.94 280.62C433.329 270.178 441.16 259.736 451.602 257.126 462.044 254.516 472.485 261.042 473.791 271.483L501.2 399.394C503.81 409.835 497.284 420.277 486.843 422.888 485.538 424.193 484.232 424.193 482.927 424.193Z" fill="#70AD47" transform="matrix(1.0008 0 0 1 2582 393)"/><path d="M438.55 220.58C429.414 220.58 421.582 214.054 418.972 204.918L408.53 154.015C405.92 143.573 412.446 133.131 422.888 130.521 433.329 127.91 443.771 134.436 446.381 144.878 446.381 144.878 446.381 144.878 446.381 146.183L456.823 197.086C459.433 207.528 452.907 217.97 442.466 220.58L442.466 220.58C441.16 220.58 439.855 220.58 438.55 220.58L438.55 220.58Z" fill="#70AD47" transform="matrix(1.0008 0 0 1 2582 393)"/><path d="M352.406 398.089C345.88 398.089 339.354 395.478 336.744 390.257L247.99 261.042C242.769 251.905 245.379 240.158 254.516 233.632 263.652 228.411 274.094 229.717 280.62 238.853L369.374 368.069C375.9 377.205 373.29 388.952 364.153 395.478 360.237 396.783 356.322 398.089 352.406 398.089Z" fill="#70AD47" transform="matrix(1.0008 0 0 1 2582 393)"/><path d="M1198.18 1068.97 1159.03 646.078C1157.72 633.026 1145.97 622.584 1132.92 622.584 1127.7 622.584 1119.87 622.584 1113.34 622.584L1106.82 546.882 1083.32 545.577C1063.74 544.272 1044.17 545.577 1025.89 546.882L1019.37 476.401 999.79 472.485C862.743 455.518 725.696 501.2 626.5 597.785 527.304 501.2 390.257 455.518 253.21 472.485L233.632 476.401 227.106 546.882C207.528 545.577 189.255 544.272 169.677 545.577L147.489 546.882 140.962 622.584C133.131 622.584 126.605 622.584 121.384 622.584 108.332 622.584 96.5854 633.026 95.2802 646.078L56.124 1068.97C53.5135 1083.32 63.9552 1096.38 78.3125 1097.68 79.6177 1097.68 80.9229 1097.68 82.2281 1097.68 161.846 1095.07 385.036 1100.29 566.46 1219.06 575.597 1224.29 584.733 1228.2 595.175 1228.2L660.435 1228.2C670.877 1228.2 680.013 1225.59 687.845 1220.37 878.405 1101.6 1095.07 1096.38 1172.08 1098.99 1186.43 1098.99 1198.18 1088.54 1199.49 1074.19 1198.18 1070.27 1198.18 1070.27 1198.18 1068.97ZM652.604 644.773C736.138 558.629 852.301 514.252 971.075 520.778L1006.32 925.393C944.971 937.14 785.735 976.296 652.604 1091.15L652.604 644.773ZM281.925 522.083C400.699 515.557 516.862 559.934 600.396 646.078L600.396 1092.46C467.265 977.601 308.029 938.445 246.684 926.698L281.925 522.083ZM156.625 1005.01 195.781 596.48C203.613 596.48 212.749 597.785 223.191 597.785L190.56 971.075 215.359 973.685C217.97 973.685 438.55 1002.4 592.565 1155.11L592.565 1155.11C421.582 1024.59 231.022 1007.62 156.625 1005.01ZM660.435 1157.72 660.435 1157.72C817.06 1003.71 1036.34 973.685 1037.64 973.685L1062.44 971.075 1029.81 597.785C1040.25 596.48 1049.39 596.48 1057.22 596.48L1096.38 1005.01C1021.98 1007.62 831.418 1025.89 660.435 1157.72Z" fill="#70AD47" transform="matrix(1.0008 0 0 1 2582 393)"/></g></g></g></g></svg>