<svg width="2475" height="2475" xmlns="http://www.w3.org/2000/svg" xmlns:xlink="http://www.w3.org/1999/xlink" overflow="hidden"><defs><clipPath id="clip0"><rect x="1483" y="26" width="2475" height="2475"/></clipPath></defs><g clip-path="url(#clip0)" transform="translate(-1483 -26)"><path d="M159.886 303.029 197.546 187.296 319.389 187.291 220.821 115.766 258.466 0.0288714 159.886 71.5585 61.3087 0.0288714 98.9533 115.766 0.389042 187.291 122.227 187.296Z" stroke="#1F3C88" stroke-width="27.5" stroke-miterlimit="8" fill="#FFCB03" fill-rule="evenodd" transform="matrix(1 0 0 -1 2561 409)"/><path d="M159.704 304.573 197.239 188.468 318.704 188.444 220.441 116.679 257.976 0.572738 159.704 72.323 61.4506 0.572738 98.9765 116.679 0.704101 188.444 122.16 188.468Z" stroke="#1F3C88" stroke-width="27.5" stroke-miterlimit="8" fill="#FFCB03" fill-rule="evenodd" transform="matrix(1 0 0 -1 3435 1918)"/><path d="M159.886 304.754 197.546 188.649 319.389 188.649 220.821 116.872 258.466 0.754264 159.886 72.5173 61.3087 0.754264 98.9533 116.872 0.389042 188.649 122.227 188.649Z" stroke="#1F3C88" stroke-width="27.5" stroke-miterlimit="8" fill="#FFCB03" fill-rule="evenodd" transform="matrix(1 0 0 -1 2561 2420)"/><path d="M159.747 304.391 197.292 188.287 318.753 188.278 220.492 116.505 258.018 0.391207 159.747 72.1654 61.4879 0.391207 99.0125 116.505 0.752462 188.278 122.213 188.287Z" stroke="#1F3C88" stroke-width="27.5" stroke-miterlimit="8" fill="#FFCB03" fill-rule="evenodd" transform="matrix(1 0 0 -1 3569 1415)"/><path d="M160.024 304.391 197.8 188.287 320.026 188.278 221.148 116.505 258.909 0.391207 160.024 72.1654 61.1389 0.391207 98.91 116.505 0.0256234 188.278 122.248 188.287Z" stroke="#1F3C88" stroke-width="27.5" stroke-miterlimit="8" fill="#FFCB03" fill-rule="evenodd" transform="matrix(1 0 0 -1 1554 1415)"/><path d="M160.067 304.077 197.729 187.962 319.571 187.958 220.992 116.192 258.635 0.0768702 160.067 71.8281 61.4969 0.0768702 99.1398 116.192 0.570572 187.958 122.414 187.962Z" stroke="#1F3C88" stroke-width="27.5" stroke-miterlimit="8" fill="#FFCB03" fill-rule="evenodd" transform="matrix(1 0 0 -1 3065 543)"/><path d="M159.711 304.077 197.364 187.962 319.208 187.958 220.638 116.192 258.281 0.0768702 159.711 71.8281 61.1349 0.0768702 98.7785 116.192 0.207513 187.958 122.057 187.962Z" stroke="#1F3C88" stroke-width="27.5" stroke-miterlimit="8" fill="#FFCB03" fill-rule="evenodd" transform="matrix(1 0 0 -1 2058 543)"/><path d="M159.711 303.706 197.364 187.963 319.208 187.963 220.638 116.439 258.281 0.706266 159.711 72.2117 61.1349 0.706266 98.7785 116.439 0.207513 187.963 122.057 187.963Z" stroke="#1F3C88" stroke-width="27.5" stroke-miterlimit="8" fill="#FFCB03" fill-rule="evenodd" transform="matrix(1 0 0 -1 2058 2286)"/><path d="M160.067 303.706 197.729 187.963 319.571 187.963 220.992 116.439 258.635 0.706266 160.067 72.2117 61.4969 0.706266 99.1398 116.439 0.570572 187.963 122.414 187.963Z" stroke="#1F3C88" stroke-width="27.5" stroke-miterlimit="8" fill="#FFCB03" fill-rule="evenodd" transform="matrix(1 0 0 -1 3065 2286)"/><path d="M159.704 302.21 197.239 186.858 318.704 186.853 220.441 115.563 257.976 0.2104 159.704 71.5004 61.4506 0.2104 98.9765 115.563 0.704101 186.853 122.16 186.858Z" stroke="#1F3C88" stroke-width="27.5" stroke-miterlimit="8" fill="#FFCB03" fill-rule="evenodd" transform="matrix(1 0 0 -1 3435 911)"/><path d="M159.572 302.21 197.226 186.858 319.075 186.853 220.499 115.563 258.148 0.2104 159.572 71.5004 60.9962 0.2104 98.6402 115.563 0.0743438 186.853 121.914 186.858Z" stroke="#1F3C88" stroke-width="27.5" stroke-miterlimit="8" fill="#FFCB03" fill-rule="evenodd" transform="matrix(1 0 0 -1 1689 911)"/><path d="M159.572 304.573 197.226 188.468 319.075 188.444 220.499 116.679 258.148 0.572738 159.572 72.323 60.9962 0.572738 98.6402 116.679 0.0743438 188.444 121.914 188.468Z" stroke="#1F3C88" stroke-width="27.5" stroke-miterlimit="8" fill="#FFCB03" fill-rule="evenodd" transform="matrix(1 0 0 -1 1689 1918)"/><path d="M1069.22 563.996C1065.93 563.996 1062.65 563.856 1059.39 563.694 1049.51 704.741 951.897 815.506 832.862 815.506 799.208 815.506 767.286 806.584 738.55 790.694 675.816 882.65 580.929 941.26 474.734 941.26 286.701 941.26 134.162 757.507 132.787 530.212 54.557 486.68 0.212204 391.033 0.212204 279.954 0.212204 127.876 102.032 4.59488 227.622 4.59488 232.218 4.59488 236.765 4.80528 241.291 5.13586 260.756 1.96759 281.102 0.260564 302.064 0.260564L1009.12 0.260564C1028.98 0.260564 1048.28 1.81998 1066.81 4.67247 1067.63 4.6584 1068.42 4.59488 1069.22 4.59488 1196.8 4.59488 1300.21 129.816 1300.21 284.303 1300.21 438.769 1196.8 563.996 1069.22 563.996" stroke="#1F3C88" stroke-width="27.5" stroke-miterlimit="8" fill="#FFFFFF" fill-rule="evenodd" transform="matrix(1 0 0 -1 2071 1689)"/><path d="M297.091 129.914 297.091 67.5611 244.562 67.5611 244.562 129.914C222.305 139.036 206.771 159.33 206.771 182.94 206.771 215.063 235.434 241.099 270.822 241.099 306.21 241.099 334.883 215.063 334.883 182.94 334.883 159.33 319.349 139.036 297.091 129.914M270.822 609.892C360.141 609.892 432.793 541.975 432.793 458.485 432.793 457.941 432.762 457.399 432.762 456.865L108.903 456.865C108.892 457.399 108.851 457.941 108.851 458.485 108.851 541.975 181.512 609.892 270.822 609.892M485.012 456.303C485.023 457.024 485.043 457.745 485.043 458.485 485.043 568.123 388.938 657.328 270.822 657.328 152.707 657.328 56.611 568.123 56.611 458.485 56.611 457.745 56.6417 457.024 56.6522 456.303 24.8023 452.548 0.327329 430.211 0.327329 403.221L0.327329 53.9811C0.327329 24.34 29.7942 0.327329 66.1411 0.327329L475.523 0.327329C511.859 0.327329 541.327 24.34 541.327 53.9811L541.327 403.221C541.327 430.211 516.862 452.548 485.012 456.303" fill="#1D1D1B" fill-rule="evenodd" transform="matrix(1 0 0 -1 2390 1591)"/><path d="M439.526 220.282C439.526 98.7806 341.251 0.281857 220.017 0.281857 98.8008 0.281857 0.52582 98.7806 0.52582 220.282 0.52582 341.784 98.8008 440.282 220.017 440.282 341.251 440.282 439.526 341.784 439.526 220.282" fill="#3C67D4" fill-rule="evenodd" transform="matrix(1 0 0 -1 2941 1248)"/><path d="M65.5871 107.26C66.2274 103.05 66.8752 96.2439 69.7738 93.0031 71.3852 91.0575 75.9025 88.7936 78.4779 88.7936 81.0525 88.7936 83.635 91.3826 85.2464 93.0031L90.7276 98.1898 156.466 163 202.876 208.041 227.684 228.787C231.87 232.027 234.453 233.323 240.25 233.323 250.566 233.323 250.566 231.376 250.566 221.981L250.566 200.917C250.566 191.521 248.954 191.521 241.862 184.389L219.305 159.76 140.993 76.8008 99.1075 36.2942C91.0438 28.836 63.0046 0.322638 52.0504 0.322638L44.6337 0.966109C39.7999 1.29199 26.9096 10.6878 22.716 13.9279 18.53 17.4943 13.3877 22.3555 9.84154 26.5729 7.25899 29.4878 6.93491 34.9914 6.93491 38.5581L2.4252 77.7698C0.813812 91.7085 0.166371 102.725 0.813812 116.656 1.13789 125.408 1.46089 128.975 2.4252 131.89 3.38806 134.805 5.97096 137.401 11.4446 143.882 15.6389 149.068 21.7521 157.162 28.521 159.435 33.031 161.054 40.4477 162.349 44.965 162.349 48.8277 162.349 51.7336 161.379 54.9491 159.108 59.1427 155.549 59.4585 153.93 59.4585 148.743 59.4585 142.261 61.7173 131.246 62.6884 124.757Z" fill="#FFFFFF" fill-rule="evenodd" transform="matrix(1 0 0 -1 3051 1154)"/></g></svg>