<svg width="2363" height="2362" xmlns="http://www.w3.org/2000/svg" xmlns:xlink="http://www.w3.org/1999/xlink" overflow="hidden"><defs><clipPath id="clip0"><rect x="972" y="76" width="2363" height="2362"/></clipPath></defs><g clip-path="url(#clip0)" transform="translate(-972 -76)"><path d="M503.579 68.1906 912.5 68.1906 1321.42 68.1906 1321.42 34.0955 1321.42 0 912.5 0 503.579 0 503.579 34.0955ZM878.423 318.224 912.5 318.224 946.577 318.224 946.577 284.128 946.577 250.033 912.5 250.033 878.423 250.033 878.423 284.128ZM701.981 318.224 761.805 318.224 821.629 318.224 821.629 265.565C821.629 190.555 815.57 195.102 912.5 195.102 1009.43 195.102 1003.37 190.555 1003.37 265.565L1003.37 318.224 1063.19 318.224 1123.02 318.224 1133.62 230.333C1139.3 181.842 1144.98 138.276 1146.11 133.73L1148.01 125.016 912.5 125.016 676.992 125.016 678.885 133.73C680.021 138.276 685.7 181.842 691.38 230.333ZM1631.9 1576.35 1665.22 1575.21 1698.16 1574.07 1699.29 1101.66 1700.05 628.871 1665.97 628.871 1631.9 628.871 1631.9 1102.42ZM139.336 1700.98 193.101 1700.98 193.101 1666.89 193.101 1632.79 155.996 1632.79C109.046 1632.79 89.7353 1624.46 76.862 1598.7 69.2894 1584.3 68.1532 1575.97 68.1532 1539.6 68.1532 1516.11 69.668 1492.62 71.5609 1487.7 78.3767 1469.89 109.803 1466.1 120.026 1482.02 121.54 1484.67 123.812 1506.64 124.948 1530.51L126.841 1574.07 160.161 1575.21 193.101 1576.35 193.101 1102.42 193.101 628.871 159.025 628.871 124.948 628.871 124.948 1012.26 124.948 1395.64 116.618 1404.35C105.259 1416.85 86.3276 1416.1 76.1048 1403.22 68.1532 1392.99 68.1532 1391.85 68.1532 1011.12L68.1532 628.871 34.0768 628.871 0 628.871 0.75719 1130.07 1.89297 1630.9 10.2228 1646.05C32.9406 1688.48 61.3382 1700.6 139.336 1700.98ZM1631.9 1700.98 1684.15 1700.98C1720.5 1700.98 1742.46 1699.09 1756.47 1694.92 1779.56 1688.1 1803.04 1668.78 1814.78 1646.43L1823.11 1630.9 1824.24 1130.07 1825 628.871 1790.92 628.871 1756.85 628.871 1756.85 1105.45 1756.85 1582.03 1748.52 1598.7C1735.26 1624.46 1715.95 1632.79 1669 1632.79L1631.9 1632.79 1631.9 1666.89ZM272.993 1826 912.5 1826 1552.01 1826 1562.61 1816.91 1573.21 1807.82 1574.35 1218.34 1575.1 628.871 912.5 628.871 249.896 628.871 250.654 1218.34 251.79 1807.82 262.391 1816.91Z" fill="#FFFFFF" fill-rule="evenodd" transform="matrix(1 0 0 -1 1248 2266)"/><path d="M967.372 1940C1420.96 1940 1615.57 1938.86 1626.17 1935.83 1636.39 1933.18 1647.75 1925.22 1660.62 1911.96 1681.82 1889.98 1688.64 1871.8 1688.64 1836.56L1688.64 1815.72 1754.14 1814.2C1809.8 1812.69 1822.29 1811.55 1840.09 1804.35 1878.33 1789.2 1912.4 1755.09 1928.3 1716.45L1936.63 1695.61 1937.77 1106.41C1938.53 721.437 1937.39 511.145 1934.74 499.398 1921.49 436.879 1868.86 388 1805.63 378.907 1792.38 377.011 1659.11 375.117 1509.93 375.117 1280.11 375.117 1238.08 374.36 1238.08 369.813 1238.08 366.781 1243.01 323.965 1249.44 274.328 1255.5 224.312 1260.8 183.39 1260.8 183.012 1260.8 182.254 1296.01 181.875 1338.8 181.875 1384.23 181.875 1419.44 180.359 1423.61 178.086 1434.97 172.024 1437.99 150.805 1437.24 89.0426 1436.1 14.3985 1436.1 16.6721 1426.64 7.5783 1418.31 0 1416.03 0 969.265 0 522.496 0 520.225 0 511.895 7.5783 502.429 16.6721 502.429 14.3985 501.294 89.0426 500.536 150.805 503.565 172.024 514.924 178.086 519.089 180.359 554.3 181.875 599.734 181.875 642.518 181.875 677.729 182.254 677.729 183.012 677.729 183.39 683.03 224.312 689.088 274.328 695.525 323.965 700.447 366.781 700.447 369.813 700.447 373.981 674.322 375.117 552.407 375.875L404.368 377.011 397.173 386.105C388.844 396.715 387.708 412.25 395.281 422.859 400.581 430.059 413.454 430.059 1104.43 431.953L1807.9 433.848 1827.21 444.078C1838.19 449.762 1852.2 460.75 1858.64 468.707 1877.57 491.82 1881.73 510.008 1881.73 572.906L1881.73 628.984 969.265 628.984 56.7963 628.984 56.7963 572.906C56.7963 510.008 60.9611 491.82 79.892 468.707 86.3286 460.75 100.337 449.762 111.317 444.078 130.627 433.848 131.005 433.848 224.145 432.711L318.043 431.195 325.615 421.723C329.78 416.418 333.187 409.598 333.187 406.945 333.187 395.957 323.722 382.695 313.121 378.907 299.112 374.36 166.217 373.981 132.899 378.907 70.4267 387.621 18.177 436.121 3.78979 497.125 1.51794 507.355 0.00360898 725.227 0.00360898 1095.04 0.00360898 1728.57-0.753555 1700.53 20.8274 1737.66 32.5646 1757.75 56.7963 1781.62 77.6202 1793.74 105.26 1810.04 132.141 1814.96 193.856 1814.96L249.891 1814.96 249.891 1836.18C249.891 1870.28 256.706 1889.23 276.016 1910.07 286.238 1921.43 299.49 1931.29 308.577 1934.32 321.45 1938.86 425.191 1939.62 967.372 1940ZM329.78 1883.16 319.178 1874.07 308.577 1864.98 307.442 1275.4 306.684 685.82 969.265 685.82 1631.85 685.82 1631.09 1275.4 1629.95 1864.98 1619.35 1874.07 1608.75 1883.16 969.265 1883.16 329.78 1883.16ZM1688.64 1758.12 1688.64 1724.02 1688.64 1689.92 1725.74 1689.92C1772.69 1689.92 1792 1681.59 1805.25 1655.82L1813.58 1639.15 1813.58 1162.48 1813.58 685.82 1847.66 685.82 1881.73 685.82 1880.98 1187.11 1879.84 1688.03 1871.51 1703.56C1859.77 1725.92 1836.3 1745.24 1813.2 1752.06 1799.2 1756.23 1777.24 1758.12 1740.89 1758.12L1688.64 1758.12ZM1688.64 1633.46 1688.64 1159.45 1688.64 685.82 1722.71 685.82 1756.79 685.82 1756.03 1158.7 1754.9 1631.19 1721.96 1632.33 1688.64 1633.46ZM196.128 1758.12C118.132 1757.75 89.7362 1745.62 67.0188 1703.18L58.6896 1688.03 57.5535 1187.11 56.7963 685.82 90.872 685.82 124.948 685.82 124.948 1068.14C124.948 1448.94 124.948 1450.07 132.899 1460.3 143.121 1473.19 162.052 1473.95 173.41 1461.44L181.74 1452.73 181.74 1069.27 181.74 685.82 215.816 685.82 249.891 685.82 249.891 1159.45 249.891 1633.46 216.952 1632.33 183.633 1631.19 181.74 1587.62C180.605 1563.75 178.332 1541.77 176.818 1539.12 166.596 1523.2 135.17 1526.99 128.355 1544.8 126.462 1549.73 124.948 1573.22 124.948 1596.71 124.948 1633.09 126.083 1641.42 133.656 1655.82 146.529 1681.59 165.838 1689.92 212.787 1689.92L249.891 1689.92 249.891 1724.02 249.891 1758.12 196.128 1758.12ZM758.754 375.117 748.153 287.211C742.473 238.711 736.794 195.137 735.658 190.59L733.765 181.875 969.265 181.875 1204.77 181.875 1202.87 190.59C1201.74 195.137 1196.06 238.711 1190.38 287.211L1179.78 375.117 1119.95 375.117 1060.13 375.117 1060.13 322.449C1060.13 247.426 1066.19 251.973 969.265 251.973 872.339 251.973 878.397 247.426 878.397 322.449L878.397 375.117 818.575 375.117 758.754 375.117ZM935.189 375.117 935.189 341.015 935.189 306.914 969.265 306.914 1003.34 306.914 1003.34 341.015 1003.34 375.117 969.265 375.117 935.189 375.117ZM560.358 125.039 560.358 90.9378 560.358 56.8361 969.265 56.8361 1378.17 56.8361 1378.17 90.9378 1378.17 125.039 969.265 125.039 560.358 125.039Z" fill="#B3F200" fill-rule="evenodd" transform="matrix(1 0 0 -1 1192 2323)"/><path d="M2504 896 2460.72 896C2456.03 834.019 2411.61 782.24 2351 768.08L2351 724C2435.68 739.133 2498.94 810.248 2504 896Z" fill="#B3F200" fill-rule="evenodd"/><path d="M2607 874.444C2607 881.665 2607 888.887 2606.03 896L2562.82 896C2563.56 888.839 2563.92 881.644 2563.9 874.444 2563.72 757.208 2468.49 662.232 2351 662.113L2351 619C2492.34 619.119 2606.88 733.415 2607 874.444Z" fill="#B3F200" fill-rule="evenodd"/><path d="M2718 874.457C2718 881.674 2718 888.891 2717.24 896L2674.07 896C2674.07 888.891 2674.93 881.674 2674.93 874.457 2674.93 701.939 2534.78 562.086 2361.9 562.086 2361.87 562.086 2361.83 562.086 2361.79 562.086 2358.12 562.086 2354.56 562.086 2351 562.086L2351 519 2361.79 519C2558.52 519 2718 678.144 2718 874.457Z" fill="#B3F200" fill-rule="evenodd"/><path d="M644.227 765.828C630.772 757.685 623.576 745.784 621.386 728.871L619.821 714.777 475.886 666.546 331.951 618.627 251.848 618.627C162.67 618.627 147.651 616.435 128.251 599.209 122.306 593.885 114.484 584.176 111.355 577.599L105.409 566.011 77.5612 565.071C53.1548 563.818 47.8356 562.565 34.3808 554.422 24.9936 548.472 15.6064 539.076 9.66145 529.68 0.587172 514.647 0.274278 512.767-0.664403 470.8-1.91598 419.436 1.83875 403.463 19.9873 386.237 37.1968 369.638 49.7129 364.627 78.4999 362.434L104.471 360.242 115.11 344.583C121.993 334.247 130.442 326.417 140.455 321.093L155.161 313.263 154.535 231.833 153.597 150.402 142.019 148.523C125.435 146.017 114.797 137.561 107.6 121.589 102.281 109.687 101.655 102.17 102.593 69.2852 103.532 32.9545 104.158 30.136 111.981 19.8004 127.626-0.557218 135.761-2.12313 235.577-0.870472 319.122 0.0692913 324.128 0.382546 332.576 6.64619 352.602 21.3663 355.418 29.8227 355.418 74.2962 355.418 118.143 352.915 127.226 337.896 139.127 333.203 142.886 324.128 147.27 317.557 148.836L305.354 152.281 305.354 231.833 305.354 311.697 315.367 311.697C320.999 311.697 392.028 289.46 473.383 262.526L621.386 213.041 621.386 202.392C621.386 186.42 632.963 168.567 648.608 161.051 660.498 155.413 666.443 154.787 700.863 155.727 743.104 156.666 749.049 158.858 763.443 178.277 769.388 186.106 770.014 192.057 770.953 250.938 771.891 310.131 772.204 314.829 777.524 314.829 780.653 314.829 793.169 319.84 805.372 325.791 875.149 360.869 895.801 448.876 849.491 513.394 835.098 533.438 808.501 552.543 785.659 559.433L771.579 563.505 771.579 648.694C771.579 731.064 771.266 733.882 764.382 747.036 753.117 768.334 743.104 772.092 694.917 772.092 660.185 772.092 652.676 771.152 644.227 765.828ZM724.643 463.596 724.643 202.079 696.482 202.079 668.321 202.079 668.321 463.596 668.321 725.113 696.482 725.113 724.643 725.113 724.643 463.596ZM621.386 463.596C621.386 354.291 620.447 264.718 618.882 264.718 617.63 264.718 558.179 284.136 486.837 307.939L356.983 351.473 356.983 463.909 356.983 576.346 483.708 619.253C553.485 642.743 612.937 662.161 616.066 662.161 621.073 662.474 621.386 650.886 621.386 463.596ZM308.483 465.162 308.483 358.676 237.454 358.676C162.67 358.989 159.854 359.303 152.658 373.396 147.651 382.479 147.338 547.532 152.345 556.302 159.229 569.456 171.432 571.335 242.148 571.648L308.483 571.648 308.483 465.162ZM101.968 463.283 101.968 408.161 81.3159 409.414C63.1677 410.666 59.413 411.919 53.1548 419.436 46.2711 427.266 45.6449 430.711 45.6449 462.03 45.6449 511.202 50.0258 517.778 84.132 518.092L101.968 518.405 101.968 463.283ZM804.121 494.602C839.791 458.585 833.533 399.391 790.979 371.204 783.156 366.193 775.647 361.808 774.082 361.808 772.83 361.808 771.579 396.259 771.579 438.541L771.579 515.273 783.469 509.322C789.727 506.191 799.114 499.3 804.121 494.602ZM258.419 231.833 258.419 151.968 249.345 151.968C244.651 151.968 231.822 151.029 221.183 150.089L202.096 147.897 202.096 229.953 202.096 311.697 230.258 311.697 258.419 311.697 258.419 231.833ZM308.483 73.6697 308.483 45.4822 229.632 46.1087 150.468 47.0485 149.529 74.6095 148.59 101.857 228.693 101.857 308.483 101.857 308.483 73.6697Z" fill="#B3F200" fill-rule="evenodd" transform="matrix(0.866025 -0.5 -0.5 -0.866025 1797.58 1672.07)"/><path d="M7.15505 37.8598C2.77454 33.7886-0.667651 26.5851-0.667651 22.2003-0.667651 17.8155 2.77454 10.612 7.15505 6.54045 13.7262-0.0364501 17.4809-1.28947 34.6904-1.28947 60.0355-1.28947 71.3001 5.9143 71.3001 22.5135 71.3001 40.0522 62.8516 45.6897 36.8807 45.6897 17.4809 45.6897 13.7262 44.7503 7.15505 37.8598Z" fill="#B3F200" fill-rule="evenodd" transform="matrix(0.866025 -0.5 -0.5 -0.866025 1744.58 1193.1)"/><path d="M265.692 531C279.761 530.991 293.892 529.802 307.945 527.362 366.087 517.148 412.192 493.312 453.072 452.45 507.126 398.65 533.926 330.32 530.747 254.956 524.614 114.437 416.507 6.38298 275.921 0.253305 200.519-2.92442 132.156 23.8628 78.3297 77.89-2.97879 159.159-22.9653 278.791 27.6821 382.533 71.7994 473.307 167.213 531.059 265.692 531ZM265.702 498.936C260.591 498.936 255.482 495.872 248.894 489.742 237.312 479.073 225.956 458.416 215.962 430.267L209.149 410.289 264.565 410.289C311.579 410.289 320.209 410.744 320.209 413.469 320.209 419.369 308.627 449.561 300.451 465.225 296.135 473.625 287.96 484.748 282.509 489.742 275.921 495.872 270.812 498.936 265.702 498.936ZM330.371 489.405C329.037 489.292 330.116 487.703 332.16 484.526 337.839 475.899 348.513 448.886 354.19 429.135L359.64 410.294 403.475 410.294C454.577 410.294 452.987 408.932 427.55 433.222 403.475 456.148 372.814 475.217 343.062 485.433 335.453 488.156 331.706 489.519 330.371 489.405ZM200.378 489.519C199.469 489.519 193.79 487.703 187.432 485.433 158.133 474.99 128.607 456.603 104.307 433.449 78.1888 408.932 76.8249 410.294 127.7 410.294L171.534 410.294 179.029 434.811C183.344 448.204 190.157 465.91 194.472 474.537 198.561 482.936 201.286 489.745 200.378 489.519ZM58.4607 373.17 50.9671 357.053C43.6993 341.162 35.5221 311.197 33.4778 293.038L32.3427 283.276 94.5723 283.276 156.803 283.276 156.803 297.577C156.803 310.97 159.755 344.114 162.707 363.863L164.071 372.943 111.152 373.17 58.4607 373.17ZM264.223 373.17C232.655 373.227 201.312 372.489 200.744 370.9 199.155 365.906 193.023 306.658 193.023 295.306L193.023 283.276 266.155 283.276 339.06 283.276 337.469 306.658C335.426 337.985 331.565 367.949 329.066 370.673 327.59 372.261 295.794 373.113 264.223 373.17ZM412.587 372.806C395.734 372.816 381.469 372.603 377.55 372.263 372.099 371.809 367.785 370.9 367.785 369.993 367.785 369.084 369.375 356.145 371.192 341.162 373.009 326.407 374.598 307.111 374.598 298.713L374.598 283.276 436.828 283.276 499.285 283.276 497.923 291.902C494.061 319.37 482.706 356.826 474.757 369.311 473.167 371.809 463.855 372.489 430.015 372.716 424.109 372.773 418.205 372.802 412.587 372.806ZM94.1192 247.064C35.7509 247.064 31.6623 246.837 32.7974 243.205 33.2521 240.935 34.6145 233.443 35.2964 226.634 37.3407 211.651 43.9263 189.178 51.649 171.925L57.3256 159.213 73.4507 157.851C92.757 156.49 160.665 157.17 162.482 158.759 162.936 159.44 162.027 172.606 160.21 188.27 158.393 203.706 156.803 223.229 156.803 231.855L156.803 247.064 94.1192 247.064ZM193.023 247.064 193.023 235.259C193.023 217.554 199.837 162.391 202.108 159.894 203.471 158.531 231.407 157.624 266.837 157.397 321.118 157.17 329.521 157.624 330.429 160.802 332.473 166.931 338.378 223.002 338.378 235.034L338.378 247.064 265.7 247.064 193.023 247.064ZM374.598 247.064 374.598 232.99C374.598 219.37 372.327 193.718 368.92 168.52L367.331 157.17 420.022 157.397 472.712 157.624 477.255 166.477C484.751 180.779 492.699 205.749 496.105 226.406 497.923 236.85 499.514 245.702 499.514 246.157 499.514 246.611 471.35 247.064 437.055 247.064L374.598 247.064ZM420.384 120.057C415.604 120.068 410.061 120.046 403.702 120.046L359.868 120.046 352.373 95.7565C348.284 82.59 341.244 64.6573 337.157 56.0301 332.841 47.6317 329.889 40.5948 330.342 40.5948 333.749 40.5948 355.552 49.2204 368.498 55.5756 390.301 66.4731 408.698 79.4125 427.095 96.891 449.949 118.344 453.849 119.983 420.384 120.057ZM266.835 120.051C219.823 120.051 211.191 119.596 211.191 116.872 211.191 110.971 222.775 80.7786 230.951 65.1146 240.945 46.0458 255.935 31.5179 265.7 31.5179 281.145 31.5179 300.677 58.5307 315.438 100.3L322.253 120.051 266.835 120.051ZM127.927 120.046C86.8189 120.046 84.0943 119.819 86.1372 116.187 92.7244 103.475 134.967 69.6509 159.043 57.6189 169.717 52.171 198.334 40.5948 201.06 40.5948 201.513 40.5948 197.426 50.1278 192.201 61.7053 186.75 73.0557 179.937 90.9887 176.985 101.432L171.761 120.046 127.927 120.046Z" fill="#B3F200" fill-rule="evenodd" transform="matrix(1 0 0 -1 1540 686)"/><path d="M95.7539 88.6379 139.666 88.6379 144.899 70.0004C147.856 59.5445 154.681 41.589 160.142 30.2244 165.376 18.6327 169.47 9.08815 169.017 9.08815 166.286 9.08815 137.618 20.6783 126.925 26.1334 102.807 38.18 60.4889 72.0464 53.8899 84.774 51.8433 88.4107 54.5727 88.6379 95.7539 88.6379ZM234.909 88.6426 290.425 88.6426 283.598 68.8677C268.81 27.0463 249.244 0 233.772 0 223.989 0 208.972 14.5459 198.96 33.6383 190.77 49.3216 179.166 79.5513 179.166 85.4597 179.166 88.1878 187.813 88.6426 234.909 88.6426ZM388.73 88.6489C422.254 88.5745 418.347 86.9341 395.453 65.4539 377.023 47.9538 358.594 34.9986 336.752 24.0873 323.783 17.7241 301.941 9.08815 298.528 9.08815 298.074 9.08815 301.031 16.1334 305.355 24.5422 309.449 33.1802 316.502 51.1352 320.598 64.3181L328.107 88.6379 372.018 88.6379C378.388 88.6379 383.942 88.6595 388.73 88.6489ZM342.863 215.814 405.431 215.814C439.786 215.814 468 215.361 468 214.906 468 214.451 466.406 205.587 464.585 195.131 461.173 174.447 453.211 149.447 445.702 135.127L441.151 126.263 388.368 126.035 335.582 125.808 337.175 137.172C340.587 162.402 342.863 188.085 342.863 201.723ZM160.966 215.814 233.772 215.814 306.578 215.814 306.578 203.769C306.578 191.722 300.663 135.582 298.615 129.444 297.705 126.263 289.288 125.808 234.91 126.035 199.417 126.263 171.432 127.171 170.067 128.536 167.791 131.035 160.966 186.267 160.966 203.995ZM61.8861 215.814 124.682 215.814 124.682 200.585C124.682 191.949 126.274 172.402 128.094 156.947 129.914 141.264 130.825 128.081 130.37 127.399 128.55 125.808 60.5217 125.127 41.1807 126.49L25.0271 127.854 19.3404 140.582C11.6039 157.856 5.00659 180.357 2.95889 195.359 2.27562 202.177 0.911202 209.677 0.455336 211.95-0.681683 215.587 3.41423 215.814 61.8861 215.814ZM380.919 341.712C386.547 341.709 392.461 341.679 398.378 341.622 432.278 341.394 441.607 340.714 443.199 338.213 451.163 325.713 462.538 288.211 466.406 260.707L467.771 252.071 405.203 252.071 342.863 252.071 342.863 267.527C342.863 275.936 341.271 295.256 339.45 310.029 337.63 325.03 336.038 337.986 336.038 338.896 336.038 339.804 340.359 340.714 345.82 341.169 349.745 341.509 364.036 341.723 380.919 341.712ZM232.292 342.077C263.919 342.02 295.771 341.167 297.25 339.577 299.753 336.85 303.622 306.848 305.668 275.482L307.262 252.071 234.227 252.071 160.966 252.071 160.966 264.116C160.966 275.482 167.108 334.804 168.7 339.804 169.269 341.394 200.667 342.135 232.292 342.077ZM26.1641 342.077 78.9493 342.077 131.962 341.85 130.596 332.758C127.639 312.985 124.682 279.8 124.682 266.39L124.682 252.071 62.3398 252.071 0 252.071 1.13702 261.845C3.18524 280.027 11.3765 310.029 18.6572 325.94ZM298.557 458.456C299.894 458.571 303.648 457.206 311.271 454.48 341.076 444.251 371.79 425.159 395.908 402.204 421.391 377.884 422.983 379.247 371.79 379.247L327.879 379.247 322.418 398.112C316.731 417.887 306.038 444.933 300.35 453.571 298.302 456.753 297.22 458.344 298.557 458.456ZM168.333 458.571C169.243 458.797 166.513 451.979 162.418 443.57 158.094 434.932 151.268 417.205 146.947 403.794L139.438 379.247 95.526 379.247C44.5611 379.247 45.9276 377.884 72.0918 402.431 96.4356 425.614 126.014 444.023 155.364 454.48 161.734 456.753 167.423 458.571 168.333 458.571ZM233.773 468C238.893 468 244.011 464.931 250.61 458.794 256.07 453.794 264.261 442.657 268.585 434.247 276.774 418.563 288.377 388.334 288.377 382.426 288.377 379.697 279.732 379.243 232.635 379.243L177.12 379.243 183.945 399.245C193.957 427.429 205.333 448.112 216.936 458.794 223.535 464.931 228.653 468 233.773 468Z" fill="#FFFFFF" fill-rule="evenodd" transform="matrix(1 0 0 -1 1572 655)"/><path d="M8.22529 486.869-0.390776 478.603-0.390776 247.48-0.390776 16.3581 8.22529 8.09146 16.4967-0.51965 385.609-0.51965 754.721-0.51965 762.993 8.09146 771.609 16.3581 771.609 247.48 771.609 478.603 762.993 486.869 754.721 495.48 385.609 495.48 16.4967 495.48 8.22529 486.869ZM643.746 438.991C638.922 434.514 388.366 281.925 385.954 281.925 383.197 281.925 132.986 434.169 127.472 438.991 126.782 439.68 242.927 440.369 385.609 440.369 528.291 440.369 644.436 439.68 643.746 438.991ZM218.113 318.091C306.341 264.014 381.473 219.925 385.609 219.925 390.089 219.925 465.222 264.014 553.45 318.091 641.334 372.169 713.709 416.258 714.743 416.258 715.777 416.258 716.466 334.969 716.466 235.425L716.466 54.5915 385.609 54.5915 54.7521 54.5915 54.7521 235.425C54.7521 334.969 55.786 416.258 56.8199 416.258 57.8538 416.258 130.573 372.169 218.113 318.091Z" fill="#B3F200" fill-rule="evenodd" transform="matrix(1 0 0 -1 2358 1827)"/><path d="M2.06575 360.937C3.09834 360.937 75.7395 316.938 163.184 262.969 251.318 209 326.369 165 330.5 165 334.975 165 410.027 209 498.16 262.969 585.949 316.938 658.246 360.937 659.279 360.937 660.311 360.937 661 279.813 661 180.469L661 0 330.5 0 0 0 0 180.469C0 279.813 1.03258 360.937 2.06575 360.937ZM330.499 385C473.028 385 589.047 384.312 588.358 383.625 583.539 379.156 333.253 226.875 330.844 226.875 328.089 226.875 78.1487 378.812 72.6406 383.625 71.952 384.312 187.971 385 330.499 385Z" fill="#FFFFFF" fill-rule="evenodd" transform="matrix(1 0 0 -1 2413 1772)"/></g></svg>