<svg width="2363" height="2363" xmlns="http://www.w3.org/2000/svg" xmlns:xlink="http://www.w3.org/1999/xlink" overflow="hidden"><defs><clipPath id="clip0"><rect x="972" y="56" width="2363" height="2363"/></clipPath></defs><g clip-path="url(#clip0)" transform="translate(-972 -56)"><path d="M1337.96 642.962 2081.96 642.962 2081.96 1146.96 1337.96 1146.96Z" fill="#FF6699" fill-rule="evenodd"/><path d="M2225.96 642.962 2968.96 642.962 2968.96 1146.96 2225.96 1146.96Z" fill="#FF6699" fill-rule="evenodd"/><path d="M1337.96 1290.96 2081.96 1290.96 2081.96 2033.96 1337.96 2033.96Z" fill="#FF6699" fill-rule="evenodd"/><path d="M2225.96 1290.96 2968.96 1290.96 2968.96 2033.96 2225.96 2033.96Z" fill="#FF6699" fill-rule="evenodd"/><path d="M2632.96 400.961 2369.24 400.961 2513.08 256.96 2412.39 153.76 2225.38 340.959 2225.38 136.962 2081.54 136.962 2081.54 340.959 1894.53 153.76 1793.84 256.96 1937.68 400.961 1673.96 400.961 1673.96 544.962 2632.96 544.962Z" fill="#FF6699" fill-rule="evenodd"/></g></svg>