<svg width="2598" height="2599" xmlns="http://www.w3.org/2000/svg" xmlns:xlink="http://www.w3.org/1999/xlink" overflow="hidden"><defs><clipPath id="clip0"><rect x="858" y="-43" width="2598" height="2599"/></clipPath></defs><g clip-path="url(#clip0)" transform="translate(-858 43)"><path d="M2990.09 1974.26 2990.09 447.327C2990.09 298.554 2609.85 218.287 2252.09 218.287 1894.32 218.287 1514.09 298.554 1514.09 447.327L1514.09 1974.26C1514.09 2123.02 1894.32 2203.29 2252.09 2203.29 2609.85 2203.29 2990.09 2123.02 2990.09 1974.26ZM2252.09 269.186C2645.35 269.186 2939.18 363.347 2939.18 447.327 2939.18 531.31 2645.35 625.466 2252.09 625.466 1858.82 625.466 1564.99 531.31 1564.99 447.327 1564.99 363.347 1858.82 269.186 2252.09 269.186ZM1564.99 535.377C1680.26 627.504 1973 676.366 2252.09 676.366 2531.18 676.366 2823.92 627.504 2939.18 535.377L2939.18 956.3C2939.18 1040.28 2645.35 1134.44 2252.09 1134.44 1858.82 1134.44 1564.99 1040.28 1564.99 956.3ZM1564.99 1044.35C1680.26 1136.48 1973 1185.34 2252.09 1185.34 2531.18 1185.34 2823.92 1136.48 2939.18 1044.35L2939.18 1465.27C2939.18 1549.26 2645.35 1643.41 2252.09 1643.41 1858.82 1643.41 1564.99 1549.26 1564.99 1465.27ZM1564.99 1974.26 1564.99 1553.33C1680.26 1645.45 1973 1694.29 2252.09 1694.29 2531.18 1694.29 2823.92 1645.45 2939.18 1553.33L2939.18 1974.26C2939.18 2058.25 2645.35 2152.38 2252.09 2152.38 1858.82 2152.38 1564.99 2058.25 1564.99 1974.26Z" stroke="#9966FF" stroke-width="57.4263" stroke-miterlimit="8" fill="#9966FF" fill-rule="evenodd"/><path d="M2812.09 880.289C2812.09 908.455 2789.28 931.287 2761.07 931.287 2732.9 931.287 2710.09 908.455 2710.09 880.289 2710.09 852.122 2732.9 829.286 2761.07 829.286 2789.28 829.286 2812.09 852.122 2812.09 880.289Z" stroke="#9966FF" stroke-width="57.4263" stroke-miterlimit="8" fill="#9966FF" fill-rule="evenodd"/><path d="M2812.09 1389.29C2812.09 1417.46 2789.28 1440.29 2761.07 1440.29 2732.9 1440.29 2710.09 1417.46 2710.09 1389.29 2710.09 1361.12 2732.9 1338.29 2761.07 1338.29 2789.28 1338.29 2812.09 1361.12 2812.09 1389.29Z" stroke="#9966FF" stroke-width="57.4263" stroke-miterlimit="8" fill="#9966FF" fill-rule="evenodd"/><path d="M2812.09 1897.77C2812.09 1925.7 2789.28 1948.29 2761.07 1948.29 2732.9 1948.29 2710.09 1925.7 2710.09 1897.77 2710.09 1869.88 2732.9 1847.29 2761.07 1847.29 2789.28 1847.29 2812.09 1869.88 2812.09 1897.77Z" stroke="#9966FF" stroke-width="57.4263" stroke-miterlimit="8" fill="#9966FF" fill-rule="evenodd"/><path d="M1770.64 875.625C1897.16 1013.66 2071.56 1098.72 2258.6 1113.6 2293.33 1116.84 2319.84 1146.02 2319.59 1180.8L2319.59 1350.39C2319.59 1719.05 2084.2 2056.33 1757.4 2265.02 1734.95 2279.38 1706.19 2279.38 1683.73 2265.02 1356.93 2056.33 1121.59 1719.05 1121.59 1350.39L1121.59 1180.8C1121.3 1146.02 1147.8 1116.84 1182.53 1113.6 1369.58 1098.72 1543.98 1013.66 1670.5 875.625 1694.37 848.083 1736.12 845.024 1763.75 868.781 1766.21 870.892 1768.51 873.179 1770.64 875.625Z" fill="#9966FF" fill-rule="evenodd"/><path d="M1760.39 1048.88C1854.7 1152.19 1984.69 1215.85 2124.1 1226.98 2150.02 1229.41 2169.75 1251.25 2169.59 1277.27L2169.59 1404.21C2169.59 1680.12 1994.12 1932.54 1750.55 2088.74 1733.81 2099.47 1712.36 2099.47 1695.59 2088.74 1452.02 1932.54 1276.59 1680.12 1276.59 1404.21L1276.59 1277.27C1276.38 1251.25 1296.12 1229.41 1322.03 1226.98 1461.45 1215.85 1591.43 1152.19 1685.78 1048.88 1703.56 1028.27 1734.65 1025.98 1755.26 1043.76 1757.1 1045.34 1758.81 1047.05 1760.39 1048.88Z" fill="#FFFFFF" fill-rule="evenodd"/><path d="M1741.98 1673.13 1741.98 1712.84 1712.16 1712.84 1712.16 1673.13C1695.06 1667.13 1682.39 1650.65 1682.39 1630.42 1682.39 1605.69 1702.49 1585.46 1727.09 1585.46 1751.65 1585.46 1771.75 1605.69 1771.75 1630.42 1771.75 1649.9 1759.11 1666.38 1741.98 1673.13ZM1615.37 1398.14C1615.37 1335.95 1665.29 1285.74 1727.09 1285.74 1788.89 1285.74 1838.76 1335.95 1838.76 1398.14L1838.76 1481.31 1727.09 1473.07 1615.37 1481.31 1615.37 1398.14ZM1883.46 1484.31 1883.46 1398.14C1883.46 1311.22 1813.45 1240.79 1727.09 1240.79 1640.69 1240.79 1570.71 1311.22 1570.71 1398.14L1570.71 1484.31 1518.59 1488.05 1518.59 1772.8 1727.09 1787.79 1935.59 1772.8 1935.59 1488.05 1883.46 1484.31Z" fill="#9966FF" fill-rule="evenodd"/></g></svg>