<svg width="2363" height="2362" xmlns="http://www.w3.org/2000/svg" xmlns:xlink="http://www.w3.org/1999/xlink" overflow="hidden"><defs><clipPath id="clip0"><rect x="972" y="50" width="2363" height="2362"/></clipPath></defs><g clip-path="url(#clip0)" transform="translate(-972 -50)"><path d="M1347.94 1715.97 1347.94 1745.06C1347.9 1824.86 1372.67 1902.69 1418.82 1967.75 1549.32 2149.93 1731.89 2288.26 1942.48 2364.51 1971.59 2375.15 2003.82 2360.15 2014.45 2331 2016.38 2325.7 2017.5 2320.14 2017.78 2314.51L2022.8 2216.96C2024.47 2184.21 2010.54 2152.61 1985.25 2131.78 1910.25 2070.71 1830.86 2015.27 1747.69 1965.94 1620.44 1890.62 1503.17 1799.56 1398.64 1694.91 1387.29 1683.19 1368.6 1682.91 1356.9 1694.27 1351.05 1699.96 1347.8 1707.81 1347.94 1715.97Z" fill="#660066" fill-rule="evenodd"/><path d="M3036.92 754.379C2998.39 561.842 2888.7 391.435 2734.77 269.468 2439.25 35.419 1960.32 35.419 1665 269.468 1510.86 391.435 1401.22 561.842 1362.65 754.379 1354.52 794.484 1349.6 835.167 1347.93 876.047L1347.93 1429.02C1347.99 1464.16 1360.25 1498.19 1382.64 1525.29 1467.06 1628.04 1601.06 1760.04 1799.85 1878.7 1864.48 1917.3 1922.14 1955.75 1973.47 1993.39 1990.75 2006.08 2015.05 2002.37 2027.75 1985.11 2032.28 1978.94 2034.89 1971.57 2035.25 1963.93L2046.15 1742.68C2049.59 1673.61 2017.36 1607.6 1960.76 1567.81 1836.81 1480.72 1626.22 1326.22 1590.47 1257.97 1559.93 1199.79 1560.78 1113.56 1566.51 1053.23 1568.9 1027.39 1591.79 1008.39 1617.64 1010.78 1623.83 1011.35 1629.83 1013.13 1635.32 1016.04 1728.85 1065.04 1826.1 1106.62 1926.16 1140.36 2006.04 1166.95 2063.8 1236.67 2075.03 1320.05L2092.5 1451.56C2096.47 1483.1 2119.24 1509.05 2150.01 1517.11 2182.67 1525.41 2216.89 1525.41 2249.55 1517.11 2280.32 1509.05 2303.09 1483.1 2307.06 1451.56L2324.54 1319.85C2335.75 1236.57 2393.43 1166.93 2473.2 1140.36 2573.43 1106.64 2670.83 1065.05 2764.5 1015.98 2787.55 1003.86 2816.06 1012.71 2828.19 1035.75 2831.06 1041.18 2832.83 1047.12 2833.41 1053.23 2839.08 1113.46 2839.94 1199.74 2809.4 1257.91 2773.64 1326.18 2563.05 1480.67 2439.1 1567.76 2382.51 1607.55 2350.28 1673.56 2353.72 1742.62L2364.61 1963.88C2365.61 1985.29 2383.78 2001.83 2405.2 2000.84 2412.85 2000.48 2420.22 1997.87 2426.39 1993.34 2477.72 1955.69 2535.38 1917.25 2600.02 1878.65 2798.8 1760 2932.8 1627.99 3017.23 1525.24 3039.61 1498.14 3051.88 1464.11 3051.93 1428.97L3051.93 876.047C3050.16 835.16 3045.14 794.477 3036.92 754.379Z" fill="#660066" fill-rule="evenodd"/><path d="M2651.17 1966.29C2568.01 2015.59 2488.61 2070.98 2413.62 2131.99 2388.33 2152.81 2374.4 2184.38 2376.07 2217.1L2381.09 2314.57C2382.62 2345.53 2408.96 2369.39 2439.92 2367.86 2445.55 2367.59 2451.1 2366.46 2456.39 2364.53 2666.98 2288.35 2849.55 2150.13 2980.04 1968.1 3026.19 1903.09 3050.97 1825.33 3050.93 1745.61L3050.93 1716.53C3050.97 1700.23 3037.79 1686.97 3021.48 1686.93 3013.6 1686.91 3006.03 1690.05 3000.48 1695.64 2895.86 1800.17 2778.5 1891.1 2651.17 1966.29Z" fill="#660066" fill-rule="evenodd"/></g></svg>