<svg width="2363" height="2362" xmlns="http://www.w3.org/2000/svg" xmlns:xlink="http://www.w3.org/1999/xlink" overflow="hidden"><defs><clipPath id="clip0"><rect x="972" y="74" width="2363" height="2362"/></clipPath></defs><g clip-path="url(#clip0)" transform="translate(-972 -74)"><path d="M273.473 413.1C235.298 401.739 197.124 366.845 178.442 327.893L160.573 291.375 89.9099 291.375C46.0491 291.375 15.1849 287.317 9.49924 281.637-4.30877 267.842-4.30877 22.7677 9.49924 8.97225 23.3073-4.82319 625.98-4.82319 639.787 8.97225 653.595 22.7677 653.595 267.842 639.787 281.637 634.102 287.317 603.237 291.375 559.377 291.375L489.525 291.375 469.219 329.515C432.67 400.928 347.385 437.445 273.473 413.1ZM357.133 291.375C366.067 282.449 373.377 267.842 373.377 258.915 373.377 249.989 366.067 235.381 357.133 226.455 348.198 217.528 333.578 210.225 324.644 210.225 315.708 210.225 301.088 217.528 292.154 226.455 283.22 235.381 275.91 249.989 275.91 258.915 275.91 267.842 283.22 282.449 292.154 291.375 301.088 300.302 315.708 307.605 324.644 307.605 333.578 307.605 348.198 300.302 357.133 291.375Z" fill="#B219FF" fill-rule="evenodd" transform="matrix(1 0 0 -1 2012 659)"/><path d="M88.3007 237.984C68.7799 227.426 41.9392 203.872 28.112 185.192 6.96481 154.328 3.71145 142.958 1.27127 72.2959-1.98209-1.6138-1.98209-5.67488 12.6583 0.822585 21.6052 4.07132 58.2067 12.1935 95.6212 19.5033L162.317 32.4982 162.317 69.8596C162.317 90.1643 166.383 111.281 172.077 116.967 177.77 122.652 204.611 126.713 236.332 126.713L290.827 126.713 294.081 191.689 296.521 256.665 210.305 256.665C136.289 256.665 119.209 254.229 88.3007 237.984Z" fill="#B219FF" fill-rule="evenodd" transform="matrix(1 0 0 -1 1654 624)"/><path d="M1070.02 1683.6 1073.27 1617.88 1127.71 1617.88C1159.39 1617.88 1186.21 1613.82 1191.89 1608.14 1205.71 1594.35 1205.71 213.499 1191.89 199.706 1178.08 185.914 185.205 185.914 171.393 199.706 165.705 205.385 161.643 235.404 161.643 279.215L161.643 348.988 95.0179 361.969C57.6428 369.27 21.0807 377.384 13.7679 380.629-0.0447384 386.308-0.857059 376.572-0.857059 253.252-0.857059 129.122 0.768222 116.952 17.8302 83.6887 28.3929 64.217 52.7676 37.444 71.4555 23.6512L106.393-0.688044 681.643-0.688044 1256.89-0.688044 1291.83 23.6512C1310.52 37.444 1334.89 64.217 1345.46 83.6887L1364.14 120.198 1362.52 879.586 1360.08 1638.97 1338.14 1672.24C1299.96 1729.84 1268.27 1742.82 1161.02 1746.07L1067.58 1749.31 1070.02 1683.6Z" fill="#B219FF" fill-rule="evenodd" transform="matrix(1 0 0 -1 1655 2113)"/><path d="M843.444 1244.56C841.004 1197.5 836.937 1188.58 814.162 1165.05L788.134 1139.09 563.637 1135.04 339.954 1130.98 381.437 1090.42C496.939 977.654 559.57 812.159 549.809 648.286 540.862 495.772 488.805 382.196 377.37 270.244 314.739 206.966 291.964 190.742 226.892 159.103 173.208 133.143 126.032 116.918 74.7875 107.183L-0.858002 93.3916-0.858002 46.339-0.858002-0.713567 454.642-0.713567 910.143-0.713567 910.143 648.286 910.143 1297.29 878.42 1297.29 846.698 1297.29 843.444 1244.56ZM845.071 1005.24 845.071 972.787 731.196 972.787 617.321 972.787 617.321 1005.24 617.321 1037.69 731.196 1037.69 845.071 1037.69 845.071 1005.24ZM845.071 875.437 845.071 842.987 731.196 842.987 617.321 842.987 617.321 875.437 617.321 907.887 731.196 907.887 845.071 907.887 845.071 875.437ZM845.071 745.637 845.071 713.187 731.196 713.187 617.321 713.187 617.321 745.637 617.321 778.087 731.196 778.087 845.071 778.087 845.071 745.637ZM835.31 314.051C848.325 301.072 848.325 143.689 835.31 130.709 818.229 113.673 800.334 120.162 768.612 152.613L736.89 185.063 666.938 124.219C628.708 90.9574 592.919 64.1865 588.039 64.1865 583.158 64.1865 550.623 84.4675 516.46 108.806L453.829 153.424 383.063 96.6365 312.298 39.0377 294.404 61.7529C283.83 74.7327 276.509 86.9017 278.136 90.9574 281.389 102.315 442.442 226.437 453.015 226.437 458.709 226.437 491.245 206.155 524.594 181.818L585.599 136.388 637.656 182.629 689.713 228.87 666.125 256.452C638.469 287.28 638.469 286.469 649.857 308.373 657.991 322.164 667.751 323.787 741.77 323.787 796.268 323.787 828.803 320.542 835.31 314.051Z" fill="#CC00FF" fill-rule="evenodd" transform="matrix(1 0 0 -1 1882 1857)"/><path d="M460.895 1462.43C367.489 1434.04 317.131 1403.23 241.594 1327 163.621 1249.15 129.508 1189.95 103.517 1086.16 61.2809 923.159 106.766 741.51 222.102 615.006L265.961 566.35 131.132 333.613C57.2201 206.297-2.0726 96.0103-0.44787 88.7119 2.80095 71.6826 127.071-2.92281 148.189-0.490224 160.372 0.32085 198.547 60.3295 296.014 228.192 368.301 353.075 429.218 458.496 430.03 462.551 431.655 466.605 459.271 463.362 490.947 456.063 523.436 448.765 576.231 443.088 609.532 443.088 841.016 443.088 1056.26 610.951 1113.92 837.2 1130.17 901.264 1130.98 1025.34 1114.74 1087.78 1071.69 1258.07 949.854 1391.07 779.287 1455.13 734.615 1472.16 707.811 1476.21 623.34 1478.65 535.62 1481.08 513.689 1478.65 460.895 1462.43ZM693.191 1407.28C771.164 1393.5 866.195 1343.22 925.487 1284.02 1016.46 1193.2 1057.88 1093.45 1057.88 962.083 1057.88 832.334 1016.46 730.968 927.111 642.577 838.579 553.375 737.051 512.017 607.096 512.017 475.515 512.017 375.612 553.375 284.642 644.199 110.014 818.549 110.826 1106.43 286.267 1282.4 393.481 1388.63 542.117 1434.86 693.191 1407.28Z" fill="#CC66FF" fill-rule="evenodd" transform="matrix(1 0 0 -1 1242 2140)"/><path d="M388.391 0C172.618 10.7895 0 192.053 0 410 0 636.579 183.407 820 409.968 820 512.461 820 608.479 783.316 684 714.263L388.391 418.632 388.391 0Z" fill="#B219FF" fill-rule="evenodd" transform="matrix(-1 0 0 1 2262 765)"/><path d="M0 0 252.381 253C316.016 182.723 352.687 94.0647 357.001 0L0 0Z" fill="#CC66FF" fill-rule="evenodd" transform="matrix(-1 0 0 1 1800 1196)"/><path d="M0 0 0 832 831.003 832C807.855 381.335 449.065 23.1111 0 0Z" fill="#CC00FF" fill-rule="evenodd" transform="matrix(-1 0 0 1 1828 321)"/><path d="M1648.25 575.049C1613.96 648.117 1545.2 794.45 1441.97 1014.05 1426.45 1014.05 1395.41 1014.05 1348.86 1014.05 1383.14 940.982 1451.9 794.648 1555.13 575.049 1570.65 575.049 1601.69 575.049 1648.25 575.049ZM1418.69 750.768C1401.01 750.768 1374.48 750.768 1339.11 750.768 1327.92 750.768 1318.53 746.4 1310.96 737.664 1303.01 729.325 1299.04 719 1299.04 706.69 1299.04 697.159 1299.04 685.048 1299.04 670.356 1299.04 655.664 1299.04 638.39 1299.04 618.534 1299.04 606.621 1303.01 596.296 1310.96 587.56 1318.53 579.22 1327.92 575.051 1339.11 575.051 1356.79 575.051 1383.32 575.051 1418.69 575.051 1429.88 575.051 1439.27 579.22 1446.85 587.56 1454.79 596.296 1458.76 606.621 1458.76 618.534 1458.76 628.858 1458.76 643.948 1458.76 663.803 1458.76 673.333 1458.76 687.629 1458.76 706.69 1458.76 719 1454.79 729.325 1446.85 737.664 1439.27 746.4 1429.88 750.768 1418.69 750.768ZM1378.63 706.69C1387.65 706.69 1401.01 706.69 1418.69 706.69 1418.69 696.762 1418.69 682.07 1418.69 662.612 1418.69 653.081 1418.69 638.389 1418.69 618.534 1410.03 618.534 1396.68 618.534 1378.63 618.534 1369.97 618.534 1356.79 618.534 1339.11 618.534 1339.11 623.299 1339.11 629.454 1339.11 636.999 1339.11 644.146 1339.11 652.684 1339.11 662.612 1339.11 672.54 1339.11 687.232 1339.11 706.69 1347.77 706.69 1360.94 706.69 1378.63 706.69ZM1698.04 882.409C1698.04 901.867 1698.04 931.054 1698.04 969.971 1698.04 982.281 1694.26 992.606 1686.68 1000.95 1678.74 1009.68 1669.35 1014.05 1658.52 1014.05 1640.48 1014.05 1613.77 1014.05 1578.4 1014.05 1567.21 1014.05 1557.82 1009.68 1550.24 1000.95 1542.3 992.606 1538.33 982.281 1538.33 969.971 1538.33 950.513 1538.33 921.326 1538.33 882.409 1538.33 870.099 1542.3 859.774 1550.24 851.435 1557.82 842.699 1567.21 838.331 1578.4 838.331 1596.08 838.331 1622.79 838.331 1658.52 838.331 1669.35 838.331 1678.74 842.699 1686.68 851.435 1694.26 859.774 1698.04 870.099 1698.04 882.409ZM1658.52 882.409C1649.5 882.409 1636.14 882.409 1618.46 882.409 1609.44 882.409 1596.08 882.409 1578.4 882.409 1578.4 891.94 1578.4 906.632 1578.4 926.487 1578.4 936.017 1578.4 950.512 1578.4 969.971 1587.42 969.971 1600.77 969.971 1618.46 969.971 1627.12 969.971 1640.48 969.971 1658.52 969.971 1658.52 960.441 1658.52 945.946 1658.52 926.487 1658.52 916.559 1658.52 901.867 1658.52 882.409Z" fill="#FFFFFF" fill-rule="evenodd"/><path d="M93.9603 386.81 93.9603 360.663 72.3245 356.85C31.8266 350.857-0.349541 313.271-0.349541 271.871-0.349541 230.471 31.8266 192.884 72.3245 186.891L93.9603 183.078 93.9603 140.589C93.9603 100.823 92.8506 97.5545 82.8649 97.5545 69.5504 97.5545 44.0313 120.434 44.0313 132.963 44.0313 138.955 37.9289 141.134 21.8409 141.134 2.97917 141.134-0.349541 139.499-0.349541 130.239-0.349541 99.7334 36.8197 61.6019 72.3245 56.1549L93.9603 52.3414 93.9603 26.1941 93.9603-0.498036 116.151-0.498036 138.341-0.498036 138.341 26.1941 138.341 52.3414 159.977 56.1549C200.474 62.1467 232.651 99.7334 232.651 141.134 232.651 182.534 200.474 220.121 159.977 226.113L138.341 229.926 138.341 272.415C138.341 312.181 139.451 315.45 149.437 315.45 162.751 315.45 188.27 292.571 188.27 280.042 188.27 274.05 194.372 271.871 210.461 271.871 229.322 271.871 232.651 273.505 232.651 282.766 232.651 313.271 195.482 351.402 159.977 356.85L138.341 360.663 138.341 386.81 138.341 413.502 116.151 413.502 93.9603 413.502 93.9603 386.81ZM93.9603 271.871C93.9603 231.56 92.8506 228.292 82.8649 228.292 65.1124 228.292 44.0313 252.26 44.0313 271.871 44.0313 291.481 65.1124 315.45 82.8649 315.45 92.8506 315.45 93.9603 312.181 93.9603 271.871ZM174.401 171.094C183.277 162.923 188.27 151.484 188.27 141.134 188.27 121.523 167.189 97.5545 149.437 97.5545 139.451 97.5545 138.341 100.823 138.341 141.134 138.341 181.444 139.451 184.713 149.437 184.713 156.094 184.713 167.189 178.721 174.401 171.094Z" fill="#FFFFFF" fill-rule="evenodd" transform="matrix(1 0 0 -1 1957 1366)"/></g></svg>