<svg width="2363" height="2362" xmlns="http://www.w3.org/2000/svg" xmlns:xlink="http://www.w3.org/1999/xlink" overflow="hidden"><defs><clipPath id="clip0"><rect x="972" y="50" width="2363" height="2362"/></clipPath></defs><g clip-path="url(#clip0)" transform="translate(-972 -50)"><path d="M1455.79 1466.07 1455.79 2151.52C1455.79 2177.63 1483.81 2198.79 1518.38 2198.79L2770.2 2198.79C2804.77 2198.79 2832.79 2177.63 2832.79 2151.52L2832.79 1466.07C2832.52 1296.45 2650.53 1159 2425.96 1158.79L1862.64 1158.79C1638.05 1159 1456.07 1296.45 1455.79 1466.07ZM1580.97 1466.07C1581.14 1348.63 1707.15 1253.47 1862.64 1253.34L2053.97 1253.34 1897.87 1567.66C1890.39 1582.76 1893.62 1599.71 1906.44 1612.61L2094.22 1801.7C2114.96 1822.59 2154.2 1826.82 2181.84 1811.15 2186.59 1808.47 2190.8 1805.29 2194.36 1801.7L2382.14 1612.61C2394.97 1599.71 2398.19 1582.76 2390.71 1567.66L2234.61 1253.34 2425.96 1253.34C2581.44 1253.47 2707.44 1348.63 2707.61 1466.07L2707.61 2104.25 1580.97 2104.25ZM2144.29 1340.7 2261.4 1576.59 2144.29 1694.54 2027.19 1576.59Z" fill="#FF5050" fill-rule="evenodd"/><path d="M2132.54 751.439C2033.79 751.439 1952.98 670.596 1952.98 571.792 1952.98 472.988 2033.79 392.145 2132.54 392.145 2231.3 392.145 2312.1 472.988 2312.1 571.792 2312.1 670.596 2231.3 751.439 2132.54 751.439ZM2536.55 459.512C2527.57 426.577 2514.1 395.139 2497.65 366.697L2535.06 254.417 2449.76 169.082 2337.54 206.509C2307.61 190.045 2276.19 176.569 2243.27 167.585L2192.39 62.7916 2072.69 62.7916 2020.32 167.585C1987.4 176.569 1955.98 190.045 1927.55 206.509L1815.32 169.082 1730.03 254.417 1767.44 366.697C1750.98 396.637 1737.51 428.075 1728.53 461.009L1623.79 511.911 1623.79 631.672 1728.53 684.072C1737.51 717.006 1750.98 748.444 1767.44 776.887L1730.03 889.167 1815.32 974.501 1927.55 937.075C1957.47 953.539 1988.9 967.015 2021.81 975.998L2074.19 1080.79 2193.89 1080.79 2246.27 975.998C2279.18 967.015 2310.61 953.539 2339.03 937.075L2451.26 974.501 2536.55 889.167 2499.15 776.887C2515.6 746.946 2529.07 715.509 2538.05 682.574L2642.79 630.175 2642.79 510.414 2536.55 459.512Z" fill="#FF5050" fill-rule="evenodd"/></g></svg>