<svg width="2363" height="2362" xmlns="http://www.w3.org/2000/svg" xmlns:xlink="http://www.w3.org/1999/xlink" overflow="hidden"><defs><clipPath id="clip0"><rect x="972" y="-5" width="2363" height="2362"/></clipPath></defs><g clip-path="url(#clip0)" transform="translate(-972 5)"><path d="M1972.11 2145 3102 1871.61 3102 627.56 2279.65 235 1205 470.05 1205 1730.95ZM2261.5 392.634 2799.11 649.255 2363.89 747.038 1993.28 830.307 1493.59 560.577ZM1354.76 1641.27 1354.76 656.155 1907.52 954.538 1907.52 1939.65ZM2952.24 1753.42 2057.28 1969.98 2057.28 969.797 2446.26 882.375 2952.24 768.701Z" fill="#BFBFBF" fill-rule="evenodd"/><path d="M2246 443 2296 443 2296 543.001 2246 543.001Z" fill="#BFBFBF" fill-rule="evenodd"/><path d="M2246 969 2296 969 2296 1069 2246 1069Z" fill="#BFBFBF" fill-rule="evenodd"/><path d="M2246 1144 2296 1144 2296 1244 2246 1244Z" fill="#BFBFBF" fill-rule="evenodd"/><path d="M2246 619 2296 619 2296 719.001 2246 719.001Z" fill="#BFBFBF" fill-rule="evenodd"/><path d="M2246 1319 2296 1319 2296 1419 2246 1419Z" fill="#BFBFBF" fill-rule="evenodd"/><path d="M2610 1650.67 2630.48 1605 2721 1646.33 2700.52 1692Z" fill="#BFBFBF" fill-rule="evenodd"/><path d="M2128 1475.25 2225.39 1454 2236 1502.75 2138.61 1524Z" fill="#BFBFBF" fill-rule="evenodd"/><path d="M1445 1624.25 1542.39 1603 1553 1651.75 1455.61 1673Z" fill="#BFBFBF" fill-rule="evenodd"/><path d="M2451 1578.68 2471.48 1533 2562 1574.32 2541.52 1620Z" fill="#BFBFBF" fill-rule="evenodd"/><path d="M2769 1722.67 2789.66 1677 2881 1718.33 2860.34 1764Z" fill="#BFBFBF" fill-rule="evenodd"/><path d="M2292 1506.68 2312.47 1461 2403 1502.32 2382.53 1548Z" fill="#BFBFBF" fill-rule="evenodd"/><path d="M1616 1587.24 1713.39 1566 1724 1614.76 1626.61 1636Z" fill="#BFBFBF" fill-rule="evenodd"/><path d="M1787 1549.55 1884.39 1528 1895 1577.45 1797.61 1599Z" fill="#BFBFBF" fill-rule="evenodd"/></g></svg>