<svg width="1325" height="1325" xmlns="http://www.w3.org/2000/svg" xmlns:xlink="http://www.w3.org/1999/xlink" overflow="hidden"><defs><clipPath id="clip0"><rect x="2882" y="761" width="1325" height="1325"/></clipPath></defs><g clip-path="url(#clip0)" transform="translate(-2882 -761)"><path d="M3056.68 1039 4039.33 1039C4078.85 1039 4111 1071.14 4111 1110.65L4111 1715.35C4111 1754.86 4078.85 1787 4039.33 1787L3056.68 1787C3017.16 1787 2985.01 1754.86 2985.01 1715.35L2985.01 1110.65C2984.34 1071.14 3016.49 1039 3056.68 1039Z" fill="#BF9000" fill-rule="evenodd"/><path d="M3005.84 1789 3224 1789 3224 1128 2985.03 1128 2985.03 1768.24C2984.36 1779.62 2993.76 1789 3005.84 1789Z" fill="#3A4050" fill-rule="evenodd" fill-opacity="0.301961"/><path d="M4081.28 1789 3864 1789 3864 1128 4102 1128 4102 1768.24C4102 1779.62 4092.64 1789 4081.28 1789Z" fill="#3A4050" fill-rule="evenodd" fill-opacity="0.301961"/><path d="M4111 1109.81 4078.84 1369.71C3903.29 1465.5 3236.6 1467.51 3059.04 1375.07L2986 1110.48C2986 1110.48 2989.35 1048.85 3046.97 1042.16 3089.86 1042.16 4027.25 1042.16 4027.25 1042.16 4027.25 1042.16 4100.28 1035.46 4111 1109.81Z" fill="#7F6000" fill-rule="evenodd"/><path d="M3564.11 1416C3274.14 1416 3120.11 1368.77 3118.77 1368.1 3116.1 1367.44 3114.09 1364.11 3115.43 1361.45 3116.1 1358.79 3119.44 1357.46 3122.12 1358.12 3123.46 1358.79 3276.15 1405.36 3564.11 1405.36 3814.57 1405.36 4020.17 1356.13 4022.17 1356.13 4024.85 1355.46 4028.2 1357.46 4028.87 1360.12 4029.54 1362.78 4027.53 1366.11 4024.85 1366.77 4022.84 1366.77 3815.91 1416 3564.11 1416Z" fill="#BF9000" fill-rule="evenodd" fill-opacity="0.6"/><path d="M3592.25 1555 3534.75 1555C3506 1555 3483 1536.01 3483 1512.28L3483 1400.72C3483 1376.99 3506 1358 3534.75 1358L3592.25 1358C3621 1358 3644 1376.99 3644 1400.72L3644 1512.28C3644 1536.01 3621 1555 3592.25 1555Z" fill="#BF9000" fill-rule="evenodd"/><path d="M3681 1361.13C3681 1332.7 3646.67 1309 3605.19 1309L3520.81 1309C3479.33 1309 3445 1332.7 3445 1361.13L3445 1418 3681 1418 3681 1361.13Z" fill="#BF9000" fill-rule="evenodd"/><path d="M3592.25 1536 3534.75 1536C3506 1536 3483 1517.01 3483 1493.28L3483 1381.72C3483 1357.99 3506 1339 3534.75 1339L3592.25 1339C3621 1339 3644 1357.99 3644 1381.72L3644 1493.28C3644 1517.01 3621 1536 3592.25 1536Z" fill-rule="evenodd"/><path d="M3496 1437 3496 1493.01 3497.44 1493.01C3497.44 1510.89 3514.75 1524 3536.38 1524L3594.06 1524C3615.69 1524 3633 1509.7 3633 1493.01L3633 1493.01 3633 1437 3496 1437Z" fill="#FED795" fill-rule="evenodd"/><path d="M3724 1039 3710.6 1039C3687.83 1039 3668.41 1022.29 3665.73 1000.9L3660.37 958.796C3658.36 942.755 3644.29 930.724 3627.55 930.724L3466.13 930.724C3449.39 930.724 3435.32 942.755 3433.31 958.796L3427.95 1000.9C3425.27 1022.96 3405.85 1039 3383.07 1039L3367 1039 3367 1031.65C3367 1022.96 3374.37 1016.28 3383.07 1016.28L3383.07 1016.28C3393.79 1016.28 3402.5 1008.92 3403.84 998.23L3409.2 956.122C3412.55 928.72 3436.66 908 3466.13 908L3627.55 908C3656.35 908 3680.46 928.72 3684.48 956.122L3689.84 998.23C3691.18 1008.26 3699.89 1016.28 3710.6 1016.28L3710.6 1016.28C3717.97 1016.28 3724 1022.29 3724 1028.97L3724 1039Z" fill="#1E2438" fill-rule="evenodd"/><path d="M3843 1198.26 3831.42 1169.87 3843 1137.93 3838.54 1119 3147 1119 3147 1216 3838.54 1216Z" fill="#F96E1A" fill-rule="evenodd"/><path d="M3839.44 1119 3838.54 1119 3147 1119 3147 1138 3843 1138Z" fill="#FF931E" fill-rule="evenodd"/><path d="M3843 1138 3147 1138 3147 1168 3829.63 1168Z" fill="#FFB31E" fill-rule="evenodd"/><path d="M3829.63 1168 3147 1168 3147 1197 3843 1197Z" fill="#FFA31E" fill-rule="evenodd"/><path d="M3147 1197 3147 1216 3838.54 1216 3839.44 1216 3843 1197Z" fill="#FF931E" fill-rule="evenodd"/><path d="M3948 1184.06 3948 1153.13 3849.03 1121 3853.48 1138.85 3841 1170.98 3853.48 1199.53 3849.92 1215Z" fill="#F8F0E5" fill-rule="evenodd"/><path d="M3997 1167.5 3948 1152 3948 1183Z" fill-rule="evenodd"/></g></svg>