<?xml version="1.0" encoding="UTF-8"?>
<svg width="900" height="600" version="1.1" viewBox="-350 -250 900 600" xmlns="http://www.w3.org/2000/svg" xmlns:xlink="http://www.w3.org/1999/xlink">
 <rect x="-350" y="-250" width="900" height="600" fill="#ce1126"/>
 <g transform="matrix(1.2857 0 0 1.2 100 50)">
  <path id="a" d="m52.844-154.12c1.4386 0.0418 2.6263 0.27337 3.4375 0.71875 0.69989 0.38176 1.8302 1.2064 2.5938 1.9062 1.018 0.89077 2.5718 1.2154 7.3438 1.4062 6.808 0.19088 9.5355 1.2908 11.062 4.2812 1.0816 2.0997 1.0774 2.2626 1.7812 4.0312-3.1582-0.90017-6.9383-2.1931-8.6562-1.875-2.3542 0.509-4.9062 1.953-4.9062 2.8438 0 0.31814 0.76548 1.0825 1.6562 1.7188 2.6365 0.64819 3.4986 0.64819 8.1562 0 6.1081-0.9544 6.5577-1.147 8.5938-3.4375 1.1453-1.3362 2.7967-3.1695 3.6875-4.1875 1.7815-1.9724 4.328-2.2804 5.2188-0.5625 0.89077 1.5907-1.4079 3.8936-4.8438 6.375-2.9904 2.1633-5.0918 3.6774-10.5 4.25-1.6861 0.19086-14.551 0.13415-15.188 0.5-0.63628 0.36586 6.6182 3.4668 13.844 1.3125-1.7179 3.4994-8.9062 6.2075-15.969 6.8438-7.8897 0.76354-13.307 2.4659-18.906 6.1562-5.9172 3.8812-9.0152 7.306-11.688 12.969-2.7359 5.5992-3.6931 10.308-3.375 15.844 0.38176 6.808 3.614 10.312 9.5312 10.312 4.0721 2e-5 5.6838-0.76407 7.6562-3.5 1.2725-1.9088 1.4364-2.7778 1.5-10.031 0-6.808 0.26098-8.3356 1.4062-10.562 2.2905-4.5174 5.5476-6.6267 15.219-10.062 4.8356-1.7179 11.319-4.194 14.5-5.5938 6.3626-2.6723 6.6292-2.6078 8.1562 1.7188 0.50901 1.4634 1.3961 2.5915 1.9688 2.7188 1.8452 0.38177 11.703-2.9772 17.875-6.0312 10.626-5.3446 16.153-10.067 21.625-18.656 3.245-5.0901 5.5999-6.547 8.7812-5.6562 3.6267 1.018 5.6551 4.1365 5.7188 8.7812 0.0636 4.0721-1.9088 7.4468-7.0625 12.219-8.7168 8.0805-25.001 15.459-39.062 17.75-4.6447 0.69992-6.875 2.4794-6.875 5.4062 0 4.263 4.6433 5.9989 15.969 6.0625 10.626 1e-5 17.318-2.6284 24.062-9.5 4.3266-4.5174 5.8567-5.2066 8.6562-4.125 1.3998 0.57265 2.875 3.6146 2.875 5.9688 1e-5 4.8356-6.384 12.603-12.938 15.594-4.8992 2.2906-9.3984 3.0681-16.906 2.75-5.5991-0.19086-7.6968-0.65709-12.469-2.375-9.5439-3.4994-10.386-3.614-11.531-2.4688-0.89077 0.89079-0.89189 1.1526 0.0625 3.125 1.6543 3.1813 7.9046 9.0923 11.531 10.938 8.6532 4.3902 17.156 3.4319 29.5-3.3125 6.299-3.4358 9.6236-3.553 11.469-0.5625 0.69989 1.1453 1.2812 2.8581 1.2812 3.8125 1e-5 2.4178-3.1945 5.8589-8.0938 8.5312-6.299 3.5631-10.745 4.6875-18.062 4.6875-6.5535 2e-5 -10.691-0.99718-19.344-4.6875-4.3902-1.8451-6.1672-2.0538-7.3125-0.78125-1.0816 1.3998 0.80518 5.0864 4.75 9.0312 5.9172 5.9173 17.702 10.389 25.719 9.625 2.2906-0.19085 5.0811-1.1036 7.5625-2.3125 5.0901-2.545 9.6157-2.7292 11.906-0.375 2.9268 2.8632 1.7697 7.3364-2.875 11.281-3.0541 2.6723-6.2247 3.6875-11.188 3.6875-5.5991 1e-5 -9.0394-1.2055-20.938-7.25-10.88-5.4718-13.426-6.3128-14.062-4.5312-0.76353 1.8452 1.2736 4.9589 7 10.812 11.771 11.898 18.461 14.244 31.25 11.062 9.0349-2.2905 12.134-0.73538 11.625 5.5-0.38176 4.3902-1.833 6.4628-5.9688 8.5625-2.6723 1.3998-3.9389 1.5938-9.1562 1.5938-4.8992-0.06362-6.6101-0.32348-9.2188-1.4688-4.5175-2.0996-14.463-8.882-20.062-13.781-6.8716-6.0445-9.5312-7.2092-9.5312-4.2188 0 2.9268 11.194 18.328 17.875 24.5 2.545 2.3542 6.3646 5.1047 8.7188 6.25 3.8812 1.9088 4.719 2.0949 10 2.0312 3.1177 2e-5 7.7373-0.12162 10.219-0.3125 5.4719-0.3181 7.25 0.74829 7.25 4.375 0 3.3722-4.7548 7.8803-9.7812 9.3437-10.371 3.054-21.69-2.2165-35.688-16.469-10.371-10.562-11.858-9.9105-5.75 2.6875 6.4899 13.489 14.725 23.085 23.188 27.094 4.3902 2.036 5.5171 2.1653 16.906 1.6562 5.0265-0.25455 7.3125 1.0698 7.3125 4.1875 0 1.5907-0.56222 2.6872-2.3438 4.4688-6.4899 6.4899-17.244 6.732-28.188 0.6875-6.1718-3.4358-21.196-19.903-29.531-32.437-4.4538-6.6807-5.598-7.5104-7.125-5.1563-0.95441 1.3998-1.0102 2.1647-0.4375 5.2188 1.7815 9.4167 6.2857 16.609 13.094 21.062 4.3902 2.7995 5.4209 4.4538 4.5938 7.0625-1.018 3.2449-7.2449 4.8162-11.062 2.8438-4.5175-2.2906-10.245-10.928-15.844-23.844-4.0085-9.2258-4.2776-9.5625-6.25-9.5625-5.1537 2e-5 -3.3615 10.841 2.9375 18.031 2.7996 3.1813 3.2537 5.3435 1.2812 7.125-1.6543 1.527-4.141 0.9558-8.5312-1.8438-4.0721-2.6087-6.2908-5.2413-9.2812-11.031-3.754-7.1898-5.3041-5.3294-2.25 2.6875 4.263 11.453 14.465 21.622 28.781 28.875 2.2269 1.0816 4 2.1841 4 2.375s-1.2843 1.8446-2.875 3.5625c-1.5907 1.7815-2.8438 3.3694-2.8438 3.6875 0 0.63625 8.6925 4.5864 19 8.5312l9.25 3.5625 4.75-3c6.5535-4.0085 10.174-6.9952 10.938-9.0312 1.527-3.9449 6.4358-6.5538 10.062-5.2812 1.2725 0.44536 2.8009 0.38626 5.2188-0.25 5.5991-1.4634 9.0004 2.9978 9.875 5.3125-1.9366 0.28802-1.007 0.21988-2.375 0.15625-5.7264-0.25451-6.2998-0.0763-8.7812 2.4688-2.6087 2.6723-6.1067 4.009-8.9062 3.5-1.2725-0.25455-2.9302 0.45383-6.875 3.0625-2.9268 1.8452-5.2812 3.558-5.2812 3.8125 0 0.63622 2.9918 0.63851 12.281-0.125 6.6171-0.50904 7.7196-0.75647 9.4375-2.1562 2.6087-2.2269 5.6056-2.6799 8.4688-1.3438 1.2726 0.63624 3.5344 1.1551 5.125 1.2188 1.7179 0.06364 3.5121 0.61149 4.5938 1.375 1.8452 1.3998 3.0885 2.1206 3.9375 4.9062-3.4557-0.05766-2.3311-0.05687-4.8125-0.375-4.263-0.63625-4.7264-0.5839-6.0625 0.625-0.82714 0.69987-2.0802 1.6807-2.8438 2.0625-1.9088 0.9544-6.3066 0.86402-8.4062-0.28125-1.3362-0.6363-4.346-0.87387-11.281-0.9375-5.2174-0.06365-9.7756-0.06363-10.094 0-0.38175-3e-5 1.6993 1.4071 4.5625 3.125 4.8992 2.9904 5.3632 3.0949 9.5625 3.0312 5.5991-0.06365 8.7655 1.5932 9.6562 5.1562 0.31813 1.2725 0.89949 3.569 1.2812 4.9688 0.89077 3.3722 1.2294 3.8932-1.25 9.7188-2.7102-6.3827-1.7979-4.4474-2.625-5.6562-1.3362-1.9724-1.8499-2.2768-5.0312-2.5312-4.3902-0.38179-6.4394-1.7193-8.0938-5.2188-1.0816-2.4178-2.2714-3.4358-8.125-7.0625-8.0169-4.9628-7.5276-4.9494-16.562-0.75-4.4538 2.0996-6.1115 3.1616-6.875 4.625-1.3362 2.6723-4.1937 3.7044-7.375 2.75-2.9904-0.89076-4.3077-0.39444-6.3438 2.4688-0.85894 1.2407-0.91608 0.99633-2.1875 2.1562-0.35615-1.782-0.375-2.031-0.375-3.8125 0-2.6087 0.31531-3.1267 3.6875-6.5625 3.9448-3.9449 6.3556-5.0192 9.2188-3.9375 1.3362 0.50904 2.4392 0.34067 5.875-1.25 3.8176-1.7179 5.2849-3.125 3.3125-3.125-0.38176 0-6.5625-2.2953-13.625-5.0312l-12.844-4.9688-1.9062 1.5312c-3.4994 2.7359-9.051 5.2812-11.469 5.2812-2.2269-4e-5 -2.4876-0.17821-3.1875-2.4688-1.0816-3.6267-8.5228-17.954-12.531-24.062-6.6808-10.308-10.353-12.996-13.344-9.6875-0.95439 1.0816-1.2199 2.3052-1.1562 6.25 0.12725 11.644 6.7519 26.848 15.469 35.438 4.5811 4.5811 9.6106 7.078 15.719 7.9688 4.7084 0.63626 7.875 1.8224 7.875 3.0312 0 1.2725-3.1213 4.982-5.0938 6-1.7179 0.89073-3.3733 1.0648-7 0.9375-4.3902-0.19087-5.2069-0.4237-9.4062-2.9688-4.1357-2.4814-4.7666-2.7022-5.5938-1.875-0.82716 0.82713-0.88626 1.4282-0.25 3.7188 1.3362 4.9628 4.8848 7.232 13.156 8.25 8.4623 1.0816 11.331 3.6489 8.5312 7.5938-1.8452 2.545-5.016 3.875-9.4062 3.875-4.9629-3e-5 -9.2435-2.1866-14.906-7.5312-2.4178-2.2269-4.6495-3.8795-5.0312-3.625-0.89077 0.50896-0.82939 5.601 0.125 8.7188 0.89077 2.9904 4.8947 7.7019 7.3125 8.6562 0.95441 0.38175 3.4026 1.1472 5.375 1.6562 6.9353 1.9088 7.9305 4.5988 3.0312 7.8438-3.1813 2.0996-8.4626 2.2827-12.344 0.4375-2.545-1.1453-9.5388-7.7083-10.875-10.062-1.1453-2.0997-2.3505-0.5552-1.9688 2.5625 0.2545 2.6086 1.7829 5.5394 5.2188 10.375 2.7996 3.8176 1.8345 8.9698-2.9375 15.969-3.1674 4.6706-6.1403 8.0027-7.5312 8.5938-0.27311-0.11605-0.61542-0.37071-1-0.6875v-260.03c0.33068 0.0672 0.66394 0.12069 1 0.125 1.0478-0.0134 2.1185-0.33882 2.9062-0.9375 1.1453-0.82712 1.1442-0.93496 0.0625-2.8438-1.3362-2.4814-0.88542-3.384 1.4688-2.875 2.0997 0.4454 3.9941-0.3947 6.0938-2.8125 1.9088-2.0997 1.9133-2.3359-0.25-2.7812-3.8812-0.82713-5.2193-3.625-1.6562-3.625 2.8632 1e-5 9.2199-4.1548 9.1562-6-0.06363-0.38176-1.2554-1.2689-2.7188-1.9688-3.3086-1.5907-3.3978-2.7934-0.34375-3.875 2.9904-1.018 7.8984-4.3201 8.3438-5.6562 0.31813-0.63627-0.3747-1.328-2.1562-2.2188-3.2449-1.6543-7.5625-5.6036-7.5625-6.8125 0-1.018 0.94115-0.96117 6.0312 0.375 1.3998 0.38176 4.58 0.6875 7.125 0.6875 3.6903 0 5.2807-0.37808 8.8438-1.9688 6.4899-2.8632 13.184-4.469 17.5-4.3438zm-5 9.375c-2.7942-0.13097-0.24965 2.4649-1.5938 3.3438-1.6543 1.0816-5.7259-4.5004-3.3438 1.875 1.3362 1.0817 8.3525 0.58615 9.625-0.75 1.2725-1.2725 0.25479-3.5245-1.7812-3.9062-1.3253-0.3777-2.2614-0.53228-2.9062-0.5625z"/>
  <use transform="scale(-1,1)" width="700" height="500" xlink:href="#a"/>
 </g>
</svg>
